<svg version="1.1" xmlns="http://www.w3.org/2000/svg" xmlns:xlink="http://www.w3.org/1999/xlink" width="265.41934" height="188.28876" viewBox="0,0,265.41934,188.28876"><g transform="translate(-66.77634,-62.98372)"><g data-paper-data="{&quot;isPaintingLayer&quot;:true}" fill-rule="nonzero" stroke="none" stroke-width="0.5" stroke-linecap="butt" stroke-linejoin="miter" stroke-miterlimit="10" stroke-dasharray="" stroke-dashoffset="0" style="mix-blend-mode: normal"><path d="M102.89882,151.8986c-1.17342,-1.58986 -2.96765,-0.62576 -2.96765,-0.62576l0.11805,0.23597c-2.53097,0 -5.22915,-0.23419 -7.74624,0.01154c-1.5045,0.14687 -3.00479,0.66613 -4.50722,0.49946c-2.49949,-0.27727 -4.83137,-0.53861 -7.37244,-0.48207c-1.0594,-0.38625 -1.8384,-1.33792 -2.58402,-2.18383c-0.50329,-0.57099 -1.26514,-0.90685 -1.68437,-1.54213c-0.93903,-1.42297 0.64695,-4.20995 1.11743,-5.39405c0.44827,-1.12822 0.43695,-2.75099 1.51207,-3.31486c0.55854,-0.29294 1.27188,-0.04984 1.8795,-0.21892c1.52465,-0.42426 2.9597,-1.25037 4.53425,-1.40954c4.7311,-0.47825 10.57483,2.12016 11.39897,7.02761c0,0 0.39294,2.42857 2.84439,1.93828c2.45145,-0.49029 1.96155,-2.94333 1.96155,-2.94333c-0.01386,-0.06277 -0.02812,-0.12539 -0.04283,-0.18772c0.25871,-0.88528 -0.08719,-1.75134 -0.08719,-1.75134c-1.39588,-3.41864 -4.14718,-6.0792 -5.48832,-9.47632c-2.60484,-6.59809 -4.34687,-14.48498 -4.32864,-21.60555c0.00465,-1.81462 -0.53261,-4.75807 0.28342,-6.48158c0.7106,-1.50082 1.93908,-2.70322 2.79342,-4.12713c0.94347,-1.40676 2.70066,-2.45475 4.6821,-3.21697c0.61781,0.90575 1.1514,2.04077 1.3744,3.36869c0,0 0.40849,2.39392 2.85994,1.90363c2.45145,-0.49029 1.96205,-2.94296 1.96205,-2.94296c-0.28962,-1.31143 -0.71136,-2.53156 -1.26853,-3.66096c0.93139,-0.16786 1.80743,-0.28629 2.56446,-0.36225c4.3656,-0.43803 8.64045,-2.06671 13.00303,-2.50343c0.42064,-0.04211 0.91358,-0.00989 1.33561,-0.0432c0.09353,1.50436 0.30971,2.9417 0.539,4.11463c0,0 0.41756,2.38282 2.86901,1.89253c2.45145,-0.49029 1.96234,-2.94294 1.96234,-2.94294c-0.1919,-0.93381 -0.39244,-2.11815 -0.48247,-3.33888c6.51451,-0.03596 13.08846,0.7752 19.33084,1.81559c3.27935,0 5.15739,0.9004 8.23624,1.46154c2.6317,0.47965 5.17627,0.23155 7.83437,0.95951c1.96151,0.53719 3.87551,1.35607 5.89793,1.57033c3.649,0.38658 7.35317,0.67212 11.00618,0.99771c1.75095,0.15606 3.55653,-0.39472 5.27698,-0.03383c2.73459,0.57363 5.35322,1.74635 8.23189,2.03205c3.4585,0.34324 6.27694,-0.45121 9.54096,0.90827c2.70356,0.54072 4.87839,1.78499 7.50577,2.50053c0.57195,0.15577 1.28644,-0.19037 1.77358,0.1474c0.47027,0.32608 0.48112,1.03927 0.70124,1.5675c0.95929,2.30199 1.81313,4.43259 2.29115,6.88006l-0.04838,1.00976c0,0 0.00265,2.50077 2.50265,2.50077c2.5,0 2.46812,-2.40523 2.46812,-2.40523l-0.048,-1.9901c-0.28913,-1.41784 -0.66775,-3.35244 -1.25546,-5.18129c4.86823,-0.78489 9.91532,-0.42004 14.84329,-0.42004c3.18968,0 6.58745,-0.32668 9.75854,-0.00923c2.52267,0.25253 4.9773,1.25026 7.50357,1.50267c4.02366,0.40202 8.04726,-0.38931 12.03804,0.41224c2.50493,1.00197 5.23187,1.25164 7.67033,2.37779c3.36786,1.55539 6.63892,3.16943 10.11928,4.55405c2.46087,0.97903 2.82479,1.29802 5.43937,1.6321c0.46021,0.05881 1.04428,-0.33663 1.39173,-0.02917c1.13103,1.00088 0.69178,2.98184 1.42042,4.30474c1.22509,2.22423 2.73887,4.29778 4.00168,6.50338c2.16323,3.77826 2.20464,10.06152 2.18185,14.28185c0,0.83334 0.00033,1.66785 0.00033,2.50119l0.62858,2.29175c0,0 0.24645,0.73956 0.87648,1.25503c1.0546,1.52401 2.82607,0.79719 2.82607,0.79719c2.17223,-0.87962 4.56182,-1.61811 6.91577,-1.85376c2.64655,-0.26493 2.97701,-0.58054 4.3652,1.15106c0.82956,1.03478 2.54219,2.09979 2.97965,3.53106c0.89333,2.92281 -1.6588,5.36004 -3.62141,6.85915c-3.15151,2.40723 -6.60471,4.62571 -10.30074,1.71794c-0.82706,-1.10724 -1.44482,-2.37096 -1.94636,-3.65877l0.17885,-0.57125c0,0 0.00022,-2.49855 -2.49978,-2.49855c-2.5,0 -2.40118,2.48474 -2.40118,2.48474l0.17898,2.42977c0.77503,1.89811 1.82171,3.70341 3.05368,5.34223c0.26106,0.19142 0.52102,0.37218 0.77991,0.5419c-0.01212,0.11901 -0.01212,0.19073 -0.01212,0.19073l0.04859,1.99132c0.87082,3.94317 3.0937,7.59641 6.72654,9.6939c1.39146,0.80339 2.93857,1.35855 4.22474,2.32153c1.35847,1.01711 2.11962,2.78551 3.61699,3.58416c2.21645,1.18219 4.94305,0.89898 7.41007,1.37239c2.10682,0.40429 4.30555,1.78362 5.97265,3.04602c1.03398,0.78297 2.6155,0.99537 3.26384,2.11867c0.42675,0.73937 -0.93131,4.5776 -1.09611,5.48261c-1.51965,2.53276 -1.30501,4.89881 -2.45113,7.384c-1.81592,3.93759 -4.27325,7.59314 -5.17416,12.05253c-0.50455,2.49746 -0.3977,4.35633 -1.72553,6.75047c-1.1952,2.155 -2.9369,3.29108 -4.58943,4.95935c-2.76593,2.79226 -4.88176,6.84488 -8.75495,8.48961c-1.58102,0.67137 -3.31612,1.09422 -4.70536,2.10436c-3.14817,1.24031 -6.0582,1.07163 -9.24965,1.72689c-1.62632,0.33392 -3.63427,1.60341 -5.26641,2.06796c-3.85339,1.09679 -7.60296,1.48992 -11.51141,1.90399c-1.75417,0.18584 -4.93613,1.04404 -6.41601,1.77538c-0.63115,0.31191 -0.96496,1.11559 -1.6311,1.34344c-0.61793,0.21136 -1.30584,-0.17383 -1.95632,-0.11566c-1.69292,0.15139 -3.3106,0.83216 -5.00182,1.00146c-3.98724,0.39915 -8.24729,-0.00909 -12.25818,-0.00909c-4.56347,0 -10.39931,0.96938 -14.79444,-0.39294c-2.47762,-0.76797 -5.28184,-1.67788 -7.60511,-2.84192c-2.33252,-1.16868 -3.90062,-3.05606 -7.00715,-2.09463c-2.26659,0.70148 -2.80445,3.8809 -5.58467,4.38125c-5.65178,1.01714 -11.51268,-0.21878 -17.2849,0.96741c-8.21061,0 -16.75767,1.32379 -25.02207,0.49647c-9.42421,-0.94343 -18.45924,-2.5588 -28.01232,-2.50723c-6.77787,-1.35558 -14.13382,-0.81756 -21.00585,-1.5055c-5.30077,-0.53064 -10.05193,-2.54741 -15.07619,-3.924c-1.68038,-0.46041 -3.57357,-0.1428 -5.15409,-0.87599c-0.75595,-0.35068 -1.23902,-1.16236 -2.00053,-1.50081c-0.77659,-0.34515 -1.72299,-0.15727 -2.50039,-0.5006c-2.22821,-0.98408 -4.7719,-2.6763 -6.91092,-3.95971c-3.54508,-1.39627 -8.73889,-4.55927 -10.33068,-8.28492c-0.3339,-0.7815 -0.11702,-1.7424 -0.50037,-2.50086c-0.56056,-1.1091 -1.30583,-2.17139 -2.26205,-2.96512c-0.61179,-0.50783 -1.6247,-0.29695 -2.25316,-0.784c-0.87698,-0.67965 -0.26844,-4.93357 -0.26844,-5.73416c0,-7.23619 -0.65535,-15.06222 3.23779,-21.39657c2.28472,-5.8008 7.56164,-8.17774 12.87081,-10.87513c0.94177,-0.47848 2.06289,-0.62439 2.90978,-1.25578c1.91441,-1.42726 3.54928,-4.02145 5.24692,-5.71909c1.9567,-1.9567 4.01789,-3.50148 5.41166,-6.04597c1.83643,-3.35261 2.16859,-7.61085 2.78714,-11.31973c0,0 0.28151,-1.68905 -1.01776,-2.5047z" data-paper-data="{&quot;noHover&quot;:false,&quot;origItem&quot;:[&quot;Path&quot;,{&quot;applyMatrix&quot;:true,&quot;segments&quot;:[[[104.46599,154.411],[0,0],[-0.61855,3.70888]],[[101.67941,165.72482],[1.83643,-3.35261],[-1.39377,2.54449]],[[96.26777,171.76777],[1.9567,-1.9567],[-1.69764,1.69764]],[[91.02072,177.4843],[1.91441,-1.42726],[-0.84689,0.63138]],[[88.11091,178.73962],[0.94177,-0.47848],[-5.30917,2.69739]],[[75.23962,189.61091],[2.28472,-5.8008],[-3.89315,6.33435]],[[72,211],[0,-7.2362],[0,0.80059]],[[72.26777,216.73224],[-0.87698,-0.67964],[0.62846,0.48705]],[[74.52072,217.51571],[-0.61179,-0.50783],[0.95622,0.79372]],[[76.78226,220.47958],[-0.56056,-1.1091],[0.38335,0.75847]],[[77.28226,222.97958],[-0.33389,-0.7815],[1.59179,3.72565]],[[87.61091,231.26039],[-3.54508,-1.39628],[2.13902,1.28341]],[[94.52043,235.21774],[-2.22821,-0.98408],[0.77739,0.34333]],[[97.02043,235.71774],[-0.77659,-0.34515],[0.76151,0.33845]],[[99.02043,237.21774],[-0.75596,-0.35068],[1.58052,0.73319]],[[104.17364,238.09247],[-1.68037,-0.46041],[5.02426,1.3766]],[[119.24635,242.01217],[-5.30076,-0.53064],[6.87202,0.68794]],[[140.24635,243.51217],[-6.77787,-1.35557],[9.55308,-0.05158]],[[168.24635,246.01217],[-9.42421,-0.94342],[8.26441,0.82732]],[[193.25366,245.51217],[-8.21061,0],[5.77222,-1.18619]],[[210.52723,244.54511],[-5.65178,1.01713],[2.78021,-0.50035]],[[216.10775,240.16465],[-2.26659,0.70148],[3.10653,-0.96142]],[[223.11091,242.26039],[-2.33252,-1.16868],[2.32326,1.16404]],[[230.71237,245.10364],[-2.47762,-0.76797],[4.39514,1.36232]],[[245.5,245.5],[-4.56347,0],[4.01089,0]],[[257.75365,245.51217],[-3.98724,0.39915],[1.69122,-0.1693]],[[262.75365,244.51217],[-1.69292,0.15139],[0.65048,-0.05817]],[[264.70943,244.62829],[-0.61793,0.21136],[0.66613,-0.22785]],[[266.33974,243.28555],[-0.63115,0.31191],[1.47988,-0.73135]],[[272.75365,241.51217],[-1.75417,0.18584],[3.90846,-0.41406]],[[284.26219,239.61136],[-3.85339,1.09679],[1.63214,-0.46455]],[[289.52723,237.54511],[-1.62633,0.33391],[3.19145,-0.65526]],[[298.77519,235.82059],[-3.14817,1.24031],[1.38923,-1.01014]],[[303.47958,233.71774],[-1.58102,0.67137],[3.87319,-1.64472]],[[312.23224,225.23224],[-2.76593,2.79226],[1.65253,-1.66826]],[[316.82059,220.27519],[-1.1952,2.155],[1.32783,-2.39414]],[[318.54511,213.52723],[-0.50455,2.49747],[0.90091,-4.45939]],[[323.71774,201.47958],[-1.81592,3.93759],[1.14612,-2.48519]],[[326.1682,194.09851],[-1.51966,2.53276],[0.1648,-0.90501]],[[327.26393,188.61804],[0.42675,0.73937],[-0.64834,-1.1233]],[[324,186.5],[1.03397,0.78297],[-1.6671,-1.26241]],[[318.02723,183.45489],[2.10683,0.40429],[-2.46702,-0.47341]],[[310.61714,182.08271],[2.21645,1.1822],[-1.49737,-0.79865]],[[307,178.5],[1.35847,1.01711],[-1.28618,-0.96298]],[[302.77519,176.17941],[1.39146,0.80338],[-3.63284,-2.09749]],[[296.04855,166.49029],[0.87083,3.94317],[0,0]],[296,164.5],[[296.01213,164.30937],[-0.01213,0.119],[-0.25889,-0.16972]],[[295.23224,163.76777],[0.26105,0.19142],[-1.23197,-1.63882]],[[292.17881,158.42848],[0.77503,1.89811],[0,0]],[292,156],[[294.5,153.5],[-2.5,0],[2.5,0]],[297,156],[[296.82119,156.57153],[0,0],[0.50154,1.28781]],[[298.76777,160.23224],[-0.82706,-1.10724],[3.69603,2.90777]],[[308.96895,158.52368],[-3.15151,2.40723],[1.96261,-1.4991]],[[312.59072,151.66734],[0.89333,2.92281],[-0.43746,-1.43127]],[[309.61136,148.13801],[0.82956,1.03477],[-1.38819,-1.73159]],[[305.24635,146.98783],[2.64655,-0.26494],[-2.35395,0.23565]],[[298.42848,148.82119],[2.17223,-0.87962],[0,0]],[[295.50461,148.04489],[1.0546,1.52401],[-0.63003,-0.51547]],[294.62829,146.79057],[[294,144.5],[0,0],[0,-0.83334]],[[294,142],[0,0.83334],[0.02278,-4.22033]],[[291.82059,127.72482],[2.16323,3.77826],[-1.26281,-2.2056]],[[287.82059,121.22482],[1.22509,2.22423],[-0.72864,-1.3229]],[[286.40126,116.92199],[1.13103,1.00087],[-0.34744,-0.30746]],[[285.00971,116.95145],[0.46021,0.05881],[-2.61458,-0.33409]],[[279.57153,115.32119],[2.46087,0.97903],[-3.48036,-1.38462]],[[269.45536,110.77128],[3.36786,1.55539],[-2.43845,-1.12615]],[[261.78764,108.39636],[2.50493,1.00197],[-3.99077,-0.80155]],[[249.75366,107.98784],[4.02365,0.40202],[-2.52626,-0.2524]],[[242.25366,106.48784],[2.52267,0.25253],[-3.17109,-0.31745]],[[232.5,106.5],[3.18968,0],[-4.92797,0]],[[217.66601,106.92379],[4.86823,-0.78489],[0.58771,1.82885]],[[218.95145,112.00971],[-0.28913,-1.41784],[0,0]],[219,114],[[216.5,116.5],[2.5,0],[-2.5,0]],[214,114],[[214.04855,112.99029],[0,0],[-0.47802,-2.44746]],[[211.76039,106.11091],[0.95928,2.302],[-0.22012,-0.52823]],[[211.05988,104.54354],[0.47027,0.32608],[-0.48713,-0.33777]],[[209.28764,104.39636],[0.57195,0.15577],[-2.62738,-0.71554]],[[201.78764,101.89636],[2.70356,0.54072],[-3.26402,-1.35948]],[[192.25366,100.98784],[3.4585,0.34324],[-2.87867,-0.2857]],[[184.02723,98.95489],[2.73459,0.57363],[-1.72045,-0.36089]],[[178.75366,98.98784],[1.75095,0.15606],[-3.65302,-0.32559]],[[167.75366,97.98784],[3.649,0.38658],[-2.02242,-0.21425]],[[161.85833,96.41625],[1.96151,0.53718],[-2.6581,-0.72796]],[[154.02723,95.45489],[2.6317,0.47965],[-3.07885,-0.56114]],[[145.7938,93.99148],[3.27935,0],[-6.24238,-1.0404]],[[126.4683,92.17149],[6.51451,-0.03596],[0.09003,1.22073]],[[126.95145,95.50971],[-0.1919,-0.93381],[0,0]],[[124.99029,98.45145],[2.45145,-0.49029],[-2.45145,0.49029]],[[122.04855,96.49029],[0,0],[-0.22929,-1.17293]],[[121.51039,92.3748],[0.09353,1.50436],[-0.42203,0.03331]],[[120.24635,92.48784],[0.42064,-0.04211],[-4.36258,0.43672]],[[107.24635,94.98784],[4.3656,-0.43803],[-0.75703,0.07596]],[[104.68237,95.34947],[0.93139,-0.16786],[0.55718,1.1294]],[[105.95145,99.00971],[-0.28962,-1.31143],[0,0]],[[103.99029,101.95145],[2.45145,-0.49029],[-2.45145,0.49029]],[[101.04855,99.99029],[0,0],[-0.22301,-1.32792]],[[99.7555,96.67975],[0.61781,0.90574],[-1.98144,0.76223]],[[95.07462,99.89497],[0.94347,-1.40676],[-0.85434,1.42391]],[[92.28227,104.02043],[0.7106,-1.50082],[-0.81603,1.72351]],[[92,110.5],[0.00464,-1.81462],[-0.01823,7.12057]],[[96.33181,132.09851],[-2.60483,-6.59808],[1.34114,3.39712]],[[101.82119,141.57153],[-1.39588,-3.41864],[0,0]],[[101.9086,143.32208],[0.25871,-0.88528],[0.01471,0.06232]],[[101.95145,143.50971],[-0.01386,-0.06277],[0,0]],[[99.99029,146.45145],[2.45145,-0.49029],[-2.45145,0.49029]],[[97.04855,144.49029],[0,0],[-0.82415,-4.90745]],[[85.74635,137.48783],[4.7311,-0.47825],[-1.57455,0.15917]],[[81.21237,138.89636],[1.52465,-0.42426],[-0.60762,0.16908]],[[79.33293,139.11502],[0.55854,-0.29294],[-1.07511,0.56386]],[[77.82119,142.42848],[0.44827,-1.12822],[-0.47048,1.1841]],[[76.70419,147.82036],[-0.93903,-1.42298],[0.41922,0.63529]],[[78.38863,149.362],[-0.50329,-0.57099],[0.74563,0.84591]],[[80.97277,151.54511],[-1.0594,-0.38625],[2.54107,-0.05654]],[[88.24635,152.01217],[-2.49949,-0.27727],[1.50244,0.16666]],[[92.75366,151.51217],[-1.5045,0.14687],[2.51709,-0.24572]],[[100.5,151.5],[-2.53097,0],[0,0]],[100.38197,151.26393],[[103.44803,151.90747],[-1.17342,-1.58986],[1.29927,0.81565]]],&quot;closed&quot;:true}]}" fill="#710000"/><path d="M207.35658,110.85264c2.48069,-0.31009 2.79078,2.17061 2.79078,2.17061l0.31014,2.5177c1.98496,7.88121 6.44465,14.17528 9.26279,21.71577c1.47035,5.89441 2.18619,14.4389 -3.74729,18.20816c-3.22933,2.05145 -7.23891,1.46831 -10.70757,2.85486c-2.6698,1.06722 -4.9324,3.61235 -7.84333,4.14436c-5.55484,1.01523 -10.32709,-2.93476 -15.02084,-4.81103c-2.89163,-1.15589 -5.86497,-1.57778 -8.79444,-2.84502c-0.58849,-1.31391 -1.56697,-2.51579 -1.76548,-3.94172c-0.16313,-1.17179 0.47003,-2.31926 0.73333,-3.47268c0.82591,-3.618 1.89405,-6.69627 3.05617,-10.19178c1.70351,-5.12393 4.36645,-9.75941 6.38255,-14.8001c1.36619,-3.41575 1.95933,-7.56838 3.85507,-10.70811c0.9722,-1.61016 2.33826,-2.94887 3.43055,-4.4801c0,0 1.45309,-2.03433 3.48743,-0.58124c2.03433,1.4531 0.58123,3.48743 0.58123,3.48743c-1.02605,1.43469 -2.29414,2.69534 -3.23611,4.18657c-1.74943,2.76951 -2.25034,6.88901 -3.47826,9.95856c-1.98025,4.95024 -4.60778,9.51707 -6.28412,14.53324c-0.52059,1.55777 -1.53945,2.93371 -1.9562,4.52241c-0.45481,1.73377 -0.50779,3.55881 -0.98763,5.28581c-0.23302,0.83866 -0.6334,1.75742 -0.36549,2.5856c2.33164,0.58327 4.98451,0.93278 7.20555,1.82165c3.64067,1.45701 7.98425,5.3716 12.31249,4.5223c2.30591,-0.45247 4.64764,-2.98492 6.82333,-3.85564c2.91834,-1.16793 9.28014,-0.55986 11.22698,-3.46091c1.00938,-1.50412 1.19808,-4.83681 1.20517,-6.5698c0.00726,-1.7739 -0.463,-3.2149 -0.88701,-4.90627c-2.91053,-7.73137 -7.38323,-14.14747 -9.40387,-22.28423l-0.35654,-2.81563c0,0 -0.31008,-2.4807 2.17061,-2.79078z" fill="#000000"/><path d="M173.2153,126.90274l-0.52538,-0.42204c-5.23546,-0.66458 -10.74712,-0.99084 -16.02325,-0.98069c-4.51873,0 -9.07281,-0.2148 -13.54095,0.62416c-6.59603,1.23851 -12.63574,4.65526 -19.62838,3.32479c-4.87313,-0.9272 -10.88572,-5.33041 -11.32663,-10.64012c-0.09212,-1.10944 0.441,-2.17826 0.70285,-3.2647c-0.51172,-1.85346 1.34174,-2.7802 1.34174,-2.7802l2.5117,-1.18928c3.77632,-0.91951 7.40341,-0.74131 11.273,-0.74131c9.7383,0.01667 18.83056,2.85768 28.07661,5.77971c2.61875,0.82761 5.47575,0.51541 8.0473,1.34857c0.85219,0.27611 1.48372,1.04938 2.33333,1.33334c3.19195,1.06681 6.81407,1.77925 10.1491,2.61301c0,0 2.42535,0.60634 1.81902,3.0317c-0.46821,1.87286 -2.0211,1.93794 -2.7043,1.87041c-1.13229,0.77939 -2.50576,0.09266 -2.50576,0.09266zM117.75869,116.60634c-1.23892,3.98686 2.9376,7.24633 6.74397,7.94472c6.17213,1.13245 11.85565,-2.24652 17.70495,-3.34188c3.13837,-0.5877 6.30527,-0.70938 9.47852,-0.72364c-7.78514,-2.41275 -15.47091,-4.66801 -23.68614,-4.6522c-3.42539,0 -6.73571,-0.26627 -10.06033,0.59202l-0.16191,0.0882c-0.01077,0.05959 -0.01907,0.09279 -0.01907,0.09279z" fill="#000000"/><path d="M223.08645,127.17491c-1.23734,0.56396 -2.5055,1.09208 -4.1097,1.30579c0,0 -2.4807,0.31009 -2.79078,-2.17061c-0.31008,-2.48069 2.17061,-2.79078 2.17061,-2.79078c0.26671,-0.0305 0.51943,-0.07058 0.76055,-0.11882c0.65492,-1.23382 2.21621,-1.23382 2.21621,-1.23382h0.66666c0.10226,0.00065 0.20549,0.00158 0.30962,0.00284c0.90243,-0.46002 1.82638,-0.93346 3.04871,-1.25241c4.28089,-1.11702 9.57715,0.57881 13.97501,0.58291c8.99713,0.00839 17.95984,-1 27,-1c4.08049,0 11.41632,-0.41938 14.66395,2.63419c3.50723,3.29766 3.15131,11.02142 -1.02952,13.66723c-3.33207,2.10867 -9.17938,1.61151 -12.7433,0.9925c-4.72951,-0.82147 -9.50218,-1.86194 -14.15585,-3.03317c-2.7673,-0.69647 -4.84622,-1.94265 -7.71203,-2.28005c-3.64571,-0.45938 -8.20818,-0.4985 -11.622,-1.82762c-1.62339,-0.63204 -2.86938,-2.07316 -4.52515,-2.6147c-1.79732,-0.58783 -4.10539,-0.81686 -6.12298,-0.86347zM240.10579,126.49695c0.0558,0.00544 0.11147,0.01141 0.167,0.01798c1.9172,0.22678 3.78805,0.76699 5.70397,1.00437c8.25372,1.08 16.11634,5.41153 24.50726,5.98524c3.2486,0.22212 7.47962,-0.0073 7.68748,-3.65989c0.05163,-0.90717 0.39841,-2.24016 -0.50212,-2.97884c-0.6994,-0.5737 -3.36689,-0.66162 -3.7951,-0.74165c-2.68172,-0.50123 -4.7878,-0.62416 -7.54095,-0.62416c-8.7844,0 -17.48442,0.93613 -26.22754,0.99695z" fill="#000000"/><path d="M169.76393,213.88197l0.73607,-0.88197c0.04971,-2.75163 -2.35561,-8.01528 -6.06556,-4.8989c-1.31606,1.1055 0.68664,6.0931 1.19676,7.24743c0,0 0.06723,0.15687 0.12557,0.4062c1.26863,0.00285 2.53906,0.01766 3.80552,-0.0049c-0.25613,-0.95234 0.20164,-1.86788 0.20164,-1.86788zM160.8989,204.56557c3.49299,-3.65688 10.49032,-2.18516 13.13954,1.65378c1.7697,2.56444 1.42567,3.99573 1.46156,6.78065l-0.93069,2.29594c2.02698,-0.49976 3.94018,-1.55554 5.90861,-2.20942c-0.16664,-1.09853 0.60152,-2.02032 0.60152,-2.02032c2.63797,-3.13969 4.25791,-6.13836 8.02784,-8.24492c0.27897,-0.15589 0.56617,-0.29318 0.85993,-0.41521c-0.81146,0.01257 -1.63493,0.03558 -2.47853,0.0891c-2.88733,0.18318 -5.73046,0.52898 -8.64402,0.33333c-1.96846,-0.13218 -5.45352,-0.62752 -6.99657,-1.81752c-1.28545,-0.99133 -2.03873,-2.01332 -2.42395,-3.0602c-0.24117,0.37775 -0.48775,0.75313 -0.70398,1.1418c-0.79703,0.89719 -1.3675,2.06508 -2.39109,2.69155c-2.78882,1.70687 -6.18396,0.76254 -9.20335,1.34004c-1.06152,0.20303 -2.33378,0.49034 -3.71562,0.77187c0.40019,0.44225 0.75533,0.93141 1.05798,1.46954c0.88471,1.57308 1.46935,6.00478 0.8826,7.81883c-0.37771,1.16777 -1.24077,2.10719 -1.95144,3.12297c2.35723,-0.10756 4.70902,-0.24722 7.08354,-0.38842c-1.32311,-3.57631 -2.38822,-8.41747 0.41611,-11.35338zM148.03547,215.68187c1.05533,-2.40223 3.85373,-4.85011 2.16312,-7.71411c-2.19921,-3.72559 -8.42877,-2.21221 -11.78864,-1.24748c-1.15521,0.3317 -3.86749,1.71555 -4.26949,2.97409c-0.09493,0.29722 0.45531,0.42855 0.65776,0.66597c0.60559,0.71023 1.35382,1.33612 1.7642,2.17442c0.38739,0.79136 0.52305,1.67736 0.70881,2.54453c2.91947,0.61971 5.82642,1.08465 8.55079,1.42553c0.71741,-0.00138 1.43166,-0.00853 2.1435,-0.02064zM129.19287,208.97229c0.15753,-1.29951 1.42264,-2.2012 2.21991,-3.23942c0.25842,-0.33651 0.54924,-0.66024 0.86867,-0.97013c-3.11461,0.99976 -5.58791,0.59798 -8.77013,0.39909c-3.00463,-0.18779 -6.55461,0.31555 -9.07887,-1.88099c-2.85514,-2.48446 -2.97765,-6.50007 -2.80056,-10.33706c-0.04922,0.04235 -0.09859,0.08463 -0.14813,0.12685c-1.16132,2.53293 -2.46318,4.70085 -4.27153,6.47435c0.22124,0.01049 0.37342,0.02326 0.42943,0.03878c2.01059,0.55689 3.74386,2.20548 5.29212,3.49569c3.02736,2.5228 6.64305,5.58214 10.18059,7.34933c2.34824,1.17308 4.94621,2.15925 7.64793,2.98488c-0.91109,-1.40076 -1.76572,-2.82224 -1.56945,-4.44137zM266.95834,185.77934c3.44174,4.49446 0.79498,10.48568 -3.82644,12.78308c-4.10944,2.04289 -11.37081,0.86673 -15.24629,-1.32453c-1.18926,-0.67243 -2.69494,-1.13509 -3.38122,-2.3164c-1.55813,-2.68206 0.13177,-7.39352 1.19774,-9.90628c1.04874,-2.47212 2.18236,-4.48324 3.77785,-6.53547c-4.24777,-1.00567 -8.5976,-1.63367 -12.98591,-2.02438l0.00986,0.30432c1.35547,2.39371 3.02602,4.3972 4.40061,6.79262c0.40368,0.98168 1.03702,1.89798 1.21106,2.94506c0.9315,5.60423 -2.41998,7.80442 -6.09643,11.01539c-0.92306,0.80619 -1.59403,2.00158 -2.72914,2.46364c-2.47785,1.00864 -6.67393,-0.17517 -9.2498,-0.4936c-2.62489,-0.3245 -5.68444,-0.22967 -7.5002,-2.8351c-0.84208,-1.2083 -0.15055,-4.7484 -0.35464,-6.3422c-0.59457,-4.64325 -1.01873,-8.90729 -1.01873,-13.6388c0,0 0,-0.3776 0.14676,-0.83931c-0.88507,0.0019 -1.7675,0.00429 -2.64676,0.00598c-5.13871,0 -10.36002,0.24196 -15.52359,0.13564l0.28229,1.42468c0.44094,1.83977 0.39388,2.60995 1.56141,4.08885c1.7816,2.25674 4.76763,3.41328 5.97316,6.18867c2.14153,4.93026 0.15995,9.65398 -3.57602,12.49567c5.30784,-0.81947 10.58849,-1.35327 16.10477,-0.99535c3.61384,0.23449 7.21231,1.23 10.82141,1.68114c3.02452,0.40293 5.22552,1.32108 8.00805,2.51617c0.82124,0.35272 1.72055,0.56226 2.46293,1.05997c0.37506,0.25144 0.32635,1.16042 0.77517,1.11093c0.41539,-0.04581 0.00841,-0.8952 0.26438,-1.22555c0.73706,-0.95124 1.57186,-1.88848 2.61431,-2.48965c0.98676,-0.56906 2.19086,-0.6252 3.29207,-0.91653c6.35897,-1.68224 12.32081,-0.57564 18.63422,-1.38924c1.97749,-0.25484 3.96414,-0.90025 5.94425,-0.66666c3.87017,0.45655 7.79807,2.3306 11.346,3.85007l0.11228,0.06584c0.15992,-0.31374 0.3461,-0.62356 0.56506,-0.92858c1.93761,-2.69924 4.60187,-4.59522 7.48217,-6.13309c-4.78827,-1.14544 -9.99604,-2.27072 -14.13207,-4.9172c-1.69031,-1.08157 -3.07106,-2.5839 -4.6127,-3.86854c0,0 -0.03158,-0.02632 -0.08327,-0.07625c-0.62375,-0.03629 -1.10098,-0.2749 -1.10098,-0.2749l-1.86676,-0.93821c-0.84731,-0.36656 -1.70511,-0.66107 -2.56437,-0.93816c0.57679,0.28021 1.12713,0.58957 1.50751,1.0863zM253.92056,180.9338c-1.00571,1.19699 -1.98982,2.44576 -2.68267,3.84726c-1.07852,2.18164 -1.67378,4.01548 -2.07605,6.37429c-0.07284,0.42712 -0.55385,0.88379 -0.3329,1.2565c0.57282,0.96624 2.07017,0.89625 3.15826,1.17517c2.40569,0.61668 6.46802,1.73696 8.8809,0.51723c1.48956,-0.75298 3.92319,-3.46686 2.17356,-5.21692c-0.9144,-0.91463 -2.11219,-1.49311 -3.16828,-2.23967l-0.68741,-3.67091c0,0 -0.04084,-0.32672 0.02569,-0.75784c-1.5695,-0.82158 -3.11156,-1.66787 -4.76592,-2.31233c-0.17658,0.60888 -0.52518,1.02721 -0.52518,1.02721zM279.68187,207.29787c-3.12995,-1.3424 -6.58161,-3.02247 -9.98733,-3.48326c-1.5754,-0.21315 -3.14429,0.47484 -4.72242,0.66667c-2.66586,0.32404 -5.5956,-0.00218 -8.28398,0.01864c-3.40829,0.0264 -8.68317,-0.07139 -11.78973,1.67559c-2.14136,1.2042 -1.23539,3.72114 -4.45464,4.2848c-1.37605,0.24094 -2.59869,-1.02639 -3.8915,-1.55574c-2.99207,-1.22514 -5.63475,-2.72145 -8.86236,-3.09052c-9.63327,-1.20416 -19.11027,-2.79867 -28.75025,-0.38868c-2.38315,0.59579 -5.24133,0.49129 -7.38029,1.75336c-2.18458,1.28899 -3.45345,2.89813 -4.77911,4.6719c0.9562,-0.11153 1.92217,-0.21148 2.91427,-0.33189c2.70347,-0.3281 5.29076,-1.66187 8,-2c0.20057,-0.02504 5.78823,-0.01873 5.97213,-0.01873c8.64378,0.01179 16.16045,2.63494 24.48516,4.38086c2.86098,0.60003 5.92804,0.68028 8.76292,1.35435c2.84885,0.67739 5.44281,2.32032 8.30494,2.99338c6.16306,1.44932 13.32535,1.26411 19.62497,1.27623c4.54348,-0.54256 7.5102,-2.33361 10.80284,-5.35089c1.15296,-1.05653 2.8427,-1.60592 3.6535,-2.94315c0.6704,-1.10568 0.97573,-2.25459 1.19272,-3.40993zM137.88029,200.90663c-0.25205,0.32564 -0.52228,0.63838 -0.8113,0.93671c0.35897,-0.13828 0.72562,-0.26675 1.0984,-0.38494c-0.10244,-0.17556 -0.19826,-0.35938 -0.2871,-0.55177zM220.16667,176.66667c0,4.54534 0.43603,8.57448 0.98127,13.02787c0.1204,0.98338 0.09971,1.98471 0.01873,2.97213c-0.03822,0.46608 -0.59744,0.94187 -0.37337,1.35234c0.2033,0.37242 0.82734,0.19534 1.2481,0.25002c1.75224,0.22776 3.51556,0.36285 5.26869,0.58361c1.3552,0.17066 2.83425,1.0935 4.06654,0.50433c0.59961,-0.28668 0.79537,-1.07201 1.27087,-1.53636c2.91805,-2.8496 5.81805,-3.59499 3.78129,-8.03955c-1.31038,-2.30593 -2.93719,-4.23298 -4.26605,-6.54071l-0.62871,-2.82935c0,0 -0.01951,-0.11703 -0.02452,-0.30435c-3.83275,-0.20129 -7.67645,-0.26331 -11.48926,-0.27829c0.14643,0.46125 0.14643,0.8383 0.14643,0.8383zM171.29749,188.53522c0.36606,-1.09914 1.02528,-4.70142 1.43283,-5.58333c1.00512,-2.17504 2.82044,-4.53639 4.41866,-6.49324c-0.05891,0.00772 -0.11786,0.01526 -0.17685,0.02263c-2.62325,0.32731 -5.40784,0.03289 -8.03267,0.33714c-1.28229,0.14863 -2.52627,0.51637 -3.77775,0.84626c1.16259,4.34578 4.40143,8.45117 5.40339,12.85444c0.25615,-0.65764 0.51105,-1.31931 0.73239,-1.98389zM181.58722,178.9338c-1.4768,1.75767 -3.33714,4.04072 -4.31754,6.11432c-1.09678,2.31975 -1.24112,5.18118 -2.30515,7.60335c-0.49867,1.13518 -1.87654,3.32673 -0.14594,4.33756c1.86605,1.08995 4.81212,0.84431 6.84807,0.84431c4.92479,0 10.77192,0.34591 15.53521,-0.86918c2.80263,-1.08741 4.44373,-4.24873 3.17154,-7.30201c-0.80871,-1.9409 -4.11119,-3.49267 -5.36018,-5.14467c-1.81115,-2.39553 -1.72283,-3.13772 -2.43859,-5.91115l-0.35943,-1.78271c0,0 -0.10126,-0.50628 0.01834,-1.10471c-2.2571,-0.24353 -4.46578,-0.69769 -6.76197,-0.55608c-1.32948,0.082 -2.62393,0.29018 -3.90971,0.52602c1.44874,1.53686 0.02534,3.24494 0.02534,3.24494zM148.42536,180.60634c-1.4712,5.70058 -6.08211,11.07713 -6.26667,17.19398c-0.07511,2.4894 4.17182,2.23397 5.53586,2.05175c3.82165,-0.51054 7.61081,-1.77629 11.48345,-2.0139c2.67482,-0.16412 3.84077,0.61669 5.43519,-1.5974c3.37138,-5.63938 -2.94673,-11.9988 -4.37187,-17.63443l-0.00529,-0.16125c-1.97737,0.13417 -3.95802,0.14782 -5.94293,0.371c-1.94867,0.24363 -3.88232,0.54871 -5.81253,0.86147c0.04649,0.52202 -0.0552,0.92878 -0.0552,0.92878zM140.09203,186.06033c0.13012,0.53439 0.24218,1.07785 0.3349,1.62717c1.04512,-2.37445 2.13246,-4.7118 2.85362,-7.18778c-0.76659,0.11228 -1.53428,0.21816 -2.30379,0.31431c-0.60685,0.07583 -1.21613,0.15159 -1.82695,0.22898c0.20889,1.68882 0.52662,3.36719 0.94223,5.01732zM116.83334,188.33334c0,2.66264 0.06946,5.33837 0,8c-0.03829,1.46713 -0.58158,2.07811 0.73421,3.05248c1.64141,1.2155 4.42946,0.67162 6.25447,0.78568c1.9012,0.11882 2.99809,0.57862 4.87253,0.34723c6.74311,-0.83241 8.01492,-7.5588 6.54677,-13.24572c-0.4526,-1.82254 -0.80381,-3.67374 -1.04344,-5.53639c-5.32079,0.85412 -10.58387,2.17332 -15.22488,5.0616c-0.75981,0.47286 -1.46555,0.98468 -2.13985,1.5219c0.0002,0.00868 0.0002,0.01322 0.0002,0.01322zM300.5,195c0,2.5 -2.5,2.5 -2.5,2.5l0.31813,-0.20213c-4.45319,1.90851 -8.82443,3.63082 -11.98026,7.52941c-0.89932,1.11098 -0.55339,2.9358 -0.91299,4.11431c-0.54237,1.77749 -1.0866,3.5974 -2.0592,5.18096c-0.25343,0.41263 -3.76135,3.18696 -4.3465,3.72352c-4.18623,3.83862 -8.16741,5.91431 -13.86383,6.64911c-6.75432,0.01156 -14.42844,0.16635 -21.0417,-1.39043c-2.88109,-0.67821 -5.50372,-2.34252 -8.36172,-3.00662c-2.77557,-0.64494 -5.77143,-0.72099 -8.57042,-1.31231c-7.99142,-1.68828 -15.21668,-4.29836 -23.51484,-4.28581c-1.78708,0 -3.58798,-0.24081 -5.3612,-0.01873c-2.7036,0.33861 -5.29073,1.65254 -8,2c-2.75393,0.35318 -5.1867,0.44418 -7.92698,1.24858c-2.85047,0.83675 -5.40811,2.35905 -8.40635,2.75142c-3.8926,0.5094 -7.90338,0.11781 -11.81678,0.34723c-5.58243,0.32727 -11.02387,0.67629 -16.64402,0.66667c-8.02721,-1.00262 -17.34325,-2.94691 -24.62571,-6.59062c-3.19588,-1.59903 -6.05415,-4.15224 -8.97817,-6.1844c-1.6189,-1.12511 -3.53577,-3.80435 -5.54911,-4.30391c-1.51811,-0.37668 -3.12753,0.08375 -4.69167,0.08375c0,0 -1.59234,0 -2.23538,-1.27083c-0.2939,-0.17821 -0.58178,-0.44799 -0.84474,-0.84242c-1.38675,-2.08013 0.69338,-3.46688 0.69338,-3.46688l1.40196,-0.8844c3.69116,-1.42991 5.20413,-4.5604 6.68693,-8.02027c0,0 0.54403,-1.26939 1.76686,-1.51687c2.3604,-2.07915 4.46725,-4.28197 7.22468,-5.96322c10.84271,-6.61096 25.04188,-7.14673 37.34657,-8.68454c2.84695,-0.31291 5.72731,-0.17378 8.54996,-0.65009c0.96211,-0.16235 5.31978,-1.25484 6.13701,-1.35222c2.6019,-0.31005 5.36973,-0.00418 7.96733,-0.32953c2.95132,-0.36965 5.8154,-1.17807 8.83387,-1.34824c2.94475,-0.16601 5.69391,0.49515 8.60984,0.66667c6.23638,0.36685 12.61302,-0.00383 18.86174,-0.00383c13.81844,0.02365 28.32438,-0.18914 41.71182,3.77014c3.00665,0.88921 5.63771,2.42577 8.40257,3.8253c2.29875,1.16359 4.82663,1.59612 7.20375,2.60669l2.13324,1.06179c0,0 0.23888,0.11944 0.52144,0.35832c0.91699,0.03164 1.62765,0.62386 1.62765,0.62386c1.36558,1.13804 2.56134,2.49938 4.05397,3.46479c4.10893,2.6576 9.63204,3.53378 14.28524,4.69708l2.08055,0.28382c0,0 1.23758,0.1768 1.83741,1.1555l1.4757,-0.18062c0,0 2.5,0 2.5,2.5z" fill="#000000"/><path d="M79.5,199.66667c0,-1.51122 0.91352,-2.10892 1.63613,-2.34533c0.1482,-1.35359 1.54574,-1.95253 1.54574,-1.95253c1.73929,-0.73942 3.54495,-1.33578 5.37846,-1.79416c1.32421,-0.33105 2.94455,-0.17576 3.94239,-1.10712c1.71762,-1.60319 2.07061,-4.70688 3.89619,-6.56862c7.03486,-7.17419 16.27555,-12.58665 25.97539,-15.02306c3.73717,-0.46714 6.5886,-2.01199 10.13851,-2.95549c0.79702,-0.21183 4.55459,-0.5286 5.52815,-0.71118c2.6964,-0.50568 5.30276,-1.49437 8,-2c6.52931,-1.22401 13.07086,-0.29386 19.63704,-0.70434c4.55188,-0.28456 8.89962,-1.00483 13.48868,-1.00483c2.69384,0 5.46795,-0.16954 8.15535,0.00483c2.67002,0.17325 5.185,1.30045 7.84465,1.32851c2.64016,0.02785 4.80422,-1.46895 7.51132,-1.66183c10.5176,-0.74939 22.15829,-1.31071 32.64402,0c8.34147,-0.01604 16.956,1.47612 25.0857,3.39538c4.22134,0.99657 7.92813,1.55852 11.88824,3.53605c6.31632,3.15413 10.41148,9.26221 16.80227,11.91045c2.60112,0.97921 5.44264,1.3177 8.00053,2.33355c1.5724,0.62446 2.92753,1.74927 4.53269,2.2839c4.78247,1.59288 10.51422,1.93043 15.51197,2.55515l2.63376,0.32922c1.25027,0.13791 2.22282,1.19779 2.22282,2.48481c0,0.77872 -0.35603,1.47428 -0.9142,1.93277l-1.98534,1.65445l-0.0186,-0.02231c-0.03812,0.04261 -0.0767,0.08485 -0.11574,0.12672c-3.79232,4.06713 -10.62275,5.42431 -14.78994,9.16321c-1.69226,1.51834 -2.46384,4.31064 -3.4383,6.25955c-1.57249,3.14498 -3.06707,7.10491 -5.32193,9.8249c-3.37932,4.07643 -8.40798,8.0624 -12.49006,11.44753c-0.31987,0.18419 -4.87754,2.821 -5.16048,2.93292c-2.73109,1.08033 -5.64293,0.93932 -8.47304,1.47108c-2.79845,0.5258 -5.5329,1.48297 -8.33333,2c-12.08945,2.23204 -26.85014,0.78665 -38.29338,-3.43416c-3.26835,-1.09115 -6.20216,-1.45685 -8.86639,-3.85764c-1.29312,-1.16526 -1.66942,-3.13539 -2.96323,-4.29988c-0.45121,-0.40611 -1.22056,-0.29406 -1.74729,-0.57108c-0.17419,0.87527 -0.58867,1.69895 -0.89876,2.53959c-1.2797,3.4692 -3.19799,5.95951 -6.89944,7.20405c-2.22767,0.74901 -3.75456,0.32047 -5.96856,0.45679c-3.56893,0.21975 -7.09696,1.11028 -10.66666,1.33334c-2.76958,0.17306 -5.42323,0.00919 -8.19559,0.32093c-5.231,0.6449 -10.54802,0.35035 -15.80441,0.67907c-2.72565,0.17046 -6.09101,0.93411 -8.79702,0.25441c-0.86882,-0.21823 -1.47024,-1.09347 -2.33334,-1.33333c-2.12101,-0.58946 -5.7022,-0.65919 -7.96445,-0.93118c-2.74233,-0.3297 -5.41649,0.15509 -8.18626,-0.36091c-3.06868,-0.57169 -5.9356,-1.81772 -8.90658,-2.72386c-1.05895,-0.32298 -2.24848,-0.32459 -3.19944,-0.89147c-2.36814,-1.41166 -3.06169,-3.18766 -4.33947,-5.39444c-1.53446,-3.91057 -5.8809,-4.44633 -9.18801,-6.72756c-3.8779,-2.67497 -8.31274,-5.26439 -11.6752,-8.61906c-3.80055,-3.79174 -5.41624,-10.41285 -11.56557,-10.26777h-2c0,0 -2.5,0 -2.5,-2.5zM90.06824,198.47928c0.90269,0.49922 1.78051,1.17592 2.69953,2.08629c1.35322,1.3405 2.20459,3.10699 3.28572,4.67521c2.00629,2.91019 4.60413,5.00556 7.42316,7.07526c2.17082,1.5938 4.41516,3.10087 6.61591,4.63048c4.27799,2.97338 8.48086,3.47822 10.81199,8.60577c3.80855,6.79294 13.9063,5.84495 20.70157,6.62932c2.36598,0.2731 6.44546,0.48791 8.70221,1.06883c0.86753,0.22332 1.47223,1.08644 2.33334,1.33333c2.01721,0.57836 5.16887,-0.28519 7.20298,-0.41225c5.16032,-0.32233 10.39813,-0.00316 15.52892,-0.65426c2.86328,-0.31471 5.61584,-0.16724 8.47108,-0.34574c3.56894,-0.22311 7.09698,-1.10711 10.66667,-1.33334c0.91418,-0.05793 3.64596,0.13571 4.6981,-0.20988c3.86617,-1.26989 3.10573,-4.27507 4.81421,-7.25167c0.86356,-1.50455 1.47558,-3.63887 3.13116,-4.15699c1.36856,-0.4283 2.53505,1.3419 3.81819,1.98215c0.88698,0.44258 1.95967,0.59655 2.69096,1.26574c1.30799,1.1969 1.74664,3.15064 3.03677,4.36678c1.86062,1.75391 4.78574,2.02752 7.13361,2.80903c10.47456,4.00494 24.61353,5.34976 35.70662,3.23251c2.7976,-0.53395 5.53353,-1.47603 8.33333,-2c4.61636,-0.86393 7.56154,-1.25264 11.69982,-3.596c3.75889,-3.15226 8.37088,-6.81203 11.50994,-10.55246c4.02322,-4.79397 4.54212,-12.21376 9.23978,-16.58222c1.42373,-1.32396 3.30683,-2.05068 4.88975,-3.1795c2.25751,-1.60988 4.63657,-2.8436 6.99299,-4.26134c-4.27838,-0.48431 -8.76209,-1.03126 -12.67135,-2.33515c-1.6947,-0.56525 -3.14394,-1.71428 -4.80063,-2.38277c-2.52849,-1.02026 -5.41002,-1.36534 -7.99946,-2.33311c-6.61167,-2.90141 -10.72489,-8.84853 -17.19774,-12.08956c-3.60275,-1.80394 -6.92056,-2.22573 -10.77843,-3.13062c-7.88924,-1.85047 -16.16068,-3.25744 -24.24763,-3.27129c-10.37055,-1.29632 -21.61439,-0.54065 -32.02265,0c-2.85814,0.14846 -4.86168,1.65106 -7.82201,1.6715c-2.81172,0.01942 -5.36909,-1.17192 -8.15534,-1.33817c-2.58881,-0.15446 -5.2508,0.00483 -7.84466,0.00483c-4.48658,0 -8.72396,0.71686 -13.17799,0.99517c-6.34986,0.39678 -12.72308,-0.55375 -19.02963,0.62899c-2.6964,0.50568 -5.30276,1.49437 -8,2c-1.69581,0.3179 -3.4719,0.17582 -5.13852,0.62215c-3.6383,0.97436 -6.68305,2.56388 -10.52815,3.04452c-8.86402,2.20249 -16.82604,7.28489 -23.35794,13.64361c-1.99678,1.94384 -2.01426,4.88725 -4.10382,6.76471c-1.33508,1.19956 -3.268,1.79808 -5.26238,2.28012z" fill="#000000"/><path d="M151.5,130.5c0,2.5 -2.5,2.5 -2.5,2.5h-0.5c-1.23264,-0.09251 -2.34535,0.79085 -3.47958,1.28226c-1.85332,0.80296 -6.04773,1.78624 -8.04765,2.17263c-2.73247,0.52792 -5.54263,-0.19239 -8.21911,-0.46706c-3.29336,-0.33798 -6.99067,0.68406 -10.22643,-0.03294c-3.36846,-0.74641 -4.99824,-3.14938 -7.81347,-4.81116c0,0 -2.14373,-1.28624 -0.85749,-3.42997c1.28624,-2.14373 3.42997,-0.85749 3.42997,-0.85749c1.82317,1.10837 4.05189,3.843 6.18653,4.18884c3.1406,0.50882 6.59188,-0.34355 9.77357,-0.03294c2.13283,0.20821 4.59638,0.98963 6.78089,0.53294c4.37697,-0.91503 8.12689,-3.37568 12.47277,-3.54511h0.5c0,0 2.5,0 2.5,2.5z" fill="#000000"/><path d="M233,135c0,-2.5 2.5,-2.5 2.5,-2.5l0.73325,0.01091c0.87724,0.08257 1.75448,0.16514 2.63172,0.24771c3.02175,0.4646 8.85282,0.66316 11.40279,2.97362c0.61473,0.55699 0.23556,1.76819 0.83097,2.34578c0.38612,0.37456 1.09166,-0.10451 1.61363,0.02563c3.16595,0.78935 6.21229,2.076 9.53398,2.40852c3.94387,0.39481 10.06779,0.38762 13.73323,-1.29443c2.66205,-1.2216 4.4772,-2.54662 7.53013,-3.16918c0,0 2.45145,-0.49029 2.94174,1.96116c0.49029,2.45145 -1.96116,2.94174 -1.96116,2.94174c-2.87108,0.56076 -3.91906,1.72364 -6.46987,2.83082c-4.59463,1.99429 -11.35166,2.19665 -16.26677,1.70557c-3.57983,-0.35767 -7.09679,-1.46139 -10.46602,-2.59148c-1.11362,-0.37352 -2.46763,-0.24255 -3.38637,-0.97437c-0.75618,-0.60233 -0.53706,-1.92263 -1.16903,-2.65422c-0.8279,-0.95841 -8.40135,-1.5347 -8.48092,-1.54695c-0.82818,-0.07724 -1.65638,-0.15448 -2.48456,-0.23172l-0.26675,0.01091c0,0 -2.5,0 -2.5,-2.5z" fill="#000000"/><path d="M307.72481,172.82059c0.20198,0.11334 4.39049,3.25763 4.54295,3.41164c0.47384,0.47867 0.52901,1.35316 1.1151,1.68506c2.2296,1.2626 3.3261,0.16077 5.58991,0.62782c3.75108,0.77388 7.1284,3.07883 10.02723,5.45489c0.9352,0.76655 2.21428,1.29112 2.73607,2.38197c1.23654,2.58508 -0.35307,6.92993 -0.90427,9.51952c-1.6839,2.8065 -1.29933,4.71983 -2.54954,7.61893c-1.56583,3.631 -4.02606,6.90058 -4.82738,10.95235c-0.5793,2.92914 -0.7215,5.45853 -2.27548,8.25205c-1.41123,2.53691 -3.43869,4.09144 -5.41165,6.04295c-3.29206,3.25627 -5.76394,7.4512 -10.24734,9.5145c-1.42194,0.65439 -3.06023,0.9359 -4.29561,1.89714c-3.70981,1.49866 -6.97573,1.54665 -10.75204,2.27548c-1.67397,0.32308 -3.0961,1.46393 -4.73496,1.93375c-4.15233,1.19038 -8.2557,1.7051 -12.49147,2.09919c-2.93259,0.27284 -4.42712,2.05559 -6.95578,2.88388c-0.96503,0.3161 -2.03476,0.00571 -3.04422,0.11612c-1.68959,0.18481 -3.30874,0.83103 -5,1c-4.15501,0.41513 -8.56838,0.01217 -12.74635,0.01217c-5.15936,0 -11.22224,0.85455 -16.21237,-0.60364c-2.72108,-0.79514 -5.85912,-1.88962 -8.39854,-3.15675c-0.80192,-0.40015 -1.53417,-0.92716 -2.29058,-1.40781c-0.24287,-0.15433 -0.47088,-0.662 -0.70625,-0.49645c-0.42605,0.29966 -0.2663,1.05425 -0.62449,1.43241c-1.39782,1.47575 -3.83511,2.77134 -5.79499,3.18713c-2.37221,0.50326 -5.53545,0.04511 -7.97277,0.04511c-3.44894,0 -6.36565,0.32555 -9.75366,0.98783c-8.54085,0 -17.3954,1.35897 -25.99269,0.5c-4.35778,-0.43539 -8.64381,-1.56392 -13,-2c-4.94906,-0.49543 -10.00682,-0.47788 -15,-0.5c-6.79106,-1.35821 -14.11129,-0.81173 -21,-1.5c-5.57824,-0.55733 -10.63313,-2.64439 -15.92729,-4.0803c-1.74478,-0.47323 -4.17079,-0.40565 -5.84678,-1.12527c-0.76574,-0.32878 -1.23849,-1.16155 -2,-1.5c-0.77659,-0.34515 -1.72415,-0.1532 -2.5,-0.5c-2.2818,-1.01996 -4.90881,-2.73364 -7.09048,-4.04265c-4.72876,-1.91799 -10.46262,-5.90003 -12.67136,-10.71919c-0.35408,-0.77256 -0.21909,-1.69793 -0.5,-2.5c-0.45726,-1.30561 -2.56882,-1.21662 -3.4855,-2.25266c-0.91736,-1.0368 -1.34386,-2.45386 -1.68713,-3.79499c-0.5772,-2.2551 -0.04511,-5.626 -0.04511,-7.97277c0,-7.32638 -0.03411,-14.65383 3.76038,-21.11091c1.51077,-3.72477 3.91971,-7.02965 7.5148,-9.0685c2.95256,-1.67446 7.03277,-2.78477 9.7041,-4.80489c1.72361,-1.30343 3.20041,-3.73092 4.75296,-5.28347c1.66841,-1.66841 3.37106,-2.80886 4.58835,-4.95705c1.08191,-1.90928 1.48684,-4.40903 1.80516,-6.77446c-6.42877,0.00646 -12.65582,0.05193 -19.09852,-0.04583c-4.09905,-1.69903 -8.38891,-4.99422 -8.52723,-9.95489c-0.05621,-2.01587 0.95306,-4.12389 1.67881,-5.92847c0.8312,-2.06679 1.46814,-4.32988 3.48826,-5.68654c0.89019,-0.59783 2.09838,-0.45738 3.12056,-0.78134c1.80899,-0.57333 3.57764,-1.40403 5.46602,-1.59148c2.05548,-0.20403 4.11746,-0.02566 6.06133,0.49382c-2.6752,-6.95059 -4.29783,-15.10916 -4.31498,-22.50599c-0.00639,-2.75723 -0.40028,-5.90346 0.71774,-8.52043c0.76417,-1.78869 2.20691,-3.20665 3.20764,-4.87454c1.24189,-1.56564 2.8839,-2.83884 4.73094,-3.85568c-1.23954,-0.70032 -2.57491,-1.33799 -3.88114,-2.06994c-0.59179,-0.33161 -3.46665,-2.63653 -4.17015,-3.10479c-2.56894,-1.70994 -5.61694,-2.99186 -6.90345,-6.09112c-0.8476,-2.04192 -0.69485,-4.34531 -0.70158,-6.4835v-1.5c0,0 0,-2.5 2.5,-2.5c2.5,0 2.5,2.5 2.5,2.5v1.5c-0.00426,1.14754 -0.12,3.38926 0.29842,4.5165c0.68148,1.83596 3.70205,2.97782 5.09655,3.90888c2.97815,1.98841 6.04489,3.51047 9,5.5c0.72303,0.48677 1.38904,1.00861 1.99864,1.56603c1.81807,-0.49059 3.64938,-0.80876 5.36005,-0.97925c0.52237,-0.05206 1.04345,-0.12124 1.56354,-0.20345c-0.17586,-1.88559 -0.15619,-3.80225 -0.71355,-5.59635c-0.56298,-1.81223 -1.40403,-3.57764 -1.59148,-5.46602c-0.27275,-2.74779 1.86083,-6.38908 -0.01216,-8.24635l-0.11804,0.23607c0,0 -2.23607,-1.11804 -1.11803,-3.35411c1.11804,-2.23607 3.35411,-1.11803 3.35411,-1.11803l1.88196,1.23607c0.64602,0.98233 1.68147,1.7996 1.93806,2.94698c0.53422,2.38882 -1.20557,5.28069 -0.95023,7.80667c0.15917,1.57455 0.96612,3.0145 1.40852,4.53398c0.5848,2.00853 0.57394,3.98435 0.79209,5.99037c2.18033,-0.5212 4.36083,-1.04559 6.5652,-1.26584c0.68292,-0.06823 1.36806,-0.12538 2.05495,-0.17211c0.22394,-0.99368 0.56994,-1.90832 1.07639,-2.67299c2.86165,-4.3207 9.68676,-3.61131 13.8902,-5.84648c3.76504,-2.00205 5.52225,-7.46518 6.27337,-11.31088l0.5,-2.5c0,0 0.49029,-2.45145 2.94174,-1.96116c2.45145,0.49029 1.96116,2.94174 1.96116,2.94174l-0.5,2.5c-1.11384,5.46206 -3.6095,11.76274 -8.72663,14.68912c-2.70665,1.54787 -5.66648,2.04623 -8.62219,2.74687c-1.15917,0.27478 -2.7339,0.29787 -3.39213,1.24967c6.41376,0.03074 12.87115,0.81181 18.9957,1.83257c3.27828,0 5.70184,0.98094 8.76657,1.53659c2.70109,0.48972 5.41818,0.2914 8.1689,1.03864c2.09151,0.56816 3.04546,1.23683 5.10467,1.42842c3.66619,0.3411 7.33632,0.65981 11,1c0.98726,0.09167 4.81303,-0.14293 5.72643,0.03294c2.60405,0.50141 5.04608,1.69184 7.77357,1.96706c3.7813,0.38155 6.80158,-0.3244 10.46602,1.09148c2.69296,0.53859 4.91443,1.66608 7.5,2.5c1.05911,0.34159 2.34829,0.17095 3.22776,0.85282c0.63825,0.49485 1.20348,1.16155 1.70442,1.93704c0.48764,-0.28336 0.94446,-0.35949 0.94446,-0.35949c5.24262,-0.85964 10.60374,-0.53401 15.911,-0.53401c3.35595,0 6.90894,-0.32129 10.24634,0.01216c2.52626,0.2524 4.97733,1.24747 7.5,1.5c4.37779,0.43824 8.59669,-0.27984 12.96602,0.59148c2.74197,1.09679 5.63058,1.41363 8.33228,2.62508c4.0093,1.79779 7.89887,4.09315 12.16772,5.37492c1.41109,0.42369 4.92017,0.6546 5.88638,1.47437c1.29575,1.09937 1.722,4.16654 2.58067,5.69717c1.74795,3.11584 4.14378,6.03048 5.21695,9.51245c1.29793,4.2112 1.58425,9.33694 1.60364,13.71237c0,0.43111 0,0.86223 0,1.29334c1.86743,-0.61603 3.78562,-1.08454 5.75365,-1.28117c0.89265,-0.08918 5.87906,0.01589 6.36438,0.25176c1.03445,0.50276 1.4889,1.75439 2.2706,2.59807c3.31437,3.57713 5.49391,7.00295 3.44317,12.03949c-1.28854,3.1646 -2.2314,3.54623 -4.80075,5.57484c-3.61293,2.85254 -7.18204,4.40285 -10.90202,3.87314c0.91066,3.5212 3.48298,4.72449 6.59578,6.47113zM104.46599,154.411c-0.61855,3.70888 -0.95015,7.96121 -2.78657,11.31382c-1.39377,2.54449 -3.45495,4.08625 -5.41165,6.04295c-1.69764,1.69764 -3.33263,4.28927 -5.24704,5.71653c-0.84689,0.63138 -1.96804,0.77684 -2.90981,1.25532c-5.30917,2.69739 -10.58657,5.07049 -12.87129,10.87129c-3.89315,6.33435 -3.23962,14.1529 -3.23962,21.38909c0,0.80059 -0.60922,5.05259 0.26776,5.73224c0.62846,0.48705 1.64117,0.27564 2.25296,0.78347c0.95622,0.79372 1.70098,1.85477 2.26154,2.96387c0.38335,0.75847 0.16611,1.7185 0.5,2.5c1.59179,3.72565 6.78356,6.88454 10.32864,8.28081c2.13902,1.28341 4.68131,2.97327 6.90952,3.95735c0.77739,0.34333 1.72341,0.15485 2.5,0.5c0.76151,0.33845 1.24404,1.14932 2,1.5c1.58052,0.73319 3.47284,0.41433 5.15322,0.87473c5.02426,1.3766 9.77194,3.38906 15.07271,3.9197c6.87202,0.68794 14.22213,0.14443 21,1.5c9.55308,-0.05158 18.57579,1.55658 28,2.5c8.26441,0.82732 16.7967,-0.5 25.00731,-0.5c5.77222,-1.18619 11.62179,0.05008 17.27357,-0.96706c2.78021,-0.50035 3.31392,-3.67898 5.58051,-4.38046c3.10653,-0.96142 4.67064,0.92706 7.00316,2.09574c2.32326,1.16404 5.12384,2.07529 7.60146,2.84325c4.39514,1.36232 10.22417,0.39636 14.78763,0.39636c4.01089,0 8.26641,0.41132 12.25365,0.01217c1.69122,-0.1693 3.30708,-0.84861 5,-1c0.65048,-0.05817 1.33785,0.32748 1.95578,0.11612c0.66613,-0.22785 0.99915,-1.03083 1.63031,-1.34274c1.47988,-0.73135 4.65975,-1.58754 6.41392,-1.77338c3.90846,-0.41406 7.65514,-0.80402 11.50853,-1.90081c1.63214,-0.46455 3.63872,-1.73233 5.26504,-2.06625c3.19145,-0.65526 6.09979,-0.48421 9.24796,-1.72452c1.38923,-1.01014 3.12337,-1.43149 4.70439,-2.10286c3.87319,-1.64472 5.98673,-5.69324 8.75266,-8.4855c1.65253,-1.66826 3.39315,-2.80205 4.58835,-4.95705c1.32783,-2.39414 1.21997,-4.25049 1.72452,-6.74795c0.90091,-4.45939 3.3567,-8.11007 5.17262,-12.04765c1.14612,-2.48519 0.93081,-4.84831 2.45046,-7.38107c0.1648,-0.90501 1.52249,-4.7411 1.09573,-5.48048c-0.64834,-1.1233 -2.22996,-1.33506 -3.26393,-2.11803c-1.6671,-1.26241 -3.86595,-2.64082 -5.97277,-3.04511c-2.46702,-0.47341 -5.19364,-0.18999 -7.41009,-1.37218c-1.49737,-0.79865 -2.25867,-2.5656 -3.61714,-3.58271c-1.28618,-0.96298 -2.83336,-1.51721 -4.22481,-2.32059c-3.63284,-2.09749 -5.85581,-5.74595 -6.72664,-9.68912l-0.04855,-1.99029c0,0 0,-0.07163 0.01213,-0.19063c-0.25889,-0.16972 -0.51884,-0.35018 -0.77989,-0.5416c-1.23197,-1.63882 -2.2784,-3.44118 -3.05343,-5.33929l-0.17881,-2.42847c0,0 0,-2.5 2.5,-2.5c2.5,0 2.5,2.5 2.5,2.5l-0.17881,0.57153c0.50154,1.28781 1.11951,2.55347 1.94657,3.66071c3.69603,2.90777 7.04967,0.69867 10.20118,-1.70856c1.96261,-1.4991 4.5151,-3.93353 3.62177,-6.85634c-0.43746,-1.43127 -2.14979,-2.49456 -2.97935,-3.52933c-1.38819,-1.73159 -1.71847,-1.41511 -4.36502,-1.15017c-2.35395,0.23565 -4.64564,0.95374 -6.81787,1.83336c0,0 -1.86926,0.74771 -2.92386,-0.7763c-0.63003,-0.51547 -0.87632,-1.25432 -0.87632,-1.25432l-0.62829,-2.29057c0,-0.83334 0,-1.66666 0,-2.5c0.02278,-4.22033 -0.01619,-10.49693 -2.17941,-14.27518c-1.26281,-2.2056 -2.77491,-4.27577 -4,-6.5c-0.72864,-1.3229 -0.2883,-3.30196 -1.41933,-4.30283c-0.34744,-0.30746 -0.93134,0.08827 -1.39155,0.02946c-2.61458,-0.33409 -2.97731,-0.65123 -5.43818,-1.63026c-3.48036,-1.38462 -6.74831,-2.99452 -10.11617,-4.54991c-2.43845,-1.12615 -5.16279,-1.37295 -7.66772,-2.37492c-3.99077,-0.80155 -8.01033,-0.00651 -12.03398,-0.40852c-2.52626,-0.2524 -4.97733,-1.24747 -7.5,-1.5c-3.17109,-0.31745 -6.56397,0.01216 -9.75366,0.01216c-4.92797,0 -9.96576,-0.3611 -14.83399,0.42379c0.58771,1.82885 0.99631,3.66808 1.28544,5.08592l0.04855,1.99029c0,0 0,2.5 -2.5,2.5c-2.5,0 -2.5,-2.5 -2.5,-2.5l0.04855,-1.00971c-0.47802,-2.44746 -1.32888,-4.57739 -2.28816,-6.87938c-0.22012,-0.52823 -0.23023,-1.24129 -0.70051,-1.56737c-0.48713,-0.33777 -1.2003,0.00859 -1.77224,-0.14718c-2.62738,-0.71554 -4.79644,-1.95928 -7.5,-2.5c-3.26402,-1.35948 -6.07548,-0.56528 -9.53398,-0.90852c-2.87867,-0.2857 -5.49184,-1.45932 -8.22643,-2.03294c-1.72045,-0.36089 -3.52263,0.189 -5.27357,0.03294c-3.65302,-0.32559 -7.351,-0.61342 -11,-1c-2.02242,-0.21425 -3.93382,-1.0344 -5.89533,-1.57158c-2.6581,-0.72796 -5.1994,-0.48171 -7.8311,-0.96136c-3.07885,-0.56114 -4.95408,-1.46341 -8.23343,-1.46341c-6.24238,-1.0404 -12.81099,-1.85595 -19.3255,-1.81999c0.09003,1.22073 0.29125,2.40442 0.48315,3.33822c0,0 0.49029,2.45145 -1.96116,2.94174c-2.45145,0.49029 -2.94174,-1.96116 -2.94174,-1.96116c-0.22929,-1.17293 -0.44464,-2.61113 -0.53817,-4.11549c-0.42203,0.03331 -0.8434,0.07093 -1.26404,0.11304c-4.36258,0.43672 -8.6344,2.06197 -13,2.5c-0.75703,0.07596 -1.63259,0.19377 -2.56397,0.36163c0.55718,1.1294 0.97946,2.34881 1.26908,3.66024c0,0 0.49029,2.45145 -1.96116,2.94174c-2.45145,0.49029 -2.94174,-1.96116 -2.94174,-1.96116c-0.22301,-1.32792 -0.67524,-2.4048 -1.29305,-3.31054c-1.98144,0.76223 -3.73741,1.80846 -4.68088,3.21522c-0.85434,1.42391 -2.08176,2.62464 -2.79236,4.12546c-0.81603,1.72351 -0.27762,4.66495 -0.28226,6.47957c-0.01823,7.12057 1.72697,15.00043 4.33181,21.59851c1.34114,3.39712 4.09351,6.05437 5.48938,9.47302c0,0 0.34611,0.86527 0.08741,1.75055c0.01471,0.06232 0.02899,0.12487 0.04285,0.18764c0,0 0.49029,2.45145 -1.96116,2.94174c-2.45145,0.49029 -2.94174,-1.96116 -2.94174,-1.96116c-0.82415,-4.90745 -6.57111,-7.48071 -11.3022,-7.00245c-1.57455,0.15917 -3.00933,0.98426 -4.53398,1.40852c-0.60762,0.16908 -1.32089,-0.07428 -1.87944,0.21866c-1.07511,0.56386 -1.06347,2.18524 -1.51174,3.31346c-0.47048,1.1841 -2.05603,3.96891 -1.11701,5.39188c0.41922,0.63529 1.18116,0.97065 1.68445,1.54164c0.74563,0.84591 1.52473,1.79687 2.58414,2.18311c2.54107,-0.05654 4.77409,0.18979 7.27358,0.46706c1.50244,0.16666 3.00281,-0.35313 4.50731,-0.5c2.51709,-0.24572 5.21537,-0.01217 7.74635,-0.01217l-0.11804,-0.23607c0,0 1.89265,-0.94632 3.06606,0.64354c1.29927,0.81565 1.01796,2.50353 1.01796,2.50353z" fill="#000000"/><path d="M231.5,111c0,-1.38071 1.11929,-2.5 2.5,-2.5c1.38071,0 2.5,1.11929 2.5,2.5c0,1.38071 -1.11929,2.5 -2.5,2.5c-1.38071,0 -2.5,-1.11929 -2.5,-2.5z" fill="#000000"/><path d="M252,112c0,-1.38071 1.11929,-2.5 2.5,-2.5c1.38071,0 2.5,1.11929 2.5,2.5c0,1.38071 -1.11929,2.5 -2.5,2.5c-1.38071,0 -2.5,-1.11929 -2.5,-2.5z" fill="#000000"/><path d="M243,117c0,-1.38071 1.11929,-2.5 2.5,-2.5c1.38071,0 2.5,1.11929 2.5,2.5c0,1.38071 -1.11929,2.5 -2.5,2.5c-1.38071,0 -2.5,-1.11929 -2.5,-2.5z" fill="#000000"/><path d="M302,158c0,-0.01224 0.00009,-0.02446 0.00027,-0.03665c-2.00027,-0.30872 -2.00027,-2.46335 -2.00027,-2.46335l0.17881,-1.42847c0.51781,-1.11309 0.68535,-2.47122 1.55343,-3.33929c0.86807,-0.86808 2.2262,-1.03562 3.33929,-1.55343c0,0 2.32119,-0.92847 3.24966,1.39272c0.92847,2.32119 -1.39272,3.24966 -1.39272,3.24966c-0.82881,0.22287 -1.6059,0.91754 -1.96834,1.72107c0.00687,0.00128 0.01374,0.00258 0.0206,0.00392l0.01927,-0.04618c0,0 0,0.01755 -0.00147,0.04971c1.14186,0.23107 2.00147,1.24029 2.00147,2.45029c0,1.38071 -1.11929,2.5 -2.5,2.5c-1.38071,0 -2.5,-1.11929 -2.5,-2.5z" fill="#000000"/><path d="M85.5,148.5c0,-1.22762 0.88485,-2.24858 2.05155,-2.45989c-0.34492,-1.03556 -0.66483,-1.30471 -2.55155,-1.04011c0,0 -2.5,0 -2.5,-2.5c0,-2.5 2.5,-2.5 2.5,-2.5c1.37268,0.08798 2.88302,-0.34165 4.11804,0.26393c2.08935,1.0245 2.9223,3.8952 3.70315,5.8076l0.41488,0.81044c0,0 1.11804,2.23607 -1.11803,3.35411c-0.99166,0.49583 -1.76344,0.33197 -2.31532,-0.00396c-0.45489,0.47332 -1.0944,0.76789 -1.80272,0.76789c-1.38071,0 -2.5,-1.11929 -2.5,-2.5z" fill="#000000"/><path d="M132,141.5c0,2.5 -2.5,2.5 -2.5,2.5h-2.5c-3.73995,-0.01657 -7.44818,-0.3439 -10.92848,-1.67881c0,0 -2.32119,-0.92847 -1.39271,-3.24966c0.92848,-2.32119 3.24967,-1.39272 3.24967,-1.39272c2.74796,1.16449 6.06689,1.33741 9.07152,1.32119h2.5c0,0 2.5,0 2.5,2.5z" fill="#000000"/><path d="M254.5,149c0.66873,0 1.15859,0.17888 1.51741,0.44095c3.68394,-0.30732 6.63156,-1.74651 10.27023,-2.83731c4.34321,-1.30201 8.74251,-1.10364 13.21236,-1.10364c0,0 2.5,0 2.5,2.5c0,2.5 -2.5,2.5 -2.5,2.5c-3.97118,0 -7.93038,-0.26183 -11.78764,0.89636c-4.59863,1.3808 -8.27651,3.08178 -13.21236,3.10364l-2.5,-3c0,0 0,-2.5 2.5,-2.5z" fill="#000000"/></g></g></svg>