<svg version="1.1" xmlns="http://www.w3.org/2000/svg" xmlns:xlink="http://www.w3.org/1999/xlink" width="149.61647" height="85.60944" viewBox="0,0,149.61647,85.60944"><g transform="translate(-54.82905,-239.9)"><g data-paper-data="{&quot;isPaintingLayer&quot;:true}" fill-rule="nonzero" stroke="none" stroke-linecap="butt" stroke-linejoin="miter" stroke-miterlimit="10" stroke-dasharray="" stroke-dashoffset="0" style="mix-blend-mode: normal"><path d="M131,309.5c-3.31699,0 -7.0321,0.38277 -10.30546,-0.01873c-1.36415,-0.16732 -2.64016,-0.80068 -4,-1c-5.94512,-0.87142 -12.66643,0.01873 -18.69454,0.01873c-2.70204,0 -7.46573,0.74599 -9.95671,-0.1903c-1.00256,-0.37683 -1.43683,-1.63601 -2.35762,-2.18307c-0.90622,-0.5384 -2.11859,-0.42188 -3,-1c-3.40977,-2.23648 -3.87312,-5.78328 -5.05738,-9.33606c-2.09047,-6.2714 -3.12829,-12.17997 -3.12829,-18.79057c0,-3.46892 -0.57009,-7.167 1.37337,-10.31433c1.21735,-1.97143 3.80881,-2.64845 5.8123,-3.8123c1.53601,-0.89228 2.46831,-2.55563 3.72936,-3.80673c1.28684,-0.81979 2.42163,-1.9518 3.86051,-2.45937c1.04516,-0.36868 2.23139,0.11074 3.324,-0.07499c1.03919,-0.17665 1.95936,-0.83216 3,-1c3.29385,-0.53124 7.05943,-0.03228 10.40046,-0.03228c5,0 10,0 15,0c2.97392,0 6.47128,-0.44014 9.40046,0.03228c3.03476,0.48945 5.96901,1.47618 9,2c5.09899,0.88121 9.93126,-0.68958 15,1c2.97306,0 6.09725,0.50213 9,1c2.07784,0.35638 3.9224,1.64217 6,2c1.16937,0.2014 2.46382,-0.30521 3.55625,0.15802c0.43833,0.18587 4.82195,4.4304 5.16992,4.99537c0.55279,0.89751 0.45767,2.09612 1,3c0.48507,0.80845 1.51493,1.19155 2,2c0.54233,0.90388 0.47052,2.08854 1,3c1.01138,1.74104 3.42931,2.49055 4.18307,4.35762c0.49431,1.22441 0.15419,2.63677 0.1903,3.95671c0.07954,2.90784 0.44279,6.54126 -0.03228,9.40046c-0.14318,0.86171 -2.32798,6.96913 -2.69995,7.36731c-0.78991,0.84556 -2.3483,0.49419 -3.25028,1.219c-0.93685,0.75283 -1.33333,2 -2,3c-1.06772,0.37995 -2.23031,0.55852 -3.20316,1.13986c-0.9194,0.5494 -1.36177,1.78885 -2.35762,2.18307c-1.10329,0.43675 -2.38775,-0.04837 -3.55625,0.15802c-4.18937,0.73996 -8.07444,1.99121 -12.40046,2.03228c-8,0 -18,0 -26,0z" fill="#360d13" stroke-width="0.5"/><text transform="translate(98,293.076) scale(0.82,0.82)" font-size="40" xml:space="preserve" fill="#ff3d5a" fill-rule="nonzero" stroke="none" stroke-width="1" stroke-linecap="butt" stroke-linejoin="miter" stroke-miterlimit="10" stroke-dasharray="" stroke-dashoffset="0" font-family="Pixel" font-weight="normal" text-anchor="start" style="mix-blend-mode: normal"><tspan x="0" dy="0">yes</tspan></text><path d="M81.299,309.6531l-1.16041,-1.65596c-2.86661,-5.25545 -5.44409,-10.71339 -7.54652,-16.32049c-0.72959,-1.94578 -1.60418,-3.3841 -1.93095,-5.5049c-0.14182,-0.92048 -0.20292,-1.83471 -0.19721,-2.74203c-1.72601,-4.55489 -1.5795,-10.02032 0.91845,-14.30381c1.5688,-2.69018 3.87511,-4.02968 6.18665,-5.87601c3.18856,-2.54685 5.71222,-4.91521 9.20993,-6.72164c0.3462,-0.5055 0.73766,-0.97346 1.11803,-1.37444c0.8815,-0.92928 2.48591,-0.6321 3.75021,-0.83739c2.55849,-0.41544 4.97816,-0.3573 7.524,-0.95241l1.28434,-0.50485c0,0 2.34082,-0.87781 3.21863,1.46302c0.05655,0.15079 0.09974,0.29551 0.13106,0.43433c1.62422,-0.4104 3.25923,-0.79472 4.93749,-1.04924c11.93799,-0.03114 23.42154,1.12848 35.2518,2.4064c7.31266,0.78992 14.33778,0.15291 21.6103,1.83118c3.817,0.58723 7.47393,1.44563 10.62627,3.85345c2.29915,1.75614 3.28387,4.24486 5.16508,6.33438c2.34051,2.59969 5.75376,5.26795 7.0772,8.58734c2.21356,5.55198 3.20032,13.82196 0.76577,19.64605c-1.11381,2.66453 -3.45029,4.7133 -5.44297,6.70121c-1.20434,1.50957 -2.0225,3.41679 -3.58617,4.55c-2.4582,1.7815 -5.67074,1.21952 -8.40086,1.98962c-3.50369,0.98831 -6.69309,2.45634 -10.3929,2.87702c-10.43396,1.18637 -20.6625,-0.05364 -31.06518,-0.46146c-3.81022,2.03006 -7.02404,0.72565 -11.08109,0.2636c-7.63759,-0.86982 -15.67635,0.41134 -23.33662,0.41391c-4.5285,0.00151 -8.0711,-0.06621 -11.69805,-2.14659c-1.74059,0.77364 -2.93628,-0.90032 -2.93628,-0.90032zM80.69765,267.15011c-1.85137,1.4833 -3.7272,2.39168 -5.01335,4.524c-0.22487,0.37282 -0.42077,0.7578 -0.5891,1.15226c0.41836,0.4156 0.69049,0.97822 0.73245,1.60388l0.19286,2.50708c0.05446,0.35434 0.10017,0.66149 0.14087,0.93628c0.08584,0.24867 0.12695,0.55593 0.13583,0.90429c0.13864,0.88623 0.27103,1.54136 0.65038,2.97301c0.26444,0.998 1.04395,1.95477 0.87039,2.97251c-0.02644,0.15508 -0.05865,0.30845 -0.09591,0.46034l0.1039,0.00799l-0.19831,2.57802c-0.03816,0.56902 -0.26671,1.08589 -0.62249,1.48745c0.10465,0.24802 0.19725,0.47372 0.26942,0.66615c1.90073,5.06808 4.20295,9.99989 6.76175,14.77045c0.72867,0.12997 1.25872,0.55402 1.25872,0.55402c3.35312,2.74381 6.46497,2.45072 10.63827,2.45217c6.99948,0.00243 13.98731,-0.41785 21,-0.4c4.2056,0.01071 8.40508,1.98987 12.18228,-0.12248c10.59664,-0.21837 21.08135,1.58928 31.73483,0.33854c3.44211,-0.40411 6.34127,-1.8141 9.60711,-2.72298c1.63646,-0.45542 5.38355,-0.07434 6.79914,-1.21037c1.23971,-0.99489 1.81942,-2.60991 2.81383,-3.85c1.51982,-1.52327 3.70433,-3.24153 4.55703,-5.29878c2.01316,-4.857 0.73977,-11.35613 -0.83423,-15.95395c-0.87327,-2.55092 -4.3687,-5.04122 -6.1228,-7.01265c-1.55086,-1.74301 -2.53019,-4.2756 -4.43492,-5.66562c-2.61972,-1.91179 -5.4496,-2.46591 -8.57372,-2.94655c-7.13014,-1.64542 -14.00868,-1.0052 -21.18971,-1.76882c-11.53554,-1.22667 -22.71407,-2.35845 -34.34819,-2.3936c-4.33844,0.67911 -8.51027,1.92016 -12.81262,2.57853c-0.73778,0.1129 -5.15783,1.30248 -5.57801,1.22875c-0.9901,-0.17374 -2.22639,-0.2877 -3.22579,-0.65692c-2.43578,1.50853 -4.37528,3.35643 -6.80989,5.30703z" fill="#4a0b15" stroke-width="0.5"/><path d="M61.9386,254.80287c1.19713,-2.19474 3.39187,-0.99761 3.39187,-0.99761l2.44747,1.35437c2.02061,1.80751 4.20057,3.19963 6.31714,4.8882c0,0 1.95217,1.56174 0.39043,3.51391c-1.56174,1.95217 -3.51391,0.39043 -3.51391,0.39043c-2.03305,-1.63146 -4.14713,-2.95832 -6.08286,-4.7118l-1.95252,-1.04563c0,0 -2.19474,-1.19713 -0.99761,-3.39187z" fill="#4a0b15" stroke-width="0.5"/><path d="M81.08612,242.34033c2.45968,-0.44721 2.90689,2.01246 2.90689,2.01246l-0.10751,1.08548c1.19674,1.52196 2.19607,3.21924 2.95552,5.0002c0,0 0.96153,2.30769 -1.34615,3.26923c-2.30769,0.96154 -3.26923,-1.34615 -3.26923,-1.34615c-0.55101,-1.36397 -1.31287,-2.66132 -2.24448,-3.7998l-0.9075,-3.31452c0,0 -0.44722,-2.45968 2.01246,-2.90689z" fill="#4a0b15" stroke-width="0.5"/><path d="M106.53334,239.9c2.5,0 2.5,2.5 2.5,2.5c0,1.73334 0,5.06666 0,6.8c0,0 0,2.5 -2.5,2.5c-2.5,0 -2.5,-2.5 -2.5,-2.5c0,-1.73334 0,-3.46666 0,-5.2v-1.6c0,0 0,-2.5 2.5,-2.5z" fill="#4a0b15" stroke-width="0.5"/><path d="M126.01114,242.45918c2.34083,0.87781 1.46301,3.21864 1.46301,3.21864l-0.46989,1.10234c-0.32516,1.98154 -0.95453,3.9331 -1.83487,5.73789c0,0 -1.11803,2.23607 -3.3541,1.11803c-2.23607,-1.11803 -1.11803,-3.3541 -1.11803,-3.3541c0.68462,-1.32542 1.15814,-2.78474 1.36514,-4.26211l0.7301,-2.09767c0,0 0.87781,-2.34083 3.21863,-1.46302z" fill="#4a0b15" stroke-width="0.5"/><path d="M140.53334,242.7c2.5,0 2.5,2.5 2.5,2.5l-0.02907,0.81986c0.25786,1.68368 0.58093,3.35855 0.96505,5.01799c0,0 0.56215,2.43598 -1.87383,2.99813c-2.43598,0.56215 -2.99813,-1.87383 -2.99813,-1.87383c-0.40968,-1.78034 -0.75602,-3.57655 -1.03495,-5.382l-0.02907,-1.58015c0,0 0,-2.5 2.5,-2.5z" fill="#4a0b15" stroke-width="0.5"/><path d="M162.45137,244.16393c2.23607,1.11803 1.11803,3.35411 1.11803,3.35411l-0.32692,0.62416c-1.4,2.2 -2.8,4.4 -4.2,6.6c0,0 -1.34219,2.10915 -3.45134,0.76696c-2.10915,-1.34219 -0.76696,-3.45135 -0.76696,-3.45135c1.4,-2.2 2.8,-4.4 4.2,-6.6l0.07308,-0.17584c0,0 1.11803,-2.23607 3.3541,-1.11804z" fill="#4a0b15" stroke-width="0.5"/><path d="M185.92807,252.80287c1.19713,2.19474 -0.9976,3.39187 -0.9976,3.39187l-1.89939,1.00695c-1.26251,1.26251 -2.74085,2.32414 -4.30061,3.19305c0,0 -2.19474,1.19713 -3.39187,-0.99761c-1.19713,-2.19474 0.99761,-3.39187 0.99761,-3.39187c1.36762,-0.72503 2.60484,-1.71241 3.69939,-2.80695l2.50061,-1.39305c0,0 2.19474,-1.19713 3.39186,0.99761z" fill="#4a0b15" stroke-width="0.5"/><path d="M198.43334,266c0,2.5 -2.5,2.5 -2.5,2.5h-1.6c-2.55492,-0.0177 -4.39163,0.46263 -6.80943,1.27171c0,0 -2.37171,0.79057 -3.16228,-1.58114c-0.79057,-2.37171 1.58114,-3.16228 1.58114,-3.16228c2.90916,-0.96629 5.31591,-1.51117 8.39057,-1.52829h1.6c0,0 2.5,0 2.5,2.5z" fill="#4a0b15" stroke-width="0.5"/><path d="M54.8436,277.62634c-0.22634,-2.48973 2.26339,-2.71608 2.26339,-2.71608l2.07279,-0.18514c1.86666,-0.26666 3.73334,-0.53334 5.6,-0.8c0,0 2.47487,-0.35355 2.82842,2.12132c0.35356,2.47487 -2.12132,2.82843 -2.12132,2.82843c-1.86666,0.26666 -3.73334,0.53334 -5.6,0.8l-2.32721,0.21486c0,0 -2.48973,0.22634 -2.71607,-2.26339z" fill="#4a0b15" stroke-width="0.5"/><path d="M60.09287,294.14233c-0.54232,-2.44047 1.89814,-2.9828 1.89814,-2.9828l1.96218,-0.43046c1.51347,-0.22068 3.01151,-0.63727 4.41861,-1.23676c0,0 2.30769,-0.96154 3.26923,1.34615c0.96154,2.30769 -1.34615,3.26923 -1.34615,3.26923c-1.78809,0.73184 -3.67368,1.25754 -5.58139,1.56324l-1.63782,0.36954c0,0 -2.44047,0.54233 -2.98279,-1.89814z" fill="#4a0b15" stroke-width="0.5"/><path d="M67.13334,310.1c-1.5,-2 0.5,-3.5 0.5,-3.5l0.53223,-0.36777c0.9233,-0.86271 1.63768,-2.01107 1.99606,-3.2228c0,0 0.79057,-2.37171 3.16228,-1.58114c2.37171,0.79057 1.58114,3.16228 1.58114,3.16228c-0.68309,1.91105 -1.79998,3.71172 -3.20394,5.17719l-1.06776,0.83224c0,0 -2,1.5 -3.5,-0.5z" fill="#4a0b15" stroke-width="0.5"/><path d="M77.64305,321.05145c-2.45145,-0.49029 -1.96116,-2.94174 -1.96116,-2.94174l0.45671,-1.70684c0.4,-0.73334 0.8,-1.46666 1.2,-2.2c0,0 1.19713,-2.19474 3.39187,-0.99761c2.19474,1.19713 0.99761,3.39187 0.99761,3.39187c-0.4,0.73334 -0.8,1.46666 -1.2,2.2l0.05671,0.29316c0,0 -0.49029,2.45145 -2.94174,1.96116z" fill="#4a0b15" stroke-width="0.5"/><path d="M90.34433,325.06599c-2.46599,0.411 -2.87698,-2.05499 -2.87698,-2.05499l-0.10572,-0.82043c-0.59771,-1.86122 -0.90726,-3.83585 -0.92829,-5.79057c0,0 0,-2.5 2.5,-2.5c2.5,0 2.5,2.5 2.5,2.5c-0.02085,1.42075 0.20199,2.86841 0.67171,4.20943l0.29428,1.57958c0,0 0.41099,2.46598 -2.05499,2.87698z" fill="#4a0b15" stroke-width="0.5"/><path d="M105.88689,325.47488c-2.47487,0.35355 -2.82843,-2.12132 -2.82843,-2.12132l-0.2,-1.4c-0.2374,-1.69702 -0.60568,-3.38211 -1.11457,-5.01834c0,0 -0.73521,-2.38945 1.65424,-3.12467c2.38945,-0.73521 3.12466,1.65424 3.12466,1.65424c0.57565,1.88849 1.00127,3.82794 1.28543,5.78166l0.2,1.4c0,0 0.35356,2.47487 -2.12132,2.82843z" fill="#4a0b15" stroke-width="0.5"/><path d="M122.53334,323.3c-2.5,0 -2.5,-2.5 -2.5,-2.5c0,-0.86667 0,-2.33333 0,-3.2c0,0 0,-2.5 2.5,-2.5c2.5,0 2.5,2.5 2.5,2.5c0,0.86667 0,1.73333 0,2.6v0.6c0,0 0,2.5 -2.5,2.5z" fill="#4a0b15" stroke-width="0.5"/><path d="M140.24653,322.40381c-2.40381,-0.6868 -1.71701,-3.09062 -1.71701,-3.09062l0.36783,-1.27535c0.2,-0.86667 0.4,-1.73333 0.6,-2.6c0,0 0.56214,-2.43598 2.99812,-1.87383c2.43598,0.56215 1.87383,2.99813 1.87383,2.99813c-0.2,0.86667 -0.4,1.73334 -0.6,2.6l-0.43216,1.52465c0,0 -0.6868,2.40381 -3.09061,1.71701z" fill="#4a0b15" stroke-width="0.5"/><path d="M160.62362,325.05145c-2.45145,0.49029 -2.94174,-1.96116 -2.94174,-1.96116l-0.21948,-1.11015c-0.27375,-1.78721 -0.48184,-3.58577 -0.62171,-5.3884c0,0 -0.19174,-2.49264 2.30089,-2.68438c2.49264,-0.19174 2.68438,2.30089 2.68438,2.30089c0.12777,1.67676 0.32141,3.34972 0.57829,5.0116l0.18052,0.88985c0,0 0.49029,2.45145 -1.96116,2.94174z" fill="#4a0b15" stroke-width="0.5"/><path d="M183.5011,319.16777c-1.76777,1.76777 -3.53553,0 -3.53553,0l-0.49191,-0.60832c-1.6,-0.93333 -3.2,-1.86667 -4.8,-2.8c0,0 -2.15945,-1.25968 -0.89977,-3.41912c1.25968,-2.15945 3.41912,-0.89977 3.41912,-0.89977c1.6,0.93333 3.2,1.86667 4.8,2.8l1.50809,1.39168c0,0 1.76777,1.76777 0,3.53553z" fill="#4a0b15" stroke-width="0.5"/><path d="M200.03333,304.6c0,2.5 -2.5,2.5 -2.5,2.5l-1.13521,-0.11055c-1.65827,-0.51135 -3.33581,-0.96432 -5.02693,-1.35347c0,0 -2.43598,-0.56215 -1.87383,-2.99813c0.56215,-2.43598 2.99813,-1.87383 2.99813,-1.87383c1.80705,0.41812 3.59998,0.90208 5.37307,1.44653l-0.33521,-0.11055c0,0 2.5,0 2.5,2.5z" fill="#4a0b15" stroke-width="0.5"/><path d="M204.39932,286.611c-0.411,2.46598 -2.87698,2.05499 -2.87698,2.05499l-2.36915,-0.39506c-1.73333,-0.26667 -3.46667,-0.53333 -5.2,-0.8c0,0 -2.47093,-0.38014 -2.09079,-2.85107c0.38014,-2.47093 2.85107,-2.09079 2.85107,-2.09079c1.73333,0.26667 3.46667,0.53333 5.2,0.8l2.43085,0.40494c0,0 2.46598,0.411 2.05499,2.87698z" fill="#4a0b15" stroke-width="0.5"/></g></g></svg>