<svg version="1.1" xmlns="http://www.w3.org/2000/svg" xmlns:xlink="http://www.w3.org/1999/xlink" width="433.75346" height="331.54729" viewBox="0,0,433.75346,331.54729"><g transform="translate(-16.07013,-15.23254)"><g data-paper-data="{&quot;isPaintingLayer&quot;:true}" fill-rule="nonzero" stroke="none" stroke-linecap="butt" stroke-linejoin="miter" stroke-miterlimit="10" stroke-dasharray="" stroke-dashoffset="0" style="mix-blend-mode: normal"><path d="M68.03382,20.44877c0.79002,-1.17057 1.32931,-2.58406 2.4487,-3.43553c3.5785,-2.72203 10.35374,-1.51324 14.51748,-1.51324c2.97392,0 6.47128,-0.44014 9.40045,0.03228c1.04064,0.16784 1.9613,0.82049 3,1c1.97079,0.3406 4.02705,-0.32782 6,0c2.07967,0.34555 3.92073,1.65207 6,2c1.97258,0.33008 4.02551,-0.31845 6,0c1.04064,0.16784 1.9565,0.85093 3,1c2.72956,0.38995 5.52813,0.38495 8.20589,1.04237c8.01365,2.04524 16.69762,0.56895 24.79411,1.95763c3.08067,0.52839 5.92938,2.5052 9,3c3.37103,0.54322 6.76265,0.48982 9.91388,2.34109c0.81291,0.47756 1.19397,1.51092 2,2c2.22,1.34707 4.97816,1.67122 7.14744,3.09852c0.73925,0.4864 1.11063,1.41918 1.85256,1.90148c2.09957,1.36485 5.65612,0.8489 8.08612,1.6589c1.108,0.02499 2.27095,-0.27053 3.324,0.07499c1.14195,0.37469 1.86183,1.61399 3,2c0.84507,0.28661 1.79603,-0.2231 2.676,-0.07499c2.07894,0.34992 3.91867,1.66461 6,2c0.98727,0.15909 2.01439,-0.16905 3,0c3.39444,0.58221 6.45325,2.49326 9.90501,2.98645c4.23913,0.60569 8.74164,-0.52232 13,0c4.02397,0.49357 7.9776,1.48703 12,2c5.67481,0.72369 11.94341,-0.01873 17.69454,-0.01873c2.68656,0 5.95456,0.48149 8.59954,0.03228c2.42369,-0.41163 4.65264,-1.73318 7.095,-2.01355c5.23415,-0.60085 10.46544,-0.42724 15.60649,-1.91903c1.88774,-0.54777 3.8411,-0.96924 5.60059,-1.84549c1.19324,-0.59425 2.10341,-1.74347 3.37392,-2.14694c2.85152,-0.90555 6.47427,0.33221 9.419,-0.08854c2.37094,-0.33877 4.53519,-1.63986 6.905,-1.98645c4.78573,-0.69992 9.49108,-1.03228 14.40046,-1.03228c5.66667,0 11.33333,0 17,0c2.80018,0 5.63601,-0.41358 8.40046,0.03228c1.04064,0.16784 1.9613,0.82049 3,1c3.83999,0.66363 8.03163,-0.56079 11.905,-0.01355c3.77935,0.53395 7.3839,2.40654 11.095,3.01355c2.31679,0.37895 4.86993,0.18636 6.91387,1.3411c0.82087,0.46375 1.19707,1.50583 2,2c2.83952,1.74759 5.43939,1.43939 8,4c1.17884,0.35939 5.25587,1.56289 6,2c0.78625,0.46185 1.1014,1.54416 1.91742,1.95112c1.2299,0.61337 2.80086,0.32847 4,1c1.18376,0.66291 2.15676,1.72279 2.89488,2.86117c0.186,0.28686 2.04443,5.9218 2.24509,6.52376c1.37471,4.12413 2.40848,8.17136 3.09601,12.39012c0.14353,0.88073 -0.35872,1.82995 -0.07499,2.676c0.34064,1.01575 1.37239,1.66861 1.85306,2.62608c1.4065,2.80163 1.60663,6.20216 3,9c0.59425,1.19324 1.74347,2.10342 2.14694,3.37392c1.28235,4.03804 0.02624,10.26719 -1.2661,14.03879c-2.57585,2.57585 -2.88407,5.33331 -5.19327,8.27064c-3.53979,4.50265 -6.13452,9.40733 -8.68757,14.51341c-1.79958,3.59916 -4.08742,7.17471 -4.77807,11.30207c-0.44355,2.6507 0.03228,5.90833 0.03228,8.59955c0,6.96949 -0.00399,13.85708 0.57614,20.80966c0.28656,3.45638 -0.06715,7.35968 0.39158,10.78988c0.34493,2.57924 2.58965,3.91458 4.30005,5.63269c0.80793,0.81158 2.78077,3.01331 3.9567,3.37503c0.82279,0.2531 1.72928,-0.2135 2.581,-0.08854c3.03889,0.44587 5.83181,1.95319 8.65125,3.17157c1.08929,0.47072 2.34436,0.56547 3.35762,1.18308c9.4508,5.76041 10.71652,17.46684 15.11879,26.55225c0.03958,3.63078 1.45398,5.67953 2.0346,9.17392c0.86316,5.19492 -0.87878,10.82567 0,16c0.41163,2.42369 1.70522,4.65601 2.01355,7.09499c0.85172,6.73742 -0.03886,14.05048 -1.0027,20.63214c-0.41182,2.81214 0.37932,5.73632 -0.17086,8.5247c-0.32128,1.62826 -1.49338,3.00113 -1.85282,4.6214c-0.47123,2.12415 0.04511,4.35143 0.04511,6.52723c0,0.47332 0.00949,6.14904 -0.03228,6.40046c-0.34555,2.07968 -1.65683,3.91994 -2,6c-0.18041,1.0935 0.28342,2.27528 -0.07499,3.324c-1.09102,3.19241 -4.42425,6.83974 -6.3126,9.66229c-2.88934,4.31873 -6.6476,7.71625 -10.31236,11.38101c-0.45553,0.45553 -4.14413,4.17033 -4.45344,4.35886c-2.18724,1.33315 -4.83788,1.76063 -7.05951,3.03565c-4.418,2.53555 -8.04791,4.2883 -13.25482,4.33772c-4.91207,0 -10.75555,-0.86943 -15.59954,-0.03228c-1.0387,0.17951 -1.95936,0.83216 -3,1c-2.92917,0.47242 -6.42654,0.03228 -9.40046,0.03228c-2.97392,0 -6.47128,0.44014 -9.40046,-0.03228c-1.04064,-0.16784 -1.9613,-0.82049 -3,-1c-1.93959,-0.3352 -3.95553,0.2854 -5.905,0.01355c-1.3612,-0.18982 -2.63668,-0.82614 -4,-1c-6.72782,-0.85798 -13.30072,0.67482 -20,-1c-3.79998,0.02641 -8.36923,0.68601 -12.095,-0.01355c-1.3554,-0.2545 -2.71296,-0.66309 -3.91387,-1.34109c-0.79405,-0.4483 -1.11172,-1.5241 -1.91742,-1.95112c-2.54703,-1.34996 -3.52906,-0.26882 -6.16871,-0.70778c-6.57018,-1.09257 -13.23242,-3.21452 -19.95787,-3.98677c-10.50664,-1.20643 -21.05196,-0.98095 -31.64168,-0.98095c-8.88396,-0.06517 -17.12976,-4.03292 -26,-4c-2.27774,0.00846 -4.61673,-0.4396 -6.8327,0.08731c-5.65425,1.34448 -7.25964,6.7102 -11.85297,9.53931c-0.89751,0.5528 -2.09378,0.46159 -3,1c-0.92079,0.54706 -1.36177,1.78886 -2.35762,2.18308c-1.10328,0.43675 -2.38775,-0.04837 -3.55625,0.15802c-4.02035,0.71011 -7.76627,1.62332 -11.70148,2.93258c-4.61001,1.13423 -8.78996,0.28825 -13.29852,1.06742c-1.03869,0.17951 -1.95602,0.85438 -3,1c-2.67246,0.37278 -5.41834,-0.32781 -8.09499,0.01355c-5.36479,0.68417 -10.5877,2.1188 -15.90501,2.98645c-4.63503,0.75632 -9.57949,-0.48723 -14.24531,0.03894c-1.65812,0.18699 -3.2481,0.81873 -4.9088,0.98118c-6.25894,0.61223 -12.94325,0.01216 -19.24634,0.01216c-4.93886,0 -10.50477,0.65061 -15.40045,-0.03228c-1.04399,-0.14562 -1.9613,-0.82049 -3,-1c-2.29925,-0.39736 -4.69076,0.33444 -7,0c-3.74913,-0.54298 -7.02725,-2.82606 -10.46691,-4.123c-3.82966,-1.44399 -8.1625,-1.56207 -12,-3c-1.31806,-0.49388 -2.40729,-1.53071 -3.75868,-1.92437c-1.04288,-0.30379 -2.20313,0.14606 -3.25649,-0.11912c-2.67039,-0.67227 -8.87398,-2.67211 -11.43179,-4.1746c-0.78625,-0.46185 -1.10121,-1.54455 -1.91741,-1.95112c-1.1788,-0.5872 -2.66641,-0.32593 -3.84269,-0.91816c-1.61539,-0.81331 -2.913,-2.14433 -4.3695,-3.2165c-3.78171,-2.53735 -9.27361,-6.73101 -11.68269,-10.72652c-2.6778,-4.44119 -3.17908,-11.67145 -2.34109,-16.71479c0.34555,-2.07968 1.66461,-3.91866 2,-6c1.43865,-8.92779 1.91294,-17.82848 2,-27c0.91002,-2.81482 2.52906,-6.07752 3,-9c0.15909,-0.98727 -0.16905,-2.01439 0,-3c0.52901,-3.08431 2.48601,-5.92835 3,-9c0.70481,-4.21198 0.27434,-8.7587 1,-13c0.52775,-3.08456 2.486,-5.9283 3,-9c0.33008,-1.97258 -0.31845,-4.02552 0,-6c0.16784,-1.04065 0.85093,-1.9565 1,-3c0.63294,-4.43055 0.56368,-8.69104 2,-13c-0.13491,-10.86413 -0.03228,-21.7346 -0.03228,-32.59955c0,-4.91207 0.86942,-10.75555 0.03228,-15.59955c-0.17951,-1.03869 -0.83045,-1.95963 -1,-3c-0.14353,-0.88073 0.35871,-1.82996 0.07499,-2.676c-0.34063,-1.01576 -1.37459,-1.66751 -1.85306,-2.62608c-1.76297,-3.532 -1.79153,-6.71355 -4.04049,-10.087c-0.66997,-2.59094 -0.69121,-5.41299 -1.90074,-7.80021c-0.44724,-0.88272 -1.65715,-1.24021 -2.04761,-2.14947c-0.70638,-1.64495 -0.55722,-3.55428 -1.13005,-5.25036c-0.77915,-2.30702 -1.79668,-4.53272 -2.8811,-6.71296c-1.46812,-2.95167 -4.28124,-5.06833 -5.88084,-7.78405c-0.72189,-1.22559 -2.21124,-6.8745 -2.35464,-8.00887c-0.57575,-4.55438 -0.62477,-11.12976 0.01355,-15.70591c0.14562,-1.04399 0.82579,-1.9604 1,-3c0.17487,-1.04349 -0.2593,-2.15753 0.0346,-3.17393c1.47668,-5.10669 5.4251,-9.15823 7.03508,-14.15983c0.9306,-4.65159 2.15027,-9.07731 2.93032,-13.66624c0.18573,-1.09261 -0.29369,-2.27884 0.07499,-3.324c0.60778,-1.72298 3.36187,-5.32024 5.0784,-6.40216c0.89174,-0.56206 2.09613,-0.45768 3,-1c0.80845,-0.48507 1.19083,-1.51611 2,-2c0.97415,-0.58255 2.20114,-0.61077 3.21595,-1.11917c3.10005,-1.55304 6.7934,-3.50497 9.51341,-5.68756c0.82075,-0.65858 1.36977,-1.64939 2.27064,-2.19327c0.97169,-0.58664 2.20003,-0.61297 3.21595,-1.11916c1.81737,-0.90553 4.55422,-3.55081 6.37392,-4.14694c1.18028,-0.38666 2.48298,-0.07151 3.72446,-0.10727c0,0 1.31046,0 2.03382,0.94877z" fill="#710000" stroke-width="0.5"/><path d="M68.23223,111.23223c1.76777,-1.76777 3.53553,0 3.53553,0l1,1c3.12596,3.31713 10.71068,5.32392 15.23223,5.26777c6,0 12,0 18,0c2.19551,0 6.20737,0.77871 8.27554,0.10727c5.6772,-1.84312 8.11372,-11.08544 7.25674,-16.20681c-0.34793,-2.07928 -1.64362,-3.92216 -2,-6c-0.49787,-2.90275 -1,-6.02694 -1,-9c-0.67998,-2.15285 -1.91966,-4.1545 -4.25674,-5.00773c-1.37181,-0.50082 -3.9046,0.91847 -4.87508,1.07499c-1.97448,0.31845 -4.02743,-0.33008 -6,0c-2.07928,0.34793 -3.91855,1.66534 -6,2c-0.80593,0.12958 -1.68742,-0.46508 -2.44375,-0.15802c-0.75644,0.3071 -0.93261,1.41351 -1.64238,1.81693c-2.04095,1.16002 -4.59823,0.95515 -6.91387,1.34109c-3.34839,0.55806 -6.24188,1.59135 -9.80091,1c-5.89746,-0.9799 -11.35888,-4.38377 -16.91387,-6.34109c-3.40102,-3.32056 -7.17932,-5.89074 -10.45344,-9.35886c-0.86723,-0.91862 -2.04875,-1.64799 -2.54193,-2.81106c-0.46323,-1.09243 0.04837,-2.38775 -0.15802,-3.55625c-0.93231,-5.27835 -1.84916,-11.31793 -1,-16.80091c0.37918,-2.44833 2.11076,-4.48356 3.22193,-6.69792c0.50907,-1.01448 0.52563,-2.24846 1.11916,-3.21595c1.12372,-1.83174 4.98056,-5.68858 6.8123,-6.8123c0.96749,-0.59353 2.19896,-0.61512 3.21595,-1.11916c1.19438,-0.59196 2.10342,-1.74347 3.37392,-2.14694c0.42844,-0.13606 5.94107,-0.10727 6.72446,-0.10727c3.69241,0 7.75969,-0.55491 11.40046,0.03228c1.04064,0.16784 1.96198,0.81666 3,1c1.1685,0.20639 2.45297,-0.27873 3.55625,0.15802c0.99585,0.39422 1.44237,1.62679 2.35762,2.18307c1.80153,1.09496 4.18228,0.93213 6,2c0.81291,0.47757 1.19155,1.51493 2,2c0.90388,0.54233 2.10249,0.44721 3,1c2.29808,1.41543 4.5369,4.43441 6.45344,6.35886c1.56403,1.57049 2.80506,3.43306 4.16559,5.18279c0.725,0.93239 1.99777,1.50949 2.37634,2.62826c0.22867,0.67575 0.1903,6.4967 0.1903,7.95671c0,0 0,2.5 -2.5,2.5c-2.5,0 -2.5,-2.5 -2.5,-2.5c0,-2.01543 0.81264,-4.12635 0.1903,-6.04329c-0.21878,-0.67389 -1.17151,-0.82625 -1.62366,-1.37174c-1.30971,-1.58009 -2.37994,-3.36926 -3.83441,-4.81721c-1.60573,-1.59852 -3.5962,-4.50816 -5.54656,-5.64114c-0.91146,-0.52948 -2.09612,-0.45767 -3,-1c-0.80845,-0.48507 -1.19707,-1.50584 -2,-2c-1.7954,-1.10498 -4.18644,-0.92509 -6,-2c-0.70231,-0.41626 -0.88594,-1.50982 -1.64238,-1.81693c-0.75633,-0.30706 -1.63706,0.28279 -2.44375,0.15802c-1.04171,-0.16112 -1.9613,-0.82049 -3,-1c-3.34624,-0.5783 -7.18444,0.03228 -10.59954,0.03228c-1.75888,0 -3.61862,-0.69741 -5.27554,-0.10727c-1.00925,0.35946 -1.66988,1.36986 -2.62608,1.85306c-0.86874,0.439 -1.94293,0.391 -2.78405,0.88084c-3.00154,1.74798 -4.6692,5.16221 -6.06854,7.97175c-1.21229,2.434 -2.44888,2.69711 -2.77807,5.30208c-0.42983,3.40135 -0.58793,8.79711 0,12.19909c0.17951,1.0387 0.83888,1.95829 1,3c0.12477,0.80669 -0.43306,1.6752 -0.15802,2.44375c0.52833,1.47631 2.35182,2.07771 3.45807,3.18894c2.42404,2.43496 5.12558,4.15153 7.54656,6.64114c6.47464,2.00172 13.14244,6.89333 20.28522,5.65891c1.0387,-0.17951 1.96025,-0.82671 3,-1c2.19033,-0.36506 3.16866,0.5674 5.08613,-0.65891c0.90229,-0.57706 1.36177,-1.78885 2.35762,-2.18307c1.10329,-0.43675 2.38688,0.04338 3.55625,-0.15802c2.0776,-0.35783 3.92033,-1.65445 6,-2c1.97295,-0.32782 4.02921,0.34059 6,0c3.2913,-0.5688 3.26811,-2.14906 7.12492,-0.92501c4.46867,1.41824 6.37922,5.01143 7.74326,8.99227c0,7.35633 4.23772,14.35173 3,21.80091c-0.95845,5.76839 -4.82009,12.98796 -10.74326,14.99227c-2.50091,0.84627 -7.04749,0.10727 -9.72446,0.10727c-6,0 -12,0 -18,0c-6.06981,-0.05762 -14.37768,-2.51138 -18.76777,-6.73223l-1,-1c0,0 -1.76777,-1.76777 0,-3.53553z" fill="#000000" stroke-width="0.5"/><path d="M166.5,82c0,2.5 -2.5,2.5 -2.5,2.5h-2c-2.16096,-0.02051 -4.27097,-0.66426 -6.40046,-1.03228c-2.68001,-0.46316 -5.4945,-0.16655 -8.29864,0.05424c-0.36494,0.9465 -0.67456,1.90096 -0.83319,2.8785c-0.16948,1.04438 0.25409,2.15603 -0.0346,3.17393c-0.40674,1.43415 -1.58754,2.56748 -2,4c-0.26066,0.90532 0.19316,1.89742 0.0346,2.82607c-0.35484,2.07811 -1.66461,3.91866 -2,6c-0.6523,4.04797 -0.68227,8.0468 -2,12c0.02318,1.8664 0.03228,3.733 0.03228,5.59954l-1.26393,3.11803c0,0 -1.11803,2.23607 -3.3541,1.11803c-2.23607,-1.11803 -1.11803,-3.3541 -1.11803,-3.3541l0.73607,-0.88197c0,-2.13351 0.01203,-4.26704 0.03228,-6.40046c1.31956,-3.95868 1.30668,-7.95773 2,-12c0.35638,-2.07784 1.66231,-3.91904 2,-6c0.16948,-1.04438 -0.25409,-2.15603 0.0346,-3.17393c0.40674,-1.43415 1.58754,-2.56748 2,-4c0.26066,-0.90532 -0.19316,-1.89742 -0.0346,-2.82607c0.1132,-0.66296 0.29257,-1.31478 0.50953,-1.96011c-0.48422,-0.03677 -0.96524,-0.09246 -1.44227,-0.17172c-3.08423,-0.51246 -6.41762,-2.10518 -9.39011,-3.09601c0,0 -2.37171,-0.79057 -1.58114,-3.16228c0.79057,-2.37171 3.16228,-1.58114 3.16228,-1.58114c2.71652,0.90551 5.78927,2.43201 8.60989,2.90399c0.84141,0.14079 1.69524,0.20916 2.55732,0.23007c0.24759,-0.71221 0.45206,-1.43103 0.57451,-2.1628c0.48077,-2.87313 -0.41761,-6.00743 -0.01355,-8.905c0.18982,-1.3612 0.79198,-2.64147 1,-4c0.18442,-1.20439 -0.30015,-2.52784 0.17157,-3.65125c0.48909,-1.16479 1.69462,-1.87404 2.54193,-2.81106c0,0 1.76777,-1.76777 3.53553,0c1.76777,1.76777 0,3.53553 0,3.53553c-0.48602,0.39631 -1.24374,0.59958 -1.45807,1.18894c-0.26828,0.73774 0.27314,1.57035 0.17157,2.34875c-0.17783,1.36282 -0.80068,2.64016 -1,4c-0.43412,2.9617 0.47885,6.1315 -0.01355,9.095c-0.06234,0.37517 -0.14651,0.74677 -0.24718,1.11565c2.42419,-0.19042 4.8469,-0.36009 7.17992,0.01618c1.87002,0.3016 3.70551,0.99124 5.59954,0.96772h2c0,0 2.5,0 2.5,2.5z" fill="#000000" stroke-width="0.5"/><path d="M195.46598,94.589c0.1324,0.7944 -0.03376,1.37555 -0.31987,1.79839c0.43173,1.66598 0.80637,3.34437 1.25419,4.91364c0.2088,0.73168 1.98025,5.77392 2.06742,6.29851c0.46534,2.80064 0.03537,6.15151 0,9l0.90399,2.60989c0,0 0.79057,2.37171 -1.58114,3.16228c-2.37171,0.79057 -3.16228,-1.58114 -3.16228,-1.58114l-1.09601,-3.39011c-0.02654,-2.79596 0.46187,-6.2398 0,-9c-0.33118,-1.97919 -1.38069,-3.77216 -1.93258,-5.70149c-0.43013,-1.50364 -0.77593,-3.16344 -1.1903,-4.80413c-3.65916,0.36563 -7.44021,0.23286 -10.90116,1.24778c-0.01318,0.08612 -0.02668,0.17206 -0.04052,0.25783c-0.16784,1.04064 -0.82049,1.9613 -1,3c-0.62073,3.59172 0.03228,7.94407 0.03228,11.59954c0,0 0,2.5 -2.5,2.5c-2.5,0 -2.5,-2.5 -2.5,-2.5c0,-3.95541 -0.59661,-8.50114 0.03228,-12.40046c0.16784,-1.04064 0.82049,-1.9613 1,-3c0.78321,-4.53191 -0.03228,-9.98625 -0.03228,-14.59954c0,-3.13343 0.46089,-6.59995 0.01873,-9.69454c-0.33462,-2.34197 -4.54539,-10.82514 -0.69838,-12.50964c3.96487,-1.73611 6.64098,3.45577 8.113,5.61921c5.50667,5.70093 5.86429,13.65745 9.31243,20.48659c0.5417,1.07285 1.46634,1.92313 2,3c0.28435,0.57378 0.53766,1.17037 0.76755,1.78265c0.62551,0.23296 1.26145,0.75753 1.45265,1.90473zM185.62829,86.79057c-0.93047,-2.7608 -1.56229,-6.09416 -2.87408,-8.69219c-0.5417,-1.07285 -1.46418,-1.9242 -2,-3c-0.57095,-1.14633 -1.06773,-2.3825 -1.78831,-3.43759c0.34537,1.75909 0.52952,3.55398 0.53409,5.33921c0.01373,5.35628 0.62813,11.32087 0.4543,16.9403c2.89397,-0.54114 5.82054,-0.58719 8.78506,-0.8713c-1.05514,-2.08398 -2.36511,-4.0651 -3.11106,-6.27843z" fill="#000000" stroke-width="0.5"/><path d="M272.76777,82.76777l-1,1c-1.72964,1.41038 -1.5122,2.73852 -1.34894,4.63124c0.08118,0.34654 0.08118,0.60099 0.08118,0.60099c-0.00184,0.14851 -0.006,0.297 -0.01128,0.44537c0.0071,0.17982 0.01128,0.36457 0.01128,0.55463c0,0 0,0.18695 -0.05112,0.4586c-0.03255,1.11308 0.02388,2.20468 0.67775,3.22707c0.57706,0.90229 1.78069,1.36504 2.18307,2.35762c0.82995,2.04726 -0.96943,3.52766 1.20779,4.96994c0.81314,0.53866 1.95909,0.36062 2.79684,0.86014c0.80979,0.48284 1.19707,1.50584 2,2c2.2756,1.40053 6.89107,2.5704 9.37134,1c1.4315,-0.90636 2.33285,-2.45895 3.54656,-3.64114c0.00728,-0.00709 0.01454,-0.01417 0.02177,-0.02123c-0.20428,-1.61083 0.00785,-3.44324 0.37081,-5.211h-0.12482v-3c0,-1.38071 1.11929,-2.5 2.5,-2.5c0.69036,0 1.31536,0.27982 1.76777,0.73223l0,0l2,2l-0.28474,0.28474l0.82667,0.52632c0.12947,3.56992 0.6991,5.01457 -1.16292,8.23626c0.62113,0.62882 1.43003,1.12686 2.16755,1.59382c6.95277,4.40217 11.24866,-5.80134 11.18567,-10.87337l1.73223,-2.76777c0,0 1.76777,-1.76777 3.53553,0c1.76777,1.76777 0,3.53553 0,3.53553l-0.26777,-0.76777c-0.05319,5.60318 -1.94255,12.07993 -7.18567,15.12663c-4.86829,2.82889 -10.26548,1.5112 -13.97787,-2.2521c-3.14988,3.10235 -7.56437,5.22915 -11.73691,4.5932c-0.39592,-0.06034 -6.65443,-2.18868 -6.91387,-2.34109c-0.81291,-0.47757 -1.19278,-1.51288 -2,-2c-0.97032,-0.58554 -2.35605,-0.387 -3.20316,-1.13986c-1.28101,-1.13849 -2.24262,-2.66953 -2.87525,-4.26231c-0.34071,-0.85781 0.42075,-1.90876 0.08303,-2.76775c-0.29872,-0.75979 -1.41351,-0.93261 -1.81693,-1.64238c-1.43087,-2.51748 -1.40186,-3.7763 -1.37749,-6.0008l-1.88263,-0.2334c-2.38774,-1.61524 -5.09857,-3.12461 -8.01371,-3.61241c-2.34126,-0.39177 -4.84939,0.15323 -7.26534,0.13424c-0.14218,2.03299 -0.203,4.05042 0.13351,5.99759c0.86705,5.01703 2.26584,9.69543 3.90399,14.60989c1.12695,3.4858 1.12829,6.16213 1.12829,9.79057l0.73607,0.88197c0,0 1.11803,2.23607 -1.11803,3.3541c-2.23607,1.11803 -3.3541,-1.11803 -3.3541,-1.11803l-1.04994,-2.59013c-1.54113,-0.10361 -2.0857,-1.73733 -2.0857,-1.73733l-0.87408,-2.69219c-1.19478,-1.79217 -1.79689,-3.92275 -2.88084,-5.78405c-1.75472,-3.01312 -5.88833,-5.25073 -8.45835,-7.38097c-0.54549,-0.45214 -0.70772,-1.37652 -1.37174,-1.62366c-0.86503,-0.32195 -1.89283,0.37705 -2.76775,0.08303c-2.01757,-0.67801 -3.5701,-2.61598 -5.676,-2.92501c-0.9894,-0.14519 -2.01439,0.16905 -3,0c-2.07784,-0.35638 -3.91877,-1.66396 -6,-2c-1.75889,-0.28399 -3.6,-0.26869 -5.3546,-0.56173c1.02295,2.00528 0.85058,4.4604 1.22277,6.69356c0.17329,1.03975 0.83888,1.95829 1,3c0.12477,0.80669 -0.36239,1.65346 -0.15802,2.44375c0.54945,2.12472 5.75739,1.26978 6.64701,1.64701c1.16306,0.49318 1.87404,1.69462 2.81106,2.54193c0,0 1.76777,1.76777 0,3.53553c-1.76777,1.76777 -3.53553,0 -3.53553,0c-0.39631,-0.48602 -0.59849,-1.24676 -1.18894,-1.45807c-0.76855,-0.27504 -1.64124,0.30736 -2.44375,0.15802c-2.79924,-0.5209 -5.59141,-1.70007 -6.90924,-4.51101c-0.50369,-1.07438 0.04837,-2.38775 -0.15802,-3.55625c-0.35267,-1.99668 -0.7395,-3.98922 -1,-6c-0.20878,-1.61155 -1.83578,-2.685 -2.65891,-4.08613c-0.563,-0.95833 -1.17543,-2.40936 -1.72511,-3.96301l-2.88414,-0.96138c-1.02156,-0.31417 -1.76412,-1.26534 -1.76412,-2.38994c0,-1.38071 1.11929,-2.5 2.5,-2.5h0.54785c-0.00538,-0.03355 -0.01057,-0.06674 -0.01557,-0.09954c-0.34525,-2.26519 0.67595,-4.5326 1,-6.80091c0.18409,-1.28859 -0.17473,-2.61335 -0.01355,-3.905c0.23165,-1.85634 0.91914,-3.64023 1.14483,-5.49545l-1.43133,-1.43133c-0.45241,-0.45241 -0.73223,-1.07741 -0.73223,-1.76777c0,-1.38071 1.11929,-2.5 2.5,-2.5h3l0,0.45217c0.86748,-0.13757 1.73575,-0.27061 2.59954,-0.41989c3.12001,-0.5392 7.08544,-2.16282 10.35716,-0.84198c0.38584,0.15577 4.50568,4.13875 4.97665,4.72473c0.75292,0.93678 1.26226,2.05122 2,3c0.725,0.93239 1.97353,1.51799 2.37634,2.62826c1.41313,3.89499 -0.67989,8.9087 -3.99537,11.08334c-0.88141,0.57812 -2.09352,0.46203 -3,1c-3.11687,1.84977 -4.70714,4.47073 -8.59404,5.2796c0.1954,0.04946 0.39049,0.08756 0.58517,0.1125c1.02331,0.13111 2.0781,-0.16043 3.095,0.01355c2.07799,0.35553 3.91866,1.66461 6,2c2.24059,0.36105 4.65692,0.22951 6.69792,1.22193c0.96349,0.46849 1.60884,1.51688 2.62608,1.85306c1.02333,0.3382 2.23844,-0.33402 3.23225,0.08303c1.08908,0.45703 1.69587,1.65135 2.62826,2.37634c2.54038,1.97531 5.85421,4.13866 8.15156,6.75673c-0.91331,-3.10434 -1.6869,-6.21519 -2.20425,-9.42292c-0.3967,-2.45964 -0.17958,-5.02323 0.0251,-7.58234c-3.82275,-0.97098 -7.68228,-2.36624 -11.55738,-2.31812c0,0 -2.5,0 -2.5,-2.5c0,-2.5 2.5,-2.5 2.5,-2.5c4.01524,0.03812 7.88198,1.2664 11.76464,2.24028c-0.02834,-0.78868 -0.09928,-1.56975 -0.23236,-2.33983c-0.17951,-1.0387 -0.85438,-1.95602 -1,-3c-1.0449,-7.49094 -0.03228,-15.82775 -0.03228,-23.40046c0,0 0,-2.5 2.5,-2.5c2.5,0 2.5,2.5 2.5,2.5c0,7.27336 -1.08494,15.42076 -0.03228,22.59954c0.15293,1.04294 0.83216,1.95936 1,3c0.21459,1.33055 0.24957,2.69153 0.20406,4.06575c2.5419,0.11448 5.22834,-0.54846 7.72868,-0.13302c3.30316,0.54884 6.33675,2.07089 9.12194,3.82973c0.0257,-1.13677 0.07509,-2.08881 0.16791,-2.31872c0.47293,-1.17144 1.69462,-1.87404 2.54193,-2.81106l1,-1c0,0 0.80581,-0.80581 1.87338,-0.78529c-0.41924,-0.51558 -0.86948,-0.99004 -1.41994,-1.32032c-1.06077,-0.63646 -2.65423,-0.41463 -3.45344,-1.35886c-1.09242,-1.29064 -1.61321,-3.08106 -1.73223,-4.76777c-0.0928,-1.31504 0.73402,-2.5326 1.12829,-3.79057c1.85413,-5.91584 4.24677,-9.62003 8.60394,-13.9772c0,0 1.76777,-1.76777 3.53553,0c1.76777,1.76777 0,3.53553 0,3.53553c-1.95915,1.95915 -4.27129,3.78904 -5.52198,6.33061c-0.882,1.79233 -1.19864,3.81226 -1.87408,5.69219c-0.01497,0.04166 -1.57658,2.79422 -0.60394,3.44166c0.72867,0.48504 1.79596,0.19078 2.54656,0.64114c1.50804,0.90482 1.94913,3.34176 3.64238,3.81693c1.10638,0.31048 2.30431,-0.30691 3.44375,-0.15802c2.67041,0.34893 4.57756,1.99458 7.28522,0.34109c3.01548,-1.84146 3.79716,-6.24398 4.84661,-9.27383c-0.00753,-0.60623 -0.07517,-5.18704 -0.03228,-5.59954c0.05547,-0.53345 0.80503,-1.11791 0.47189,-1.53822c-0.36539,-0.46101 -1.17498,-0.06004 -1.76246,-0.09007l-1.9772,-1.60394c0,0 -1.76777,-1.76777 0,-3.53553c1.76777,-1.76777 3.53553,0 3.53553,0l0.0228,0.39606c1.39551,0.62898 3.27086,0.66322 4.20386,1.86547c2.21419,-3.43022 7.80431,-7.97367 11.90963,-7.99192c4.25022,-0.01889 7.30073,2.29469 10.11511,4.9985c0.23145,0.00628 2.48083,0.12828 2.48083,2.49966c0,2.5 -2.5,2.5 -2.5,2.5l-2.76777,-0.73223c-1.93216,-1.95045 -4.11792,-4.24461 -7.13629,-4.26961c-2.44351,-0.02024 -6.80065,3.80439 -7.96931,5.81617c-0.52948,0.91146 -0.45318,2.09883 -1,3c-0.42351,0.69796 -1.44893,0.91362 -1.81693,1.64238c-0.96916,1.91928 1.5581,4.4384 2.62366,5.45832c1.28822,1.93233 1.89105,3.26149 3.65162,4.65162c1.00712,0.79521 2.2886,1.24522 3.18279,2.16559c0.6798,0.6997 0.61328,2.00327 1.41188,2.56358c0.50324,0.35308 1.2067,-0.25922 1.82036,-0.29581c0.86505,-0.05158 1.74485,0.1753 2.59954,0.03228c2.88238,-0.48232 6.45465,-2.14545 8.93868,-3.56039c1.08823,-0.61988 1.90587,-3.21154 0.69401,-4.20413c-0.6159,-0.50445 -1.61097,-0.18151 -2.33061,-0.52198c-1.80359,-0.8533 -3.32952,-2.47794 -5.30208,-2.77807c-3.04187,-0.46283 -6.51225,0.03228 -9.59954,0.03228c0,0 -2.5,0 -2.5,-2.5c0,-2.5 2.5,-2.5 2.5,-2.5c3.31615,0 7.14077,-0.54367 10.40046,0.03228c2.43973,0.43108 4.50117,2.07634 6.69792,3.22193c1.06875,0.55734 2.50428,0.51932 3.42436,1.25038c-0.03854,-0.4719 -0.06969,-0.94313 0.00954,-1.40505c0.35638,-2.07784 1.65207,-3.92072 2,-6c0.44355,-2.6507 -0.03228,-5.90833 -0.03228,-8.59954c0,0 0,-2.5 2.5,-2.5c2.5,0 2.5,2.5 2.5,2.5c0,2.96435 0.45238,6.48352 -0.03228,9.40046c-0.34555,2.07967 -1.66461,3.91866 -2,6c-0.15909,0.98726 0.1644,2.01361 0,3c-0.3114,1.86841 -0.86994,3.70789 -0.96772,5.59954c-0.0327,0.63262 -0.64401,1.3752 -0.26393,1.88197c0.77819,1.03758 2.21345,1.35735 3.26393,2.11803c1.137,0.82334 2.02765,2.01537 3.29057,2.62829c0.67581,0.32799 1.55733,0.34611 2.25272,0.06201c1.13543,-0.46388 1.73017,-2.1903 2.95671,-2.1903c1.53281,0 2.75269,3.01727 4.04329,2.1903c1.32022,-0.84595 2.0802,-2.34933 3.18894,-3.45807l0.5317,-1.35027c0,0 1.11803,-2.23607 3.3541,-1.11803c2.23607,1.11803 1.11803,3.3541 1.11803,3.3541l-1.4683,2.64973c-2.99286,2.99286 -4.70397,6.06721 -9.72448,4.54193c-0.66623,-0.20241 -0.34699,-1.8097 -1.04329,-1.8097c-0.6963,0 -0.37203,1.62468 -1.04329,1.8097c-5.41942,1.49377 -6.46534,-0.24453 -10.45671,-3.3097c-1.61894,-1.24326 -3.65421,-2.151 -4.73607,-3.88197c-0.04516,-0.07226 -0.08772,-0.14612 -0.12779,-0.2215c-3.80193,3.29915 -10.41653,4.75016 -14.63615,4.60346c-1.39586,-0.04853 -2.9566,0.37866 -4.17964,-0.29581c-1.25572,-0.69249 -1.56143,-2.43528 -2.58812,-3.43642c-0.8023,-0.78234 -1.94632,-1.12922 -2.81721,-1.83441c-2.31668,-1.87592 -2.69134,-2.86282 -4.34838,-5.34838c-0.31684,-0.32802 -0.62636,-0.66901 -0.9234,-1.02218c-1.15287,3.37463 -2.70809,6.709 -5.82892,8.56383c-4.02317,2.39112 -6.71613,0.9539 -10.71478,0.34109c-1.50213,-0.23021 -3.12939,0.36489 -4.55625,-0.15802c-0.17406,-0.06379 -0.33837,-0.14251 -0.49459,-0.23368c-0.06521,0.97603 -0.78093,1.69174 -0.78093,1.69174zM205.67302,83.59049c2.00352,0.1026 4.08564,0.22188 5.92652,-0.05821c3.30582,-0.50299 4.51564,-3.10155 7.08613,-4.65891c0.90154,-0.54621 2.06572,-0.51192 3,-1c4.62806,-2.41775 0.12451,-7.09798 -1.61903,-9.2884c-0.92531,-1.16248 -1.64016,-2.73275 -3.02335,-3.27527c-2.79514,-1.09633 -6.98263,1.84071 -9.69883,1.35177c0.01275,3.57196 -0.37842,7.25066 -0.87674,10.73899c-0.24957,1.74706 -1.32604,3.46467 -1,5.19909c0.0563,0.29952 0.12525,0.63321 0.20531,0.99095z" fill="#000000" stroke-width="0.5"/><path d="M365,92.5c-2.5,0 -2.5,-2.5 -2.5,-2.5l0.12829,-0.20943c-1.60745,-4.97206 -1.61014,-10.84628 -1.29125,-16.44905c-0.54343,0.5059 -1.07613,0.98324 -1.56927,1.42625c-1.03145,0.92658 -1.83707,2.37753 -3.19338,2.66536c-3.08348,0.65434 -9.60403,-2.61282 -10.88408,-5.47641c-0.53886,-1.20547 -0.15419,-2.63677 -0.1903,-3.95671c-0.01112,-0.40641 0.00311,-6.22488 0.03228,-6.40046c0.54101,-3.25604 2.00942,-5.24113 1.96772,-8.59954c0,0 0,-2.5 2.5,-2.5c2.5,0 2.5,2.5 2.5,2.5c-0.03438,3.62118 -1.45991,5.97989 -2.03228,9.40046c-0.30805,1.84095 0.10266,3.73433 0.03228,5.59954c-0.02579,0.68356 -0.37682,1.38517 -0.1903,2.04329c0.272,0.95977 3.3659,1.53764 3.48087,1.585c0.58107,0.23935 1.01473,1.03921 1.63505,0.93859c0.51311,-0.08323 0.47189,-0.93694 0.80662,-1.33464c1.52093,-1.80707 4.60776,-3.59332 5.37504,-5.95669c0.58428,-1.7997 -0.38513,-3.80942 -0.07499,-5.676c0.19466,-1.17156 0.73067,-2.26008 1.09601,-3.39011l0.98177,-2.94531c0.31417,-1.02156 1.26534,-1.76412 2.38994,-1.76412c1.38071,0 2.5,1.11929 2.5,2.5c0,0.29691 -0.05176,0.58173 -0.14675,0.84593l-0.98155,2.94464c-0.04419,0.12758 -0.08467,0.25515 -0.12174,0.38267c0.90863,2.53659 -0.29275,6.52096 -0.46879,8.97946c-0.46432,6.48434 -1.54739,14.88438 0.59053,21.05673l0.12829,1.79057c0,0 0,2.5 -2.5,2.5z" fill="#000000" stroke-width="0.5"/><path d="M325.0341,103.61209c-1.10498,0.13773 -2.19826,0.39757 -3.24353,0.75962c0,0 -0.87476,0.29159 -1.73885,-0.01066c0.01219,1.18298 0.44828,2.4458 0.44828,3.63895c0,0 0,2.5 -2.5,2.5c-2.5,0 -2.5,-2.5 -2.5,-2.5c0,-1.04566 -0.04804,-6.32524 0.1903,-6.95671c0.38357,-1.01623 1.6741,-1.45068 2.20776,-2.39676c0.73223,-1.29809 0.93648,-2.83322 1.51673,-4.20599c0.64732,-1.53144 0.73437,-3.64186 2.16122,-4.49536c4.67302,-2.79528 6.89722,0.73061 8.66978,3.95644c3.60919,6.56825 -0.82637,12.60967 -0.74579,19.09838v1c0,0 0,2.5 -2.5,2.5c-2.5,0 -2.5,-2.5 -2.5,-2.5v-1c0.0279,-2.93885 0.93441,-5.81051 1.53247,-8.65288c-0.45402,-0.1609 -0.77352,-0.43248 -0.99837,-0.73503zM324.82036,94.20419c-0.38541,-0.59209 -0.50973,1.31875 -0.72392,1.99198c-0.28355,0.89126 -0.56096,1.79187 -0.88314,2.67296c1.06761,-0.1962 2.14919,-0.31757 3.22935,-0.35643c-0.19722,-1.43533 -0.68581,-2.86983 -1.62229,-4.30851z" fill="#000000" stroke-width="0.5"/><path d="M346.19959,127.59549l-4.5713,-1.38606c1.76006,-5.28019 2.92948,-10.47155 4.39446,-15.71134c-0.00759,0.00062 -0.01518,0.00126 -0.02276,0.00191c-2.73261,0.23416 -8.77956,-0.64103 -10.76777,-2.73223c-3.27189,-3.44139 -1.85149,-10.69949 -0.60394,-14.55834c0,0 0.79057,-2.37171 3.16228,-1.58114c2.37171,0.79057 1.58114,3.16228 1.58114,3.16228c-0.92621,2.67403 -1.08374,4.96788 -0.90399,7.80897c0.03494,0.55224 -0.11672,1.26869 0.30005,1.63269c1.54525,1.3496 5.4156,0.93592 7.23223,1.26777c0.47001,0.08586 0.9891,1.14354 1.23223,0.73223c0.30132,-0.50974 -0.7465,-1.04239 -0.69995,-1.63269c0.03949,-0.50079 2.21055,-6.54443 2.34109,-6.91387l0.53551,-0.27679l-0.17665,-0.17665l2,-2l0.81365,0.81365l2.26845,-1.17251c0.00839,0.86469 0.0603,1.73145 0.09849,2.59757l0.95889,0.31963l-1,3c-0.52762,4.99126 -4.10587,9.65697 -4.90399,14.60989c-0.15909,0.98726 0.16905,2.01439 0,3c-0.3734,2.17707 -1.2627,4.4644 -2.10333,6.66838c0.65341,1.4489 -0.59662,2.69893 -0.59662,2.69893l-0.35254,-0.10689c-0.01462,0.0433 -0.02913,0.08653 -0.04352,0.1297z" fill="#000000" stroke-width="0.5"/><path d="M350.91987,125.61325c1.38675,-2.08013 3.46688,-0.69338 3.46688,-0.69338l3.19822,2.14677c2.45302,2.90352 4.72888,1.17855 7.1007,-1.19327c1,-0.33333 2.01238,-0.6316 3,-1c0.3087,-0.11515 0.84182,-0.12064 0.88121,-0.44776c0.17955,-1.49138 -2.32368,-2.07222 -2.87658,-3.46891c-0.69949,-1.76699 0.19968,-4.03675 -0.81693,-5.64238c-0.80386,-1.26961 -1.91541,-2.3881 -3.1877,-3.1877c-1.14862,-0.72188 -2.94849,-0.54469 -3.71378,-1.66485c-1.58172,-2.31519 -0.5847,-10.28892 1.26034,-12.22954c0.98496,-1.03599 2.6287,-1.12962 3.9772,-1.60394c6.95778,-2.44733 12.10061,1.36836 15.8707,6.98496c0,0 1.38675,2.08013 -0.69338,3.46688c-2.08013,1.38675 -3.46688,-0.69338 -3.46688,-0.69338c-1.83232,-2.77017 -4.1115,-5.88675 -7.91987,-5.88675c-0.79173,0 -1.451,0.64452 -2.20943,0.87171c-0.65818,0.19716 -1.50532,-0.05591 -2.0228,0.39606c-1.06467,0.92987 -0.11842,2.82658 -0.26777,4.23223c-0.05666,0.53333 -0.84501,1.15296 -0.47189,1.53822c0.53584,0.55328 1.61661,-0.04546 2.28622,0.33515c0.29771,0.16922 4.64069,4.51697 4.8123,4.8123c0.69288,1.19239 1.08879,2.55806 1.34109,3.91387c0.14934,0.80251 -0.46508,1.68742 -0.15802,2.44375c0.3071,0.75644 1.4647,0.90587 1.81693,1.64238c2.66259,5.56749 0.22014,7.76347 -4.8123,9.44095c-2.59975,2.59975 -6.37226,4.59758 -10.27104,3.18307c-1.11028,-0.40282 -1.75218,-1.58423 -2.62826,-2.37634l-2.80178,-1.85323c0,0 -2.08013,-1.38675 -0.69338,-3.46688z" fill="#000000" stroke-width="0.5"/><text transform="translate(47,157) scale(0.5,0.5)" font-size="40" xml:space="preserve" fill="#000000" fill-rule="nonzero" stroke="none" stroke-width="1" stroke-linecap="butt" stroke-linejoin="miter" stroke-miterlimit="10" stroke-dasharray="" stroke-dashoffset="0" font-family="Pixel" font-weight="normal" text-anchor="start" style="mix-blend-mode: normal"><tspan x="0" dy="0">game will start in 3 secs.</tspan><tspan x="0" dy="46.15px">the game ugly ways is about </tspan><tspan x="0" dy="46.15px">a ugly town full of weird questions</tspan><tspan x="0" dy="46.15px">and awnsers. the game will change </tspan><tspan x="0" dy="46.15px">or just end with any awnser you give</tspan></text><text transform="translate(47,293) scale(0.5,0.5)" font-size="40" xml:space="preserve" fill="#000000" fill-rule="nonzero" stroke="none" stroke-width="1" stroke-linecap="butt" stroke-linejoin="miter" stroke-miterlimit="10" stroke-dasharray="" stroke-dashoffset="0" font-family="Pixel" font-weight="normal" text-anchor="start" style="mix-blend-mode: normal"><tspan x="0" dy="0">made by GIH_LOL</tspan></text></g></g></svg>