<svg version="1.1" xmlns="http://www.w3.org/2000/svg" xmlns:xlink="http://www.w3.org/1999/xlink" width="138.68221" height="110.09891" viewBox="0,0,138.68221,110.09891"><g transform="translate(-172.48445,-139.75)"><g data-paper-data="{&quot;isPaintingLayer&quot;:true}" fill-rule="nonzero" stroke="none" stroke-linecap="butt" stroke-linejoin="miter" stroke-miterlimit="10" stroke-dasharray="" stroke-dashoffset="0" style="mix-blend-mode: normal"><path d="M198.97988,160.26286l0.19488,-0.0065l0.18184,-0.07039l1.19752,-0.14969l3.32731,-0.79221l1.79413,-0.48931l0.02733,-0.00058l0.02412,-0.01287l1.33334,-0.33334h0.1019l0.09345,-0.04063l2,-0.33333l0.20828,0.01666l0.20271,-0.05068h0.79309l0.79591,-0.13265l0.20828,0.01666l0.20271,-0.05067h2.83334l0.32395,0.08098l0.33384,0.0071l1.83333,0.5l0.06195,0.03475l0.07083,0.00545l1.5,0.5l0.1518,0.09661l0.17566,0.03903l0.17442,0.08721l0.33145,0.11049l0.21007,0.13368l0.23971,0.06742l1.16666,0.66666l0.03653,0.03501l0.04812,0.01561l1.31406,0.82129l0.81384,0.48831l0.0928,0.0928l0.12096,0.05093l0.34211,0.25659l0.11513,0.03838l0.15181,0.09661l0.17565,0.03903l0.66667,0.33334l0.20193,0.17308l0.24177,0.11082l0.83334,0.66666l0.03424,0.04495l0.05028,0.02578l1.33333,1.16667l0.10367,0.14928l0.14821,0.10518l0.84708,0.98826l0.36057,0.28845l0.04234,0.01693h1.18521l1.25,0.3125l0.04897,0.08571l0.09857,0.00548l0.35191,0.41056l0.02285,0.01454l0.34746,0.13688l1.06374,0.75981l1.05685,0.60392l0.01974,0.01891l0.02615,0.00796l1.58434,0.9506l1.87919,0.9396l1.82606,0.8428l0.6685,0.11141l0.34248,0.14891l0.31732,0.07052l0.28268,0.00942l0.98127,0.28036l1.11139,0.13893l1.63596,0.1636l0.07879,0.02828l0.08345,-0.00668l1.98459,0.33076l1.96227,0.30189h6.23077l2.48956,-0.1556l0.89922,-0.12846l1.00247,-0.28642l0.07624,-0.00254l0.06823,-0.03411l1.5,-0.33334l0.19262,0.00507l0.18341,-0.05907l2.42791,-0.16186l2.59497,-0.32437l0.10003,0.01212l0.09654,-0.02885l3.66101,-0.16641l3.32767,-0.16638l0.06277,0.0124l0.06207,-0.01552h6.83333l0.13657,0.03414l0.1395,-0.01886l1.5,0.16666l0.03759,0.01397l0.03988,-0.00412l2.33333,0.33333l0.16028,0.0653l0.17298,0.00576l1.00247,0.28642l0.99761,0.14252l0.37217,0.15163l0.39231,0.08717l0.42121,0.21061l0.40043,0.10011l0.24293,0.12956l0.26876,0.05972l0.17442,0.08721l0.77992,0.25998l1.11444,0.31841l0.13926,0.08034l0.15873,0.0256l1.16667,0.5l0.11568,0.08792l0.13987,0.03934l1.16666,0.66666l0.01974,0.01892l0.02616,0.00796l1.58433,0.9506l1.24746,0.62373l0.11994,0.10281l0.14877,0.05313l0.3705,0.247l0.03521,0.0176l0.33145,0.11049l0.15181,0.09661l0.17566,0.03903l0.66667,0.33334l0.11994,0.10281l0.14877,0.05313l2,1.33333l0.04778,0.05256l0.06547,0.02757l0.56349,0.42262l0.72275,0.43365l0.21762,0.21762l0.26391,0.15834l0.66667,0.66666l0.20676,0.34461l0.26154,0.30513l0.09706,0.19412l0.44302,0.66452l0.32495,0.32496l0.05947,0.09911l0.09332,0.0682l0.83333,1l0.08968,0.18578l0.1446,0.14713l1.66666,2.83334l0.11327,0.38415l0.1764,0.35957l0.48239,2.25116l0.31025,1.08586l0.00576,0.17297l0.06529,0.16028l0.14843,1.03899l0.30205,1.20822v0.1533l0.05534,0.14296l0.16034,1.28273l0.12604,0.75621l0.2713,0.81391l0.03082,0.4007l0.09747,0.38987v0.52557l0.09202,0.36809v0.30776l0.07464,0.29857v4.83334l-0.04364,0.17457l0.01852,0.17899l-0.16357,1.14496l-0.16395,1.31157l-0.07039,0.18184l-0.0065,0.19488l-0.23714,0.83v2.31653l-0.03832,0.15326l0.01901,0.15683l-0.31403,2.51223v0.84436l-0.05068,0.20271l0.01666,0.20829l-0.16667,1l-0.0165,0.03795l0.00197,0.04134l-0.16667,0.83334l-0.02609,0.05509v0.06096l-0.09202,0.36809v2.02557l-0.06039,0.24157l0.01184,0.24872l-0.11812,0.59059v0.41912l-0.09747,0.38987l-0.03082,0.4007l-0.33334,1l-0.04036,0.06342l-0.01015,0.07449l-0.61918,1.54794l-0.2982,1.04371l-0.11696,0.20274l-0.05077,0.22849l-0.66667,1.33334l-0.14789,0.17254l-0.08818,0.20943l-1,1.33334l-0.09733,0.07907l-0.05979,0.11024l-1.83334,2l-0.18264,0.12067l-0.13596,0.17158l-4.33333,3.33333l-0.01439,0.00627l-0.00989,0.01217l-1.93485,1.45114l-1.10483,0.947l-0.27527,0.13764l-0.23368,0.20029l-0.91413,0.45706l-1.58433,0.9506l-0.09378,0.02854l-0.07442,0.06379l-0.46504,0.23252l-1.12175,0.84132l-0.80284,0.64227l-0.10057,0.0461l-0.07442,0.08185l-0.29402,0.19602l-0.82495,0.82495l-0.1543,0.09258l-0.11347,0.13966l-0.66667,0.5l-0.03877,0.01632l-0.02758,0.03176l-1.48734,1.04113l-0.34522,0.34522l-0.42292,0.25375l-0.09485,0.16598l-0.31164,0.07791l-0.27545,0.16527l-0.18443,-0.0503l-0.18904,0.04726l-0.3322,0.11074l-0.22657,0.01743l-0.21045,0.08573l-1.07162,0.15309l-1.40627,0.3125l-0.04976,-0.00131l-0.04535,0.02052l-1.5554,0.2828l-0.90702,0.38872l-0.19984,0.03223l-0.17862,0.09527l-0.10954,0.02738l-0.26592,0.31024l-0.12453,0.00692l-0.15498,0.13284l-1,0.5l-0.07338,0.01631l-0.05985,0.04548l-1.16666,0.5l-0.14243,0.02298l-0.124,0.07373l-1.6304,0.48911l-1.46407,0.48802l-0.22657,0.01743l-0.21044,0.08573l-0.6053,0.08648l-0.02818,0.01878l-0.09472,0.03383l-0.04202,0.07354l-0.54633,0.13658l-0.53033,0.18941l-0.07576,-0.03788l-0.09758,0.02439h-0.15299l-0.12306,0.02734l-0.55728,0.13932h-0.06966l-0.07009,0.01558l-0.02337,-0.01558h-0.12998l-0.79591,0.13265l-0.20828,-0.01666l-0.20271,0.05067h-0.67769l-1.17889,0.14737l-0.0175,-0.00212l-0.01651,0.00614l-1.48298,0.16477l-1.31635,0.16454l-0.15683,-0.01901l-0.15326,0.03831h-0.58578l-0.5906,0.11812l-0.24872,-0.01184l-0.24157,0.06039h-1.33688l-0.02337,0.01557l-0.07009,-0.01557h-0.06966l-0.55728,-0.13932l-0.56075,-0.12462l-0.06231,-0.03115l-0.06966,-0.01741l-0.01393,-0.02438l-0.02853,-0.01426l-0.33145,-0.11048l-0.15181,-0.09661l-0.17566,-0.03903l-0.17442,-0.08721l-0.1767,-0.0589l-0.02709,0.00738l-0.06157,-0.03694l-0.06608,-0.02203l-0.48462,-0.3084l-0.2905,-0.17431l-0.22487,-0.01729l-1.40892,-0.46964l-0.47666,-0.11917l-0.90152,-0.15025l-0.24874,-0.10815l-0.26874,-0.03664l-0.76512,-0.30605l-0.93031,-0.3101l-0.28171,-0.17927l-0.31447,-0.11231l-0.13969,-0.09313l-0.24656,-0.06164l-0.15174,-0.08093l-0.1704,-0.02323l-0.76512,-0.30605l-0.93031,-0.3101l-0.0895,-0.05696l-0.10473,-0.01689l-2.28033,-0.97729l-1.27935,-0.47975l-0.1099,-0.07579l-0.13032,-0.02896l-0.50776,-0.25388l-0.83145,-0.27715l-0.1518,-0.09661l-0.17566,-0.03903l-2,-1l-0.07443,-0.06379l-0.09378,-0.02854l-0.66156,-0.39694l-0.64734,-0.25894l-0.26746,-0.19316l-0.30407,-0.12803l-0.48632,-0.36474l-0.13171,-0.06585l-0.11995,-0.10281l-0.14877,-0.05313l-0.3705,-0.247l-0.52745,-0.26372l-0.07443,-0.06379l-0.09378,-0.02854l-0.83334,-0.5l-0.0431,-0.0431l-0.05741,-0.0205l-1.92835,-1.28557l-1.09191,-0.62394l-0.09295,-0.08909l-0.11979,-0.04719l-0.94676,-0.67626l-0.91827,-0.39355l-0.05985,-0.04548l-0.07339,-0.01631l-0.33333,-0.16666l-0.17253,-0.14789l-0.20944,-0.08819l-0.61115,-0.45836l-0.31276,-0.20851l-1.19412,-0.59706l-0.30513,-0.26154l-0.11044,-0.06626l-0.02294,-0.00574l-0.4007,-0.03082l-0.5,-0.16666l-0.15181,-0.09661l-0.17565,-0.03903l-0.22897,-0.11449l-0.20954,-0.05238l-0.40069,-0.03082l-1,-0.33334l-0.06342,-0.04036l-0.07449,-0.01015l-0.6758,-0.27032l-0.50206,-0.12552l-0.24293,-0.12957l-0.26876,-0.05972l-0.57366,-0.28683l-0.73678,-0.29471l-0.086,-0.06212l-0.10356,-0.02301l-0.66667,-0.33334l-0.27541,-0.23606h-0.29879l-0.36809,0.09202h-0.30776l-0.29857,0.07465h-0.41912l-0.53226,0.10645l-0.60895,0.15224h-0.30776l-0.29857,0.07465h-3.66667l-0.24157,-0.06039l-0.24872,0.01184l-0.83333,-0.16666l-0.05509,-0.02609h-0.06096l-0.36809,-0.09203h-1.38447l-0.36809,0.09203h-0.06096l-0.05509,0.02609l-0.775,0.155l-0.60895,0.15223h-0.10189l-0.09345,0.04063l-2,0.33334l-0.20829,-0.01666l-0.20271,0.05068h-6.5l-0.24157,-0.06039l-0.24872,0.01184l-0.59059,-0.11812h-2.08578l-0.29857,-0.07464h-0.30777l-0.36809,-0.09203h-0.69224l-0.20271,-0.05068l-0.20828,0.01666l-1,-0.16666l-0.22406,-0.09742l-0.24275,-0.02774l-1.07851,-0.40444l-0.89724,-0.12818l-0.37217,-0.15162l-0.39231,-0.08718l-0.84109,-0.42055l-0.6767,-0.22556l-0.02709,0.00739l-0.06157,-0.03695l-0.06609,-0.02203l-0.3222,-0.20504h-1.72055l-0.38988,-0.09747l-0.40069,-0.03082l-0.83221,-0.27741l-0.10043,-0.02511l-0.4007,-0.03082l-0.5,-0.16666l-0.28171,-0.17928l-0.31447,-0.11231l-0.22143,-0.14762l-0.18239,-0.06079l-0.15181,-0.09661l-0.17565,-0.03903l-0.66666,-0.33334l-0.15498,-0.13284l-0.12454,-0.00692l-0.32251,-0.37626l-0.09798,-0.08398l-0.13333,-0.06667l-0.15498,-0.13284l-0.12453,-0.00691l-0.32251,-0.37627l-0.37627,-0.32251l-0.00185,-0.0333l-0.12275,-0.13503l-0.21352,-0.12811l-0.21313,-0.21313l-0.3038,-0.1519l-0.15497,-0.13284l-0.12454,-0.00691l-0.32251,-0.37627l-0.37626,-0.32251l-0.00692,-0.12453l-0.13284,-0.15498l-0.21489,-0.42978l-0.41472,-0.51839l-0.28675,-0.28675l-0.02754,-0.00551l-0.03855,-0.06058l-0.04926,-0.04926l-0.29555,-0.49257l-0.30839,-0.48462l-0.02203,-0.06609l-0.08079,-0.13465l-0.26154,-0.30513l-0.04613,-0.09226l-0.15223,-0.09134l-0.33334,-0.33334l-0.1977,-0.3295l-0.63084,-0.54073l-0.00548,-0.09856l-0.08571,-0.04898l-0.18408,-0.73632l-0.03116,-0.06231l-0.12461,-0.56075l-0.13932,-0.55728v-0.06966l-0.01558,-0.0701l0.01558,-0.02336v-1.84043l-0.01558,-0.02336l0.01558,-0.0701v-0.06966l0.13932,-0.55728l0.02734,-0.12306v-0.48987l-0.01557,-0.02336l0.01557,-0.0701v-0.06966l0.13932,-0.55729l0.02735,-0.12305v-0.48633l0.07464,-0.29857v-0.30776l0.33334,-1.33334l0.12957,-0.24293l0.05972,-0.26876l0.03115,-0.06231l0.01091,-0.04361l0.02734,-0.12306v-0.15299l0.09747,-0.38988l0.03082,-0.40069l0.16667,-0.5l0.09661,-0.15181l0.03903,-0.17565l0.0694,-0.13881v-0.24671l-0.01558,-0.02336l0.01558,-0.0701v-0.06966l0.13932,-0.55728l0.02734,-0.12306v-5.09281l-0.19261,-0.12841l-0.03826,-0.00213l-0.42088,-0.49104l-0.43504,-0.47854l0.00263,-0.03823l-0.07895,-0.1579l-0.02438,-0.01393l-0.01741,-0.06966l-0.03115,-0.06231l-0.12462,-0.56075l-0.13932,-0.55728v-0.06966l-0.01557,-0.0701l0.01557,-0.02336v-0.67022l0.07465,-0.29857v-0.30776l0.09203,-0.36809v-0.3589l0.09747,-0.38987l0.03082,-0.4007l0.03838,-0.11512v-0.09431l0.11962,-0.47848l-0.0503,-0.18443l0.16527,-0.27545l0.07791,-0.31164l0.16598,-0.09484l0.02007,-0.03345l-0.26153,-0.22416l-0.00692,-0.12454l-0.00143,-0.00168l-0.82498,-0.70712l-0.00547,-0.09857l-0.08571,-0.04897l-0.3125,-1.25v-1.50355l-0.01558,-0.02336l0.01558,-0.0701v-0.06966l0.13932,-0.55728l0.02734,-0.12306v-0.32321l-0.01557,-0.02336l0.01557,-0.0701v-0.06966l0.13932,-0.55728l0.12462,-0.56076l0.03115,-0.06231l0.01741,-0.06966l0.02438,-0.01393l0.2082,-0.41641l0.02956,-0.11823v-0.30776l0.09203,-0.36809v-0.19223l0.09747,-0.38988l0.03082,-0.40069l0.16666,-0.5l0.09661,-0.15181l0.03903,-0.17565l0.58721,-1.17442l0.11049,-0.33145l0.09661,-0.15181l0.03903,-0.17565l0.68591,-1.37183l-0.04719,-0.17305l0.16527,-0.27545l0.07791,-0.31163l0.16598,-0.09484l0.12778,-0.21297l0.18869,-0.56609l0.09661,-0.1518l0.03903,-0.17566l0.08721,-0.17442l0.0589,-0.1767l-0.00739,-0.02709l0.03695,-0.06157l0.02203,-0.06608l0.30839,-0.48462l0.29555,-0.49258l0.04647,-0.04646l0.1519,-0.3038l0.26154,-0.30513l0.20676,-0.34461l0.04647,-0.04646l0.31857,-0.63714l0.26154,-0.30513l0.20676,-0.34461l0.12029,-0.12029l0.01422,-0.01658l0.05313,-0.14877l0.247,-0.3705l0.26372,-0.52745l0.13284,-0.15497l0.00692,-0.12454l0.37626,-0.32251l0.06053,-0.07062l0.0526,-0.08267l0.0106,-0.19087l0.2439,-0.20906l0.17246,-0.27101l0.08186,-0.01638l0.02869,-0.05739l0.26154,-0.30513l0.20676,-0.34461l0.12029,-0.12029l0.04424,-0.05162l0.00691,-0.12453l0.37627,-0.32251l0.12177,-0.14207l0.00196,-0.03542l0.10703,-0.09175l0.09175,-0.10703l0.03542,-0.00196l0.14207,-0.12177l0.08398,-0.09799l0.06667,-0.13333l0.13284,-0.15497l0.00692,-0.12454l0.37626,-0.32251l0.32251,-0.37626l0.07474,-0.00415l0.00437,-0.00481l0.42089,-0.49103l0.03826,-0.00213l0.0943,-0.06287l0.16387,-0.27312l0.01503,-0.01503l-0.00073,-0.0106l0.43504,-0.47854l0.42088,-0.49104l0.03826,-0.00213l0.24831,-0.16554l0.00774,-0.00903l0.00692,-0.12454l0.37626,-0.32251l0.32251,-0.37626l0.12454,-0.00692l0.05161,-0.04424l0.12029,-0.12029l0.34461,-0.20676l0.20177,-0.17295l0.45363,-0.45362l0.1699,-0.10195l0.00154,-0.02783l0.37627,-0.32251l0.32251,-0.37627l0.12453,-0.00691l0.15498,-0.13284l0.3038,-0.1519l0.04647,-0.04647l0.34461,-0.20676l0.20177,-0.17295l0.00495,-0.00494l0.00551,-0.02754l0.06058,-0.03855l0.04925,-0.04926l0.49257,-0.29554l0.48462,-0.3084l0.06609,-0.02203l0.06157,-0.03694l0.02709,0.00738l0.53634,-0.17878l0.01057,-0.00634l0.01236,-0.04394l0.35214,-0.18782l-0.1245,-0.18675l0.27951,-1.25779l0.16666,-0.33333l0.13284,-0.15498l0.00691,-0.12454l0.37627,-0.32251l0.32251,-0.37626l0.12453,-0.00692l0.05162,-0.04424l0.12029,-0.12029l0.34461,-0.20676l0.30513,-0.26154l0.3038,-0.1519l0.04646,-0.04647l0.34461,-0.20676l0.30513,-0.26154l1.66667,-0.83334l0.26876,-0.05972l0.24293,-0.12957l0.66667,-0.16666h0.10189l0.09345,-0.04063l0.86034,-0.14339z" fill="#731121" stroke-width="0.5"/><text transform="translate(191.66668,211.08334) scale(0.78169,0.78169)" font-size="40" xml:space="preserve" fill="#f02446" fill-rule="nonzero" stroke="none" stroke-width="1" stroke-linecap="butt" stroke-linejoin="miter" stroke-miterlimit="10" stroke-dasharray="" stroke-dashoffset="0" font-family="Pixel" font-weight="normal" text-anchor="start" style="mix-blend-mode: normal"><tspan x="0" dy="0">sound</tspan></text><path d="M183.83334,175.33334c0,-1.38071 1.11929,-2.5 2.5,-2.5c1.38071,0 2.5,1.11929 2.5,2.5c0,1.38071 -1.11929,2.5 -2.5,2.5c-1.38071,0 -2.5,-1.11929 -2.5,-2.5z" fill="#f02446" stroke-width="0.5"/><path d="M194.50001,165.33334c0,-1.38071 1.11929,-2.5 2.5,-2.5c1.38071,0 2.5,1.11929 2.5,2.5c0,1.38071 -1.11929,2.5 -2.5,2.5c-1.38071,0 -2.5,-1.11929 -2.5,-2.5z" fill="#f02446" stroke-width="0.5"/><path d="M196.50001,178c0,-1.38071 1.11929,-2.5 2.5,-2.5c1.38071,0 2.5,1.11929 2.5,2.5c0,1.38071 -1.11929,2.5 -2.5,2.5c-1.38071,0 -2.5,-1.11929 -2.5,-2.5z" fill="#f02446" stroke-width="0.5"/><path d="M299.40382,220.3132c0.6868,2.40381 -1.71701,3.09061 -1.71701,3.09061l-2.03534,0.56072c-4.45612,1.72624 -5.29168,8.13364 -9.04551,11.28476c-5.40575,4.53782 -14.40639,7.31359 -21.29587,8.2314c0,0 -2.4807,0.31008 -2.79078,-2.17061c-0.31009,-2.48069 2.17061,-2.79078 2.17061,-2.79078c5.91009,-0.6758 14.03314,-3.24752 18.70413,-7.10193c3.50097,-2.88895 3.93315,-8.03137 7.44535,-10.75523c0.82257,-0.63794 1.89498,-0.86222 2.84247,-1.29333l2.63133,-0.77262c0,0 2.40381,-0.6868 3.09062,1.71701z" fill="#f02446" stroke-width="0.5"/><path d="M278.42537,219.727c0.60634,2.42535 -1.81902,3.0317 -1.81902,3.0317l-2.47489,0.61049c-0.45456,0.13287 -1.00671,0.08738 -1.36368,0.39858c-1.03129,0.89909 0.1534,2.83973 -0.41708,4.0833c-2.39634,5.22366 -8.1127,4.33936 -12.62369,3.24096c0,0 -2.42536,-0.60634 -1.81902,-3.0317c0.60634,-2.42535 3.03169,-1.81902 3.03169,-1.81902c1.75782,0.4538 4.34904,1.15995 6.19465,0.56498c1.03184,-0.33264 0.41611,-2.97328 0.41674,-2.97562c0.34216,-1.27895 0.76505,-2.64266 1.68118,-3.59843c0.84668,-0.88333 2.20198,-1.06761 3.30298,-1.60142l2.85845,-0.72285c0,0 2.42536,-0.60634 3.0317,1.81902z" fill="#f02446" stroke-width="0.5"/><path d="M238.90275,229.7847c-1.11803,2.23607 -3.3541,1.11804 -3.3541,1.11804l-1.2001,-0.60487c-2.35983,-1.01136 -4.83283,-1.91391 -7.12959,-3.05998c-2.50069,-1.24784 -5.34871,-3.14312 -8.36788,-2.22054c-1.39013,0.42479 -2.05643,2.05494 -3.0833,3.08375c0,0 -1.76776,1.76776 -3.53553,0c-1.76776,-1.76776 0,-3.53554 0,-3.53554c1.00958,-1.00781 3.62763,-3.80215 4.9167,-4.24957c6.39031,-2.21803 13.55759,2.98117 19.1692,5.38614l1.46657,0.72846c0,0 2.23607,1.11803 1.11804,3.3541z" fill="#f02446" stroke-width="0.5"/><path d="M269.90275,176.2153c1.11804,2.23607 -1.11804,3.3541 -1.11804,3.3541l-0.7999,0.39513c-5.16006,2.21146 -10.89741,4.94803 -16.62647,3.45172c-1.72512,-0.45057 -3.23078,-1.57533 -4.96467,-1.99089c0,0 -2.42535,-0.60634 -1.81902,-3.03169c0.60634,-2.42535 3.03169,-1.81902 3.03169,-1.81902c1.74979,0.45158 3.29253,1.53127 5.03533,2.00911c4.40518,1.20779 9.38821,-1.50695 13.37353,-3.21494l0.53343,-0.27154c0,0 2.23606,-1.11803 3.3541,1.11804z" fill="#f02446" stroke-width="0.5"/><path d="M183.2539,215.06621c1.60046,1.92056 -0.32009,3.52102 -0.32009,3.52102l-2,1.66666c0,0 -1.92056,1.60047 -3.52102,-0.32009c-1.60046,-1.92056 0.32009,-3.52102 0.32009,-3.52102l2,-1.66666c0,0 1.92056,-1.60047 3.52102,0.32009z" fill="#f02446" stroke-width="0.5"/><path d="M189.7201,217.58654c2.08013,1.38675 0.69337,3.46687 0.69337,3.46687l-1.14633,1.53381c-0.66666,0.55555 -1.33334,1.11111 -2,1.66666c0,0 -1.92056,1.60047 -3.52102,-0.32009c-1.60046,-1.92056 0.32009,-3.52102 0.32009,-3.52102c0.66666,-0.55555 1.33334,-1.11111 2,-1.66666l0.187,-0.4662c0,0 1.38675,-2.08012 3.46688,-0.69337z" fill="#f02446" stroke-width="0.5"/><path d="M206.79933,216.58901c0.411,2.46598 -2.05499,2.87698 -2.05499,2.87698l-1.4262,0.16521c-3.47258,1.43903 -3.74755,3.47206 -6.06424,6.3026c0,0 -1.60046,1.92055 -3.52102,0.32009c-1.92056,-1.60046 -0.32009,-3.52102 -0.32009,-3.52102c1.07179,-1.256 1.55696,-2.93293 2.58269,-4.22681c1.73181,-2.18454 3.00581,-2.43941 5.35306,-3.47059l2.5738,-0.50145c0,0 2.46599,-0.411 2.87698,2.05499z" fill="#f02446" stroke-width="0.5"/><path d="M299.29787,204.65147c-0.9848,2.29787 -3.28267,1.31306 -3.28267,1.31306l-3.25185,-1.67694c-0.41977,-1.47658 -1.23889,-2.8948 -1.25931,-4.42975c-0.03085,-2.3193 2.14808,-6.09178 2.73726,-8.46417c0,0 0.60634,-2.42535 3.0317,-1.81902c2.42536,0.60634 1.81902,3.03169 1.81902,3.03169c-0.63362,2.51947 -2.72877,5.916 -2.52204,8.4394l1.41482,0.32307c0,0 2.29787,0.98479 1.31306,3.28266z" fill="#f02446" stroke-width="0.5"/><text transform="translate(233.00001,165) scale(0.5,0.5)" font-size="40" xml:space="preserve" fill="#f02446" fill-rule="nonzero" stroke="none" stroke-width="1" stroke-linecap="butt" stroke-linejoin="miter" stroke-miterlimit="10" stroke-dasharray="" stroke-dashoffset="0" font-family="Pixel" font-weight="normal" text-anchor="start" style="mix-blend-mode: normal"><tspan x="0" dy="0">&gt;off&lt;</tspan></text></g></g></svg>