<svg version="1.1" xmlns="http://www.w3.org/2000/svg" xmlns:xlink="http://www.w3.org/1999/xlink" width="144.9079" height="85.24312" viewBox="0,0,144.9079,85.24312"><g transform="translate(-52.69131,-242.57607)"><g data-paper-data="{&quot;isPaintingLayer&quot;:true}" fill-rule="nonzero" stroke="none" stroke-linecap="butt" stroke-linejoin="miter" stroke-miterlimit="10" stroke-dasharray="" stroke-dashoffset="0" style="mix-blend-mode: normal"><path d="M131,309.5c-3.31699,0 -7.0321,0.38277 -10.30546,-0.01873c-1.36415,-0.16732 -2.64016,-0.80068 -4,-1c-5.94512,-0.87142 -12.66643,0.01873 -18.69454,0.01873c-2.70204,0 -7.46573,0.74599 -9.95671,-0.1903c-1.00256,-0.37683 -1.43683,-1.63601 -2.35762,-2.18307c-0.90622,-0.5384 -2.11859,-0.42188 -3,-1c-3.40977,-2.23648 -3.87312,-5.78328 -5.05738,-9.33606c-2.09047,-6.2714 -3.12829,-12.17997 -3.12829,-18.79057c0,-3.46892 -0.57009,-7.167 1.37337,-10.31433c1.21735,-1.97143 3.80881,-2.64845 5.8123,-3.8123c1.53601,-0.89228 2.46831,-2.55563 3.72936,-3.80673c1.28684,-0.81979 2.42163,-1.9518 3.86051,-2.45937c1.04516,-0.36868 2.23139,0.11074 3.324,-0.07499c1.03919,-0.17665 1.95936,-0.83216 3,-1c3.29385,-0.53124 7.05943,-0.03228 10.40046,-0.03228c5,0 10,0 15,0c2.97392,0 6.47128,-0.44014 9.40046,0.03228c3.03476,0.48945 5.96901,1.47618 9,2c5.09899,0.88121 9.93126,-0.68958 15,1c2.97306,0 6.09725,0.50213 9,1c2.07784,0.35638 3.9224,1.64217 6,2c1.16937,0.2014 2.46382,-0.30521 3.55625,0.15802c0.43833,0.18587 4.82195,4.4304 5.16992,4.99537c0.55279,0.89751 0.45767,2.09612 1,3c0.48507,0.80845 1.51493,1.19155 2,2c0.54233,0.90388 0.47052,2.08854 1,3c1.01138,1.74104 3.42931,2.49055 4.18307,4.35762c0.49431,1.22441 0.15419,2.63677 0.1903,3.95671c0.07954,2.90784 0.44279,6.54126 -0.03228,9.40046c-0.14318,0.86171 -2.32798,6.96913 -2.69995,7.36731c-0.78991,0.84556 -2.3483,0.49419 -3.25028,1.219c-0.93685,0.75283 -1.33333,2 -2,3c-1.06772,0.37995 -2.23031,0.55852 -3.20316,1.13986c-0.9194,0.5494 -1.36177,1.78885 -2.35762,2.18307c-1.10329,0.43675 -2.38775,-0.04837 -3.55625,0.15802c-4.18937,0.73996 -8.07444,1.99121 -12.40046,2.03228c-8,0 -18,0 -26,0z" fill="#360d13" stroke-width="0.5"/><text transform="translate(105.60592,294.97557) scale(0.82,0.82)" font-size="40" xml:space="preserve" fill="#ff3d5a" fill-rule="nonzero" stroke="none" stroke-width="1" stroke-linecap="butt" stroke-linejoin="miter" stroke-miterlimit="10" stroke-dasharray="" stroke-dashoffset="0" font-family="Pixel" font-weight="normal" text-anchor="start" style="mix-blend-mode: normal"><tspan x="0" dy="0">idk</tspan></text><path d="M78.76886,259.48113c-1.46123,1.56543 -2.76566,2.15336 -3.91539,2.06103c-2.10364,-0.16892 -3.6894,-2.61513 -4.77019,-5.51777c-0.48705,-1.30805 -1.83468,-3.99111 -0.59255,-5.23324c1.66667,-1.66667 2.70833,-1.66667 4.375,0c0.81346,0.81346 0.51642,3.30632 1.44965,4.44467c0.3025,0.369 3.02404,2.38422 3.05191,2.88587z" fill="#4a0b15" stroke-width="0.5"/><path d="M89.07241,255.9814c-0.08983,0.00421 -0.18669,-0.00273 -0.28975,-0.02c-0.64396,-0.03811 -1.22234,-0.31997 -1.64417,-0.75461c-2.41718,-1.57421 -5.59518,-5.12183 -5.47033,-6.62964c0.46297,-5.59142 7.75264,0.90798 8.73027,2.86323c0.2213,0.16043 0.41527,0.35623 0.57363,0.57911c0.45147,0.38697 0.56088,0.90468 0.46059,1.43794c0.00001,0.0028 0.00001,0.00559 0.00001,0.00839c0,1.24236 -0.90621,2.27306 -2.09367,2.46715c-0.09241,0.02787 -0.18179,0.04446 -0.26657,0.04843z" fill="#4a0b15" stroke-width="0.5"/><path d="M109.25604,244.30654c4.45999,-2.23 4.29935,2.90502 3.73507,5.51753c-0.15855,0.73405 -0.33533,1.67407 -0.72188,2.44585c-0.09326,0.20838 -0.21422,0.40165 -0.35818,0.57515c-0.15134,0.19359 -0.32546,0.36378 -0.5273,0.5009c-0.12467,0.0847 -0.27179,0.15546 -0.43469,0.21154c-0.29635,0.12378 -0.62162,0.19215 -0.96285,0.19215c-0.22761,0 -0.44812,-0.03042 -0.65769,-0.08741c-1.13115,-0.19118 -2.15682,-0.92764 -1.84146,-2.34675c-0.00057,-0.02188 -0.00085,-0.04382 -0.00085,-0.06584c0,-0.29394 0.05073,-0.57603 0.14391,-0.83799c0.27385,-1.91776 0.6306,-5.60747 1.62592,-6.10513z" fill="#4a0b15" stroke-width="0.5"/><path d="M93.85706,245.2529c0.14769,-1.58818 2.48101,-2.68941 3.91312,-1.95656c1.17602,0.60181 3.89257,7.29471 2.18167,8.27237c-0.43488,0.73685 -1.23698,1.23117 -2.15454,1.23117c-1.38071,0 -2.5,-1.11929 -2.5,-2.5c0,-0.08452 0.00419,-0.16806 0.01239,-0.25042c-0.92353,-1.5278 -1.58624,-3.35982 -1.45264,-4.79656z" fill="#4a0b15" stroke-width="0.5"/><path d="M126.92404,253.90796c-1.02606,-0.58632 -1.85773,-1.789 -2.40061,-3.20023c-1.32505,-3.44456 -0.92962,-8.13166 2.55891,-8.13166c3.57907,0 3.21771,9.40275 1.99624,10.10073z" fill="#4a0b15" stroke-width="0.5"/><path d="M76.14332,266.60451c0,-0.50129 0.14754,-0.96812 0.40157,-1.35944l0.00212,-0.03811l0.05692,-0.04879c0.24707,-0.34774 0.58084,-0.62957 0.9698,-0.81396l0.90134,-0.45067l0.10356,-0.02301l0.086,-0.06211l0.69494,-0.27798l0.54018,-0.27009l0.17566,-0.03903l0.15181,-0.09661l0.30634,-0.10211l1.56902,-0.78451l0.03708,-0.1483l0.12461,-0.56075l0.03115,-0.06231l0.01742,-0.06966l0.02438,-0.01393l0.40194,-0.80389l0.83853,-0.97828l0.09857,-0.00548l0.04898,-0.08571l1.25,-0.3125l0.30711,0l0.0854,-0.01898l0.01013,-0.00253l0.06231,-0.03115l0.56075,-0.12461l0.01013,-0.00253l0.06231,-0.03115l0.56075,-0.12461l0.01013,-0.00253l0.233,-0.1165l0.01393,-0.02438l0.06966,-0.01742l0.06231,-0.03115l0.56075,-0.12461l0.01013,-0.00253l0.233,-0.1165l0.01393,-0.02438l0.06966,-0.01742l0.06231,-0.03115l0.42612,-0.09469l0.36738,-0.20993l0.34091,-0.59659l0.35428,-0.08857l0.3831,-0.18147l0.48289,-0.28973l0.08172,0.02229l0.0909,-0.04306l0.46319,-0.09264l0.01714,-0.00857l0.56075,-0.12461l0.20088,-0.05022l0.35731,-0.1191l0.40069,-0.03082l0.38988,-0.09747l0.59929,0l0.06103,-0.07121l0.09857,-0.00548l0.04898,-0.08571l1.25,-0.3125l0.30711,0l0.0854,-0.01898l0.55728,-0.13932h0.06966l0.07009,-0.01558l0.02336,0.01558h0.38683l2.2914,-0.15276l0.08374,0.0151l0.08255,-0.02064h0.0692l0.09002,-0.03001l0.40069,-0.03082l0.38988,-0.09747l0.38579,0l0.09002,-0.03001l0.40069,-0.03082l0.38988,-0.09747h5.53559l0.02336,-0.01558l0.07009,0.01558h0.06966l0.55728,0.13932l0.0854,0.01898l4.72995,0l0.0854,-0.01898l0.55728,-0.13932h0.06966l0.07009,-0.01558l0.02336,0.01558h2.21134l0.38988,0.09747l0.40069,0.03082l0.09002,0.03001h0.0692l0.29857,0.07464h0.30776l0.33461,0.08365h0.16713l0.24157,0.06039l0.24872,-0.01184l0.79149,0.1583l0.14277,0.06763l0.15751,0.01212l0.17063,0.05688l1.9714,0.13143l2.14175,0l0.33461,-0.08365h0.30776l0.29857,-0.07464l0.48372,0l0.33461,-0.08365h0.30776l0.29857,-0.07464h2.52327l0.0854,-0.01898l0.55728,-0.13932h0.06966l0.07009,-0.01558l0.02336,0.01558h6.79715l0.02336,-0.01558l0.07009,0.01558h0.06966l0.55728,0.13932l0.56075,0.12461l0.06231,0.03115l0.06966,0.01742l0.01393,0.02438l0.70278,0.35139c-0.31957,-0.41995 -0.50928,-0.94408 -0.50928,-1.51252c0,-0.85817 0.43239,-1.61534 1.0912,-2.06555c2.54862,-3.89729 8.61091,-10.33226 10.60996,-6.33417l0,0.00001c1.24137,2.48273 -5.25807,7.85376 -6.78825,9.63896c-0.20936,0.24425 -0.69092,0.68205 -1.20575,0.99441l0.54406,0.1209l0.06231,0.03115l0.06966,0.01742l0.00234,0.00409h0.01404l0.55728,0.13932l0.0854,0.01898h0.30711l0.38988,0.09747l0.40069,0.03082l0.09002,0.03001h0.53927l0.02336,-0.01558l0.07009,0.01558h0.06966l0.55728,0.13932l0.56075,0.12461l0.06231,0.03115l0.01013,0.00253l0.0854,0.01898h0.61888l0.02336,-0.01558l0.07009,0.01558h0.06966l0.55728,0.13932l0.55483,0.1233l0.31165,0.02397l0.35731,0.1191l0.20088,0.05022l0.0854,0.01898h0.14399l0.02336,-0.01558l0.07009,0.01558h0.06966l0.55728,0.13932l0.56075,0.12461l0.06231,0.03115l0.06966,0.01742l0.00234,0.00409h0.01404l0.55728,0.13932l0.0854,0.01898h0.14881l0.38988,0.09747l0.40069,0.03082l0.09002,0.03001h0.06438l0.02336,-0.01558l0.07009,0.01558h0.06966l0.55728,0.13932l0.56075,0.12461l0.06231,0.03115l0.06966,0.01742l0.00234,0.00409h1.43872l0.1876,0.0469l0.19255,-0.01783l2.05787,0.31659l0.30768,0.12923h0.09884l0.02336,-0.01558l0.07009,0.01558h0.06966l0.55728,0.13932l0.0854,0.01898h2.67208l0.0854,-0.01898l0.55728,-0.13932h0.06966l0.07009,-0.01558l0.02336,0.01558h1.57333l0.02336,-0.01558l0.07009,0.01558h0.06966l0.55728,0.13932l0.0854,0.01898h0.30711l0.38988,0.09747l0.40069,0.03082l0.09002,0.03001h0.70239l0.29857,0.07464h0.30776l0.33461,0.08365h1.27039l0.02336,-0.01558l0.07009,0.01558h0.06966l0.55728,0.13932l0.56075,0.12461l0.06231,0.03115l0.06966,0.01742l0.01393,0.02438l0.18655,0.09327l0.16222,-0.04424l0.27545,0.16527l0.31164,0.07791l0.09485,0.16598l0.42292,0.25375l0.1454,0.1454l0.14319,0.12273l0.34461,0.20676l0.13949,0.13949l0.12348,0.00686l0.32251,0.37626l0.22643,0.19408l0.20721,0.12433l0.60962,0.30481l0.01013,0.00253l0.56075,0.12461l0.06231,0.03115l0.06966,0.01742l0.01393,0.02438l0.64497,0.32249l1.73102,0.57701l0.15181,0.09661l0.17566,0.03903l1.26638,0.63319l0.97828,0.83853l0.00548,0.09857l0.08571,0.04898l0.3125,1.25v0.00883l0.17539,0.70157l0.32903,0.65806l0.02973,0.02973l0.1851,0.3085l0.12731,0.11573l0.49104,0.42089l0.00213,0.03826l0.16097,0.24145l0.18451,0.18451l0.02754,0.00551l0.03855,0.06058l0.04926,0.04926l0.29554,0.49257l0.3084,0.48463l0.02203,0.06609l0.03694,0.06157l-0.00706,0.02589l0.13564,0.13564l0.20676,0.34461l0.26154,0.30513l0.18888,0.37777l0.1343,0.08058l0.20125,0.20125l0.02754,0.00551l0.03855,0.06058l0.04926,0.04926l0.29554,0.49257l0.3084,0.48463l0.02203,0.06609l0.03694,0.06157l-0.00739,0.02709l0.10671,0.32014l0.02397,0.31165l0.1233,0.55483l0.13932,0.55728l0,0.06966l0.01558,0.07009l-0.01558,0.02336v0.00922l0.00409,0.00234l0.01742,0.06966l0.03115,0.06231l0.12461,0.56075l0.13932,0.55728v0.06966l0.01558,0.07009l-0.01558,0.02336v0.77718l0.01898,0.0854l0.13932,0.55728v0.06966l0.01558,0.07009l-0.01558,0.02336v0.16231l0.01709,0.06838l0.19387,0.38773l0.03903,0.17566l0.09661,0.15181l0.10211,0.30634l0.00589,0.01178l0.02438,0.01393l0.01742,0.06966l0.03115,0.06231l0.12461,0.56075l0.00253,0.01013l0.03115,0.06231l0.12461,0.56075l0.13932,0.55728v0.06966l0.01558,0.07009l-0.01558,0.02336v2.57096l0.29631,0.59262l0.02438,0.01393l0.01742,0.06966l0.03115,0.06231l0.12461,0.56075l0.00253,0.01013l0.03115,0.06231l0.12461,0.56075l0.13932,0.55728v0.06966l0.01558,0.07009l-0.01558,0.02336l0,0.06422l0.10975,0.54875l-0.01184,0.24872l0.06039,0.24157v4.50153l0.03001,0.09002l0.03082,0.40069l0.09747,0.38988v1.10326l0.01558,0.02336l-0.01558,0.07009v0.06966l-0.13932,0.55728l-0.12461,0.56075l-0.03115,0.06231l-0.01742,0.06966l-0.02438,0.01393l-0.13801,0.27602v0.04302l-0.13932,0.55728l-0.12461,0.56075l-0.03115,0.06231l-0.00253,0.01013l-0.12461,0.56075l-0.03115,0.06231l-0.01742,0.06966l-0.02438,0.01393l-0.56024,1.12048l-0.83853,0.97828l-0.09857,0.00548l-0.04898,0.08571l-0.73321,0.1833l-2.43303,1.14495l-0.92317,0.46158l-0.17566,0.03903l-0.15181,0.09661l-0.30634,0.10211l-0.79087,0.39544l-0.17566,0.03903l-0.15181,0.09661l-0.30634,0.10211l-0.01847,0.00923l-0.34539,0.23026l-0.14877,0.05313l-0.11994,0.10281l-0.1707,0.08535l-0.01393,0.02438l-0.06966,0.01742l-0.06231,0.03115l-0.24515,0.05448l-0.05777,0.03677l-0.20905,0.24389l-0.19087,0.0106l-0.4161,0.26479l-0.47489,0.1583l-0.09774,0.00752l-0.08649,0.04613l-0.27229,0.06807l-0.47249,0.28349l-0.21953,0.06681l-0.1889,0.13028l-2.53276,0.94978l-0.17655,0.02018l-0.15894,0.07947l-1.25344,0.27854l-0.97927,0.36723l-0.83242,0.41621l-0.17566,0.03903l-0.15181,0.09661l-0.78123,0.26041l-1.42406,0.71203l-0.26876,0.05973l-0.24293,0.12956l-0.63319,0.1583h-0.1019l-0.09345,0.04063l-0.94978,0.1583l-0.08345,-0.00668l-0.07879,0.02828l-1.58297,0.1583l-0.12561,-0.01838l-0.12315,0.03079h-2.0667l-0.33461,0.08365l-0.30776,0l-0.29857,0.07464l-4.91605,0l-0.33461,0.08365h-0.30776l-0.29857,0.07464h-3.0767l-0.54875,0.10975l-0.24872,-0.01184l-0.24157,0.06039h-2.64245l-0.74569,0.12428l-0.20829,-0.01666l-0.20271,0.05068h-1.17728l-0.09002,0.03001l-0.40069,0.03082l-0.38988,0.09747h-0.32543l-0.33461,0.08365h-0.30776l-0.29857,0.07464l-0.95862,0l-0.33461,0.08365l-0.1019,0l-0.09345,0.04063l-0.94978,0.1583l-0.02978,-0.00238l-0.02767,0.01127l-1.10808,0.1583l-0.03989,-0.00413l-0.03759,0.01396l-1.42468,0.1583l-0.13951,-0.01885l-0.13657,0.03414h-7.12338l-0.24157,-0.06039l-0.24872,0.01184l-0.63673,-0.12735l-2.05875,-0.14705l-0.20867,-0.06829h-0.21956l-0.9678,-0.24195l-1.11691,0l-0.29857,-0.07464h-0.30776l-0.33461,-0.08365h-0.64202l-0.15326,-0.03831l-0.15683,0.01901l-2.37832,-0.29729l-1.10591,0l-0.02336,0.01558l-0.07009,-0.01558h-0.06966l-0.55728,-0.13932l-0.56075,-0.12461l-0.06231,-0.03115l-0.01013,-0.00253l-0.56075,-0.12461l-0.01714,-0.00857l-4.42063,-0.88413l-0.30178,-0.14295l-0.32597,-0.07244l-0.25461,-0.12731h-0.18348l-0.53633,-0.13408l-0.8513,-0.14188l-0.24874,-0.10815l-0.26874,-0.03665l-0.63395,-0.25358l-1.00492,-0.25123l-2.54678,-0.42446h-0.58458l-0.29857,-0.07464l-0.30776,0l-0.33461,-0.08365h-0.00401l-0.02336,0.01558l-0.07009,-0.01558h-0.06966l-0.55728,-0.13932l-0.56075,-0.12461l-0.06231,-0.03115l-0.06966,-0.01742l-0.01393,-0.02438l-0.07471,-0.03735l-0.06802,-0.017h-0.30776l-0.33461,-0.08365h-0.00883l-0.29857,-0.07464h-0.30776l-0.33461,-0.08365h-1.59181l-0.29857,-0.07464h-0.30776l-0.33349,-0.08337l-2.05003,0.54668l-1.71993,0.46907l-0.87019,0.24863l-0.59607,0.29803l-0.01393,0.02438l-0.06966,0.01742l-0.06231,0.03115l-0.56075,0.12461l-0.55728,0.13932l-0.06966,0l-0.07009,0.01558l-0.02336,-0.01558l-0.85571,0l-0.54875,0.10975l-0.24872,-0.01184l-0.24157,0.06039h-0.79149l-0.24157,-0.06039l-0.24872,0.01184l-0.79149,-0.1583l-0.30178,-0.14295l-0.32597,-0.07244l-0.79087,-0.39544l-0.78123,-0.26041l-0.04006,-0.02549l-0.04718,-0.00539l-1.25468,-0.4705l-1.55136,-0.56413l-1.39707,-0.27941l-0.30178,-0.14295l-0.32597,-0.07244l-0.63319,-0.31659l-0.97828,-0.83853l-0.00548,-0.09857l-0.08571,-0.04898l-0.3125,-1.25v-2.21134l-0.01558,-0.02336l0.01558,-0.07009v-0.06966l0.13932,-0.55728l0.12461,-0.56075l0.03115,-0.06231l0.00253,-0.01013l0.01898,-0.0854l0,-1.26572l-0.08365,-0.33461l0,-0.30776l-0.07464,-0.29857v-0.38564l-0.04409,-0.22045l-0.16687,-0.33374l-0.07244,-0.32597l-0.14295,-0.30178l-0.14663,-0.73315l-0.14387,-0.57548v-0.30776l-0.07464,-0.29857l0,-0.32543l-0.24195,-0.9678l0,-0.08326l-0.03432,-0.07586l-0.31659,-1.74127l0.00123,-0.01887l-0.00754,-0.01734l-0.14188,-0.8513l-0.13408,-0.53633v-0.06096l-0.0261,-0.05509l-0.14663,-0.73315l-0.14387,-0.57548v-0.30776l-0.07464,-0.29857v-0.48372l-0.01709,-0.06838l-0.19387,-0.38773l-0.07244,-0.32597l-0.14295,-0.30178l-0.1583,-0.79149l0.00197,-0.04134l-0.0165,-0.03795l-0.12605,-0.7563l-0.25457,-0.7637l-0.01743,-0.22657l-0.08574,-0.21045l-0.15419,-1.07931l-0.12127,-0.72763l-0.25457,-0.7637l-0.01212,-0.15751l-0.06763,-0.14277l-0.31659,-1.58297l0.00338,-0.07095l-0.0268,-0.06578l-0.15419,-1.07931l-0.15352,-0.92111l0.01666,-0.20829l-0.05068,-0.20271v-0.94978l0.06039,-0.24157l-0.01184,-0.24872l0.10975,-0.54875l0,-0.06422l-0.01558,-0.02336l0.01558,-0.07009v-0.06966l0.13932,-0.55728l0.12461,-0.56075l0.03115,-0.06231l0.01742,-0.06966l0.02438,-0.01393l0.00589,-0.01178l0.10211,-0.30634l0.17927,-0.28172l0.11231,-0.31447l0.23026,-0.34539l0.08869,-0.17738l0.26154,-0.30513l0.20676,-0.34461l0.63319,-0.63319l0.21352,-0.12811l0.1675,-0.18425l0.05887,-0.03924l0.03924,-0.05887l0.18425,-0.1675l0.12811,-0.21352l0.41731,-0.41731c-0.12859,-0.30116 -0.19976,-0.63271 -0.19976,-0.98087zM78.19069,272.89848l-0.13088,0.19633l-0.05243,0.15728l-0.04904,0.07707l-0.04135,0.16542l0.01184,0.24872l-0.10975,0.54875l0,0.49533l0.12428,0.74569l-0.00238,0.02978l0.01127,0.02767l0.14848,1.03939l0.27246,1.36231l0.26738,0.80213l0.01521,0.19772l0.07907,0.18186l0.1583,0.94978l-0.00238,0.02978l0.01127,0.02767l0.12642,0.88492l0.24531,0.73593l0.01521,0.19772l0.07907,0.18186l0.15167,0.91002l0.08473,0.42366l0.16687,0.33374l0.05973,0.26876l0.12956,0.24293l0.1583,0.63319v0.30776l0.07464,0.29857v0.48372l0.08365,0.33461v0.06096l0.0261,0.05509l0.14663,0.73315l0.14387,0.57548v0.1019l0.04063,0.09345l0.15528,0.93165l0.29874,1.64307l0.29684,1.18738v0.30776l0.07464,0.29857v0.32543l0.08365,0.33461v0.06096l0.0261,0.05509l0.09264,0.46319l0.16687,0.33374l0.07244,0.32597l0.14295,0.30178l0.1583,0.79149l-0.01184,0.24872l0.06039,0.24157l0,0.32543l0.08365,0.33461l0,0.30776l0.07464,0.29857v1.73645l0.01558,0.02336l-0.01558,0.07009v0.06966l-0.13932,0.55728l-0.12461,0.56075l-0.03115,0.06231l-0.00253,0.01013l-0.01898,0.0854v0.18883l0.20645,0.04129l0.17332,0.0821l0.19075,0.01987l1.74127,0.63319l0.01067,0.0072l0.01279,0.00146l1.22305,0.45864l0.90588,0.30196l0.15181,0.09661l0.17566,0.03903l0.65033,0.32517l0.22045,0.04409h0.29639l0.54875,-0.10975l0.24872,0.01184l0.24157,-0.06039l0.67621,0l0.42192,-0.21096l0.22849,-0.05078l0.20274,-0.11697l1.10808,-0.31659l0.01549,-0.00052l0.01352,-0.00758l1.74127,-0.47489l0.00727,-0.00015l0.00636,-0.00352l2.37446,-0.63319l0.32694,-0.00511l0.31722,-0.0793h0.63319l0.29857,0.07464l0.30776,0l0.33461,0.08365h1.59181l0.29857,0.07464h0.30776l0.33461,0.08365h0.00883l0.29857,0.07464l0.30776,0l0.33461,0.08365h0.00401l0.02336,-0.01558l0.07009,0.01558h0.06966l0.55728,0.13932l0.56075,0.12461l0.06231,0.03115l0.06966,0.01742l0.01393,0.02438l0.07471,0.03735l0.06802,0.017h0.30776l0.33461,0.08365h0.48372l0.20271,0.05068l0.20829,-0.01666l2.84935,0.47489l0.09345,0.04063h0.1019l1.26638,0.31659l0.15174,0.08093l0.1704,0.02324l0.54057,0.21623l0.68322,0.11387l0.09345,0.04063h0.1019l0.33461,0.08365h0.00883l0.55728,0.13932l0.56075,0.12461l0.06231,0.03115l0.06966,0.01742l0.01393,0.02438l0.18784,0.09392l4.42063,0.88413l0.30178,0.14295l0.32597,0.07244l0.06231,0.03115l0.01013,0.00253l0.0854,0.01898h1.09859l0.15326,0.03831l0.15683,-0.01901l2.37832,0.29729h0.79414l0.29857,0.07464h0.30776l0.33461,0.08365l1.11691,0l0.29857,0.07464h0.30776l1.05524,0.26381l1.99908,0.14279l0.15221,0.04981l0.15997,-0.00762l0.54875,0.10975h6.73737l1.24825,-0.13869l1.04065,-0.14866l0.82263,-0.13711l0.53633,-0.13408h0.30776l0.29857,-0.07464l0.95862,0l0.33461,-0.08365h0.30776l0.29857,-0.07464h0.2275l0.09002,-0.03001l0.40069,-0.03082l0.38988,-0.09747h1.37607l0.74569,-0.12428l0.20829,0.01666l0.20271,-0.05068h2.60181l0.54875,-0.10975l0.24872,0.01184l0.24157,-0.06039l3.01648,0l0.33461,-0.08365h0.30776l0.29857,-0.07464h4.91605l0.33461,-0.08365l0.30776,0l0.29857,-0.07464h2.24977l1.37743,-0.13774l0.77054,-0.12842l0.27009,-0.06752l1.33752,-0.66876l0.17566,-0.03903l0.15181,-0.09661l0.78123,-0.26041l0.79087,-0.39544l0.13032,-0.02896l0.1099,-0.07579l1.26638,-0.47489l0.17655,-0.02018l0.15894,-0.07947l1.25344,-0.27854l2.15532,-0.80825l0.59625,-0.35775l0.35369,-0.10764l0.32621,-0.17398l0.27297,-0.06824l0.2022,-0.2359l0.12453,-0.00692l0.15498,-0.13284l0.1707,-0.08535l0.01393,-0.02438l0.06966,-0.01742l0.06231,-0.03115l0.54141,-0.12031l0.29795,-0.19864l0.14877,-0.05313l0.11994,-0.10281l0.31659,-0.1583l0.17566,-0.03903l0.15181,-0.09661l0.30634,-0.10211l0.79087,-0.39544l0.17566,-0.03903l0.15181,-0.09661l0.30634,-0.10211l0.79087,-0.39544l0.02985,-0.00663l0.02369,-0.01934l2.32101,-1.09224l0.02111,-0.04222l0.00253,-0.01013l0.01898,-0.0854v-0.14881l0.09747,-0.38988l0.03082,-0.40069l0.1583,-0.47489l0.09661,-0.15181l0.03903,-0.17566l0.05266,-0.10533v-0.27052l-0.03001,-0.09002l-0.03082,-0.40069l-0.09747,-0.38988l0,-4.65967l-0.10975,-0.54875l0.01184,-0.24872l-0.06039,-0.24157v-0.14881l-0.01898,-0.0854l-0.00253,-0.01013l-0.34775,-0.6955l-0.03903,-0.17566l-0.09661,-0.15181l-0.1583,-0.47489l-0.03082,-0.40069l-0.09747,-0.38988l0,-2.83987l-0.01898,-0.0854l-0.00253,-0.01013l-0.03115,-0.06231l-0.03903,-0.17566l-0.09661,-0.15181l-0.10211,-0.30634l-0.23714,-0.47428l-0.05973,-0.26876l-0.12956,-0.24293l-0.1583,-0.63319v-0.30776l-0.07464,-0.29857l0,-0.30711l-0.01898,-0.0854l-0.13932,-0.55728v-0.06966l-0.01558,-0.07009l0.01558,-0.02336v-0.48411l-0.00409,-0.00234l-0.01742,-0.06966l-0.03115,-0.06231l-0.12461,-0.56075l-0.13932,-0.55728l0,-0.06966l-0.01558,-0.07009l0.01558,-0.02336l0,-0.29315l-0.16984,-0.19814l-0.37626,-0.32251l-0.00692,-0.12453l-0.13284,-0.15498l-0.29346,-0.58692l-0.02973,-0.02973l-0.12811,-0.21352l-0.18425,-0.1675l-0.31659,-0.47489l-0.11231,-0.31447l-0.08012,-0.1259l-0.12841,-0.12841l-0.12811,-0.21352l-0.09798,-0.08908l-0.03687,-0.00205l-0.32251,-0.37626l-0.37626,-0.32251l-0.00686,-0.12348l-0.13949,-0.13949l-0.20676,-0.34461l-0.26154,-0.30513l-0.63319,-1.26638l-0.05973,-0.26876l-0.12956,-0.24293l-0.12765,-0.51062l-1.7201,-0.57337l-0.15181,-0.09661l-0.17566,-0.03903l-0.6955,-0.34775l-0.01013,-0.00253l-0.56075,-0.12461l-0.06231,-0.03115l-0.06966,-0.01742l-0.01393,-0.02438l-0.80389,-0.40194l-0.07443,-0.06379l-0.09378,-0.02854l-0.79149,-0.47489l-0.04366,-0.04366l-0.06764,-0.00376l-0.38331,-0.44719l-0.1979,-0.1979l-0.26391,-0.15834l-0.1454,-0.1454l-0.11508,-0.09864l-0.35617,-0.07915l-0.06231,-0.03115l-0.06966,-0.01742l-0.00234,-0.00409h-1.12212l-0.29857,-0.07464l-0.30776,0l-0.33461,-0.08365h-0.80032l-0.38988,-0.09747l-0.40069,-0.03082l-0.09002,-0.03001h-0.06438l-0.02336,0.01558l-0.07009,-0.01558h-0.06966l-0.55728,-0.13932l-0.0854,-0.01898h-1.2474l-0.0854,0.01898l-0.55728,0.13932h-0.06966l-0.07009,0.01558l-0.02336,-0.01558h-2.99801l-0.02336,0.01558l-0.07009,-0.01558h-0.06966l-0.55728,-0.13932l-0.0854,-0.01898h-0.14399l-0.02336,0.01558l-0.07009,-0.01558h-0.06966l-0.55728,-0.13932l-0.38892,-0.08643l-1.61944,-0.24914h-1.70839l-0.38988,-0.09747l-0.40069,-0.03082l-0.47489,-0.1583l-0.04715,-0.03001h-0.11206l-0.38988,-0.09747l-0.40069,-0.03082l-0.09002,-0.03001h-0.0692l-0.55728,-0.13932l-0.0854,-0.01898h-0.14399l-0.02336,0.01558l-0.07009,-0.01558h-0.06966l-0.55728,-0.13932l-0.56075,-0.12461l-0.06231,-0.03115l-0.06966,-0.01742l-0.00234,-0.00409h-0.01404l-0.55728,-0.13932l-0.55483,-0.1233l-0.31165,-0.02397l-0.35731,-0.1191l-0.20088,-0.05022l-0.0854,-0.01898h-0.61888l-0.02336,0.01558l-0.07009,-0.01558h-0.06966l-0.55728,-0.13932l-0.56075,-0.12461l-0.06231,-0.03115l-0.01013,-0.00253l-0.0854,-0.01898h-0.782l-0.38988,-0.09747l-0.40069,-0.03082l-0.09002,-0.03001h-0.06438l-0.02336,0.01558l-0.07009,-0.01558h-0.06966l-0.55728,-0.13932l-0.0854,-0.01898h-0.14881l-0.38988,-0.09747l-0.40069,-0.03082l-0.47489,-0.1583l-0.04715,-0.03001h-0.26554l-0.02336,0.01558l-0.07009,-0.01558h-0.06966l-0.55728,-0.13932l-0.0854,-0.01898h-0.14399l-0.02336,0.01558l-0.07009,-0.01558h-0.06966l-0.55728,-0.13932l-0.56075,-0.12461l-0.06231,-0.03115l-0.06966,-0.01742l-0.01393,-0.02438l-0.3913,-0.19565l-0.32673,-0.08168l-0.56075,-0.12461l-0.06231,-0.03115l-0.06966,-0.01742l-0.01393,-0.02438l-0.59262,-0.29631h-6.20713l-0.0854,0.01898l-0.55728,0.13932h-0.06966l-0.07009,0.01558l-0.02336,-0.01558l-2.37847,0l-0.33461,0.08365h-0.30776l-0.29857,0.07464l-0.48372,0l-0.33461,0.08365h-0.30776l-0.29857,0.07464h-2.53276l-0.08255,-0.02064l-0.08374,0.0151l-2.37446,-0.1583l-0.3049,-0.09819l-0.31937,-0.02457l-0.32724,-0.10908l-0.39612,-0.07922h-0.22734l-0.29857,-0.07464h-0.30776l-0.33461,-0.08365h-0.16713l-0.38988,-0.09747l-0.40069,-0.03082l-0.09002,-0.03001h-1.64268l-0.0854,0.01898l-0.55728,0.13932h-0.06966l-0.07009,0.01558l-0.02336,-0.01558h-5.05587l-0.02336,0.01558l-0.07009,-0.01558h-0.06966l-0.55728,-0.13932l-0.0854,-0.01898h-4.96693l-0.09002,0.03001l-0.40069,0.03082l-0.38988,0.09747l-0.38579,0l-0.09002,0.03001l-0.40069,0.03082l-0.38988,0.09747h-0.39165l-2.2914,0.15276l-0.08374,-0.0151l-0.08255,0.02064h-0.2827l-0.06103,0.07121l-0.09857,0.00548l-0.04898,0.08571l-1.25,0.3125l-0.30711,0l-0.0854,0.01898l-0.55728,0.13932h-0.06966l-0.07009,0.01558l-0.02336,-0.01558h-0.38097l-0.09002,0.03001l-0.31165,0.02397l-0.32005,0.07112l-0.16795,0.07956l-0.93076,0.79779l-0.80389,0.40194l-0.01393,0.02438l-0.06966,0.01742l-0.06231,0.03115l-0.56075,0.12461l-0.01013,0.00253l-0.233,0.1165l-0.01393,0.02438l-0.06966,0.01742l-0.06231,0.03115l-0.56075,0.12461l-0.01013,0.00253l-0.233,0.1165l-0.01393,0.02438l-0.06966,0.01742l-0.06231,0.03115l-0.56075,0.12461l-0.01013,0.00253l-0.06231,0.03115l-0.56075,0.12461l-0.01013,0.00253l-0.06231,0.03115l-0.54693,0.12154l-0.07631,0.3434l-0.03115,0.06231l-0.01742,0.06966l-0.02438,0.01393l-0.40194,0.80389l-0.13284,0.15498l-0.00692,0.12453l-0.37626,0.32251l-0.32251,0.37626l-0.12453,0.00692l-0.15498,0.13284l-2.53276,1.26638l-0.17566,0.03903l-0.15181,0.09661l-0.30634,0.10211l-0.38434,0.19217l-0.06145,1.10601l-0.37691,0.32307l-0.1897,0.47425l-0.21539,0.29823l-0.00949,0.17084l-0.29897,0.25626l-0.23054,0.31921l-0.16946,0.02365l-0.11737,0.1006l-0.28695,0.28695l-0.17928,0.26892l-0.3632,0.33018l-0.33018,0.3632l-0.26892,0.17928l-0.25429,0.25429z" fill="#4a0b15" stroke-width="0.5"/><path d="M161.28454,248.06381c2.4162,1.38068 0.93888,6.02949 -1.09213,8.63585c-0.30308,1.03946 -1.26303,1.79893 -2.40036,1.79893c-1.38071,0 -2.5,-1.11929 -2.5,-2.5c0,-0.39454 0.09139,-0.76773 0.25417,-1.09957c0.78667,-2.71668 3.19899,-8.28626 5.73833,-6.83521z" fill="#4a0b15" stroke-width="0.5"/><path d="M182.18975,252.34779c0.84443,1.68886 -4.19906,5.59439 -7.27728,6.95468c-0.40875,0.29121 -0.90886,0.46249 -1.44898,0.46249c-1.38071,0 -2.5,-1.11929 -2.5,-2.5c0,-1.04954 0.64674,-1.94802 1.56343,-2.31865c2.8229,-2.54178 8.55304,-4.8181 9.66283,-2.59852z" fill="#4a0b15" stroke-width="0.5"/><path d="M184.24626,268.80349c-4.31121,-1.43707 -1.72623,-4.29439 0.61556,-5.52047c0.45377,-0.23758 0.90928,-0.60098 1.34463,-0.95957c0.2246,-1.15011 1.23773,-2.01808 2.45359,-2.01808c0.02336,0 0.04664,0.00032 0.06984,0.00096c0.27371,-0.10294 0.57025,-0.15925 0.87994,-0.15925c1.38071,0 2.5,1.11929 2.5,2.5c0,0.54765 -0.17609,1.05416 -0.47474,1.46602c-1.04604,2.76146 -5.97305,5.16232 -7.38883,4.6904z" fill="#4a0b15" stroke-width="0.5"/><path d="M196.38386,278.95171c0,1.98725 -6.01316,3.59272 -6.93233,3.13319c-1.0652,0 -1.9748,-0.66619 -2.33489,-1.60465c-0.16002,-0.25268 -0.23113,-0.52858 -0.16426,-0.82952c-0.00057,-0.02188 -0.00085,-0.04382 -0.00085,-0.06584c0,-1.15837 0.78782,-2.13273 1.85689,-2.41651c2.78443,-1.89246 7.57544,-1.91951 7.57544,1.78332z" fill="#4a0b15" stroke-width="0.5"/><path d="M189.0094,287.81637c0.71016,-0.76081 1.12743,-2.16123 2.05193,-2.45996c0.09689,-0.03131 0.19936,-0.05052 0.30832,-0.05562c2.41712,-0.11317 7.30597,2.79627 6.01666,5.37488c-1.03025,2.06051 -7.90899,-0.30563 -7.97534,-1.49987z" fill="#4a0b15" stroke-width="0.5"/><path d="M191.34958,297.55585c2.90593,2.09447 4.16115,5.67138 3.46688,9.23767c-0.46565,2.39194 -3.39283,2.66818 -4.75164,0.97828c-0.77992,-0.96995 -0.41073,-4.29244 -0.42223,-4.79342c-0.02934,-1.2777 -3.4734,-2.03678 -3.08675,-3.45449c-0.0517,-0.20027 -0.0792,-0.41027 -0.0792,-0.6267c0,-1.38071 1.11929,-2.5 2.5,-2.5c0.56605,-0.43826 1.93134,0.84037 2.37295,1.15866z" fill="#4a0b15" stroke-width="0.5"/><path d="M182.16985,306.68652c0.63268,0.36153 1.50434,0.48569 1.99291,0.99036c0.07451,0.07697 0.14011,0.16278 0.19459,0.25964c1.21508,2.1601 1.89273,11.75479 -2.1875,11.98147c-3.54957,0.1972 -2.04267,-6.57228 -2.3417,-8.36584c-0.14371,-0.86192 -0.6337,-3.1654 0.18716,-3.63447z" fill="#4a0b15" stroke-width="0.5"/><path d="M167.60648,312.06864c0.63268,0.36153 1.50434,0.48569 1.99291,0.99036c0.07451,0.07697 0.14011,0.16278 0.19459,0.25964c1.11792,1.98737 2.91687,10.0819 -0.92112,10.0819c-2.06473,0 -4.88564,-9.26375 -3.42092,-10.10073z" fill="#4a0b15" stroke-width="0.5"/><path d="M157.60508,313.47693c0.92914,1.65177 2.93168,9.44871 -0.92112,9.44871c-1.74594,0 -5.68393,-8.17439 -3.42092,-9.46754c0.43488,-0.73685 1.23698,-1.23117 2.15454,-1.23117c0.81357,0 1.53638,0.38862 1.99291,0.99036c0.07451,0.07697 0.14011,0.16278 0.19459,0.25964z" fill="#4a0b15" stroke-width="0.5"/><path d="M141.48741,312.70183c0.63268,0.36153 1.50434,0.48569 1.99291,0.99036c0.07451,0.07697 0.14011,0.16278 0.19459,0.25964c0.95497,1.69769 1.8798,10.55679 -1.55431,10.55679c-3.03271,0 -4.00088,-9.8824 -2.78773,-10.57562z" fill="#4a0b15" stroke-width="0.5"/><path d="M129.57665,313.80428c0.20165,-0.17285 0.39505,-0.32631 0.58042,-0.46136c0.45654,-0.49172 1.10858,-0.7994 1.83249,-0.7994c0.02666,0 0.05323,0.00042 0.07969,0.00125c0.04902,0.00059 0.09692,0.00347 0.1437,0.0086c1.27606,0.113 2.2766,1.18473 2.2766,2.49015c0,0.62893 -0.23224,1.20362 -0.61565,1.64298c-0.10629,3.85822 -1.7809,9.01916 -3.4376,9.01916c-0.83982,0 -1.83684,-0.06907 -2.43068,-0.66291c-0.59384,-0.59384 -0.65511,-1.5909 -0.66291,-2.43068c-0.01719,-1.84985 1.39506,-5.46229 1.83025,-7.41026c0.09874,-0.44199 0.005,-1.07429 0.39821,-1.29898z" fill="#4a0b15" stroke-width="0.5"/><path d="M118.78916,316.20735c-0.98444,1.9637 -0.99505,8.38457 -5.17205,6.29606c-0.75116,-0.37558 -1.11358,-1.30596 -1.39754,-2.09631c-0.22938,-0.63842 2.85451,-7.88802 3.45541,-8.23283c0.58757,-0.33716 3.57767,-1.9503 4.28644,-0.70996c0.73685,0.43488 1.23117,1.23698 1.23117,2.15454c0,1.33179 -1.04138,2.42035 -2.35426,2.49582c-0.01704,0.03043 -0.03344,0.06131 -0.04916,0.09267z" fill="#4a0b15" stroke-width="0.5"/><path d="M107.86612,310.75028c0.47056,2.46653 -0.96898,9.89438 -1.5535,12.52471c-0.40278,1.81252 -0.70019,5.832 -4.09293,4.13564c-1.95415,-0.97707 -0.16918,-11.97929 0.04271,-13.88042c0.09409,-0.84419 0.45834,-3.96445 1.49117,-4.17101c0.43924,-0.38291 1.01355,-0.61481 1.64202,-0.61481c1.1033,0 2.03968,0.7147 2.37141,1.70639c0.04492,0.09274 0.07864,0.19217 0.09912,0.2995z" fill="#4a0b15" stroke-width="0.5"/><path d="M93.6644,312.37101c0.0057,0.12177 -0.00507,0.26239 -0.03104,0.41937c-0.0251,0.22557 -0.08022,0.44208 -0.16127,0.64544c-1.04753,3.30764 -6.08117,10.51786 -8.66512,9.22588c-0.75116,-0.37558 -1.13197,-1.29959 -1.39754,-2.09631c-0.23484,-0.70452 0.59691,-1.99649 1.0644,-2.54071c1.75243,-2.04002 2.76625,-4.43095 4.4147,-6.58351c0.07249,-0.15292 0.16005,-0.29732 0.26075,-0.43127c0.45614,-0.60674 1.18201,-0.99914 1.99954,-0.99914c1.22776,0 2.24881,0.88504 2.45996,2.05193c0.03131,0.09689 0.05052,0.19936 0.05562,0.30832z" fill="#4a0b15" stroke-width="0.5"/><path d="M81.14332,308.07844c-0.68639,1.20118 -1.76048,1.96352 -3.0572,2.43768c-3.80982,1.3931 -9.54135,0.29856 -13.00777,0.53722c-1.86045,0.12809 -3.93145,1.25567 -5.72018,0.5461c-1.70649,-0.67695 -1.89109,-3.67397 -0.54948,-4.61583c1.84799,-1.29735 6.6763,-1.07866 8.91211,-1.08857c2.69199,-0.01193 5.40389,0.19721 8.07487,-0.13869c0.90254,-0.1135 3.6306,-0.68274 4.11649,0.16756z" fill="#4a0b15" stroke-width="0.5"/><path d="M71.2133,294.91985c0.04791,0.02395 0.09598,0.05045 0.14405,0.07934c0.78739,0.32191 1.37395,1.03386 1.5195,1.89568c0.52062,1.33141 0.21143,2.81615 -2.32523,2.93492c-2.26702,0.10614 -12.13115,-4.166 -14.71307,-5.34503c-1.39038,-0.63491 -3.28946,-1.82277 -3.13881,-3.6422c0.14051,-1.69696 2.41048,-2.54025 3.91312,-1.95656c4.56296,1.77247 9.93962,3.63169 14.33169,5.97412z" fill="#4a0b15" stroke-width="0.5"/><path d="M68.35399,287.94191c-0.99077,-0.56615 -1.78817,-1.35145 -2.4871,-2.24442c-1.28455,-1.64117 -2.23647,-3.64605 -3.44487,-5.32261c-0.65105,-0.90328 -2.00489,-1.23199 -2.3194,-2.36299c-0.6333,-2.2774 1.36958,-3.90762 3.63361,-3.21435c2.14863,0.65794 5.75839,6.50914 6.80526,8.60289c0.30664,0.61327 0.65917,2.91482 -0.03296,3.31032z" fill="#4a0b15" stroke-width="0.5"/><path d="M71.80378,268.18749c-0.36153,0.63268 -0.48569,1.50434 -0.99036,1.99291c-0.07697,0.07451 -0.16278,0.14011 -0.25964,0.19459c-2.73313,1.53742 -12.93125,1.00215 -12.93125,-2.0292c0,-4.11213 7.97049,-2.49708 8.98071,-2.5c1.05497,-0.00305 3.3559,-0.88643 3.96938,0.18716z" fill="#4a0b15" stroke-width="0.5"/></g></g></svg>