<svg version="1.1" xmlns="http://www.w3.org/2000/svg" xmlns:xlink="http://www.w3.org/1999/xlink" width="618.26729" height="486.71342" viewBox="0,0,618.26729,486.71342"><g transform="translate(62.37341,58.77532)"><g data-paper-data="{&quot;isPaintingLayer&quot;:true}" fill-rule="nonzero" stroke="none" stroke-linecap="butt" stroke-linejoin="miter" stroke-miterlimit="10" stroke-dasharray="" stroke-dashoffset="0" style="mix-blend-mode: normal"><path d="M101.23224,-47.23223c-0.4489,-0.4489 -0.66981,-0.89779 -0.74959,-1.31774c-0.3602,0.1045 -0.76919,0.20347 -1.17263,0.32104c-0.35413,0.82542 -0.67465,1.70356 -1.18339,2.54326c-0.07705,0.12718 -0.16577,0.25756 -0.26406,0.39064c0.61692,-0.04794 1.22806,-0.10922 1.83198,-0.18624c1.36333,-0.17386 2.6388,-0.81018 4,-1c2.58172,-0.36001 5.20011,-0.19325 7.8063,-0.06426c0.5568,-0.26149 1.11458,-0.51946 1.51239,-0.97195c0.42987,-0.48898 0.25235,-1.28903 0.51905,-1.88297c0.14844,-0.33057 1.05615,-0.76517 0.69996,-0.83178c-0.46965,-0.08783 -0.76222,0.64638 -1.23224,0.73224c-2.93955,0.53697 -5.24824,0.88465 -8.20943,1.87171l-0.02281,0.39605c0,0 -1.76776,1.76776 -3.53553,0zM111.71446,-40.86733c-5.25177,3.00298 -10.27079,2.9984 -16.23194,0.8541c-0.04022,-0.05962 -0.08053,-0.11872 -0.12091,-0.17733c-0.5157,0.01053 -1.03346,0.01519 -1.55263,0.01512c-0.11235,0.80624 0.52949,1.43198 2.59147,1.70773c0.85894,0.11487 1.73303,-0.02152 2.59955,-0.03228c2.93522,0 8.06233,1.03435 10.68567,-0.62662c0.69373,-0.43924 1.37012,-1.05487 2.02878,-1.74071zM91.17902,-45.18089c0.31282,-0.34603 0.64261,-0.6821 0.9691,-1.0209c-0.02938,-0.80199 0.12825,-1.69924 0.54218,-2.75492c0.90825,-2.31638 1.73465,-2.84705 2.75781,-3.11303c1.4573,-1.67519 4.3404,-3.79844 5.82743,-4.32299c0.47155,-0.16634 0.97162,-0.16119 1.47892,-0.12198c3.05637,-1.77316 6.91837,-2.96306 10.20225,-1.79499c1.00911,0.35894 1.43683,1.63602 2.35762,2.18308c1.99196,1.18346 4.63888,1.8144 5.8123,3.81229c0.04028,0.06859 0.07952,0.13688 0.11773,0.20485c0.97966,0.21878 1.96736,0.42429 2.85403,0.86369c2.98909,1.48128 5.85645,3.65098 8.913,4.95951c1.26345,0.54089 2.73958,0.45208 4,1c1.2327,0.53587 2.25025,1.47077 3.37537,2.20616c2.25918,1.51069 4.81518,2.54231 7.07502,4.05202c1.46045,0.97567 2.45523,3.04857 4.26269,3.63537c2.11671,0.6872 4.47187,-0.38244 6.676,-0.07499c1.04398,0.14563 1.96025,0.82671 3,1c0.98639,0.1644 2.01361,-0.1644 3,0c1.03975,0.17329 1.95435,0.86685 3,1c6.27474,0.79902 13.26474,-0.03228 19.59955,-0.03228c12.33334,0 24.66666,0 37,0c30,0 60,0 90,0c27.66667,0 55.33333,0 83,0c4.4878,0 8.31477,-0.37052 12.69454,-0.98127c5.52734,-0.77078 11.39577,0.82139 16.905,0.01355c1.04294,-0.15293 1.95378,-0.87143 3,-1c1.78674,-0.21956 3.60028,-0.02669 5.40046,-0.03228c6.93797,-0.02154 14.43064,-0.7339 21.30546,0.01873c6.41546,0.70235 12.50417,1.96319 19,2c1.53644,0.37802 6.44264,1.43398 8.00887,2.35465c0.70382,0.41371 0.8876,1.50577 1.64238,1.81693c0.72575,0.2992 1.57129,-0.28013 2.34875,-0.17157c1.55206,0.21673 3.09226,0.59247 4.56191,1.13655c4.00307,1.48199 6.83233,3.61306 10.9232,4.97301c3.31641,1.10249 7.22613,2.20979 10.60988,2.90399c4.5194,0.9272 9.69176,0.8607 13.91388,3.34109c0.81291,0.47756 1.19155,1.51493 2,2c0.90387,0.54232 2.0969,0.45638 3,1c0.85748,0.51617 1.3161,1.54123 2.14744,2.09852c3.37978,2.26567 7.36489,3.58039 10.79304,5.86583c3.19244,1.59762 8.41939,2.54681 10.05489,6.20557c1.54493,3.45613 -0.41513,8.17601 -0.84137,11.53858c-0.42165,3.3264 -0.38076,6.71721 -1.0363,10.00552c-0.52502,2.63358 -1.5911,5.15372 -1.96431,7.81307c-0.1853,1.3204 0.19561,2.68109 0,4c-0.30966,2.08792 -1.66254,3.92432 -2.00127,6.00773c-0.8297,5.10321 -1.46402,10.66495 -1.97861,15.83816c-0.1699,1.70807 0.19923,3.44694 -0.01936,5.14946c-0.46745,3.64073 -1.98528,6.79651 -1.96848,10.61203c-0.02678,2.76668 -0.7382,5.48529 -1.01216,8.23851c-0.17011,1.70961 0.19316,3.44935 -0.02012,5.15411c-0.13085,1.04594 -0.84707,1.95706 -1,3c-0.91463,6.23746 0.03228,13.27926 0.03228,19.59955c0,3.66734 -0.63588,7.99238 -0.03228,11.59955c0.57637,3.44445 2.50864,6.56009 3.01355,10.09499c0.69645,4.87583 0.01873,10.3743 0.01873,15.30546c0,7.33334 0,14.66666 0,22c0,2.68095 -0.4882,5.96146 -0.03228,8.59955c1.83317,10.60735 3.69538,21.34825 5.01355,32.09499c0.3208,2.61541 -0.39585,5.29788 -0.01355,7.90501c0.34196,2.33209 1,4.64298 1,7c1.28463,3.85388 1.03228,7.36091 1.03228,11.40045c0,7.33334 0,14.66666 0,22c0,6.03965 -0.77264,12.71065 -0.0179,18.70137c0.59151,4.69515 1.42996,9.32535 2.00574,14.05229c0.6791,5.57516 0.01216,11.63206 0.01216,17.24635c0,14.01046 1.00237,28.51683 -1.01873,42.30546c-0.72082,4.9177 0.77955,10.17754 -0.01355,15.095c-0.16784,1.04064 -0.85092,1.9565 -1,3c-0.37554,2.62875 -0.34241,5.32885 -0.98645,7.905c-0.01522,3.47722 -1.4705,5.80337 -2.01355,9.095c-0.1804,1.0935 0.27053,2.27096 -0.07499,3.324c-0.37469,1.14195 -1.61994,1.85983 -2,3c-0.31623,0.94869 0.31921,2.05232 0,3c-0.42552,1.26329 -1.55498,2.17954 -2.14694,3.37392c-0.50405,1.01698 -0.53662,2.2418 -1.11917,3.21595c-0.48388,0.80917 -1.50557,1.19724 -2,2c-0.64874,1.0533 -0.43935,2.6259 -1.35886,3.45344c-3.45682,3.11104 -11.61733,1.73224 -15.76777,1.73224c-10.66666,0 -21.33333,0 -32,0c-8.01963,-0.00001 -16.47355,0.76261 -24.44833,-0.05179c-3.3135,-0.33838 -6.48316,-1.63553 -9.79801,-1.96037c-1.6935,-0.16596 -3.41762,0.20836 -5.10483,-0.01262c-2.99922,-0.39283 -5.8419,-1.71788 -8.85503,-1.98373c-2.47622,-0.21848 -4.93922,0.58043 -7.39334,0.97624c-5.89293,0.95042 -12.19949,-0.8506 -18.095,0.01355c-3.66318,0.53694 -7.39869,1.09967 -11,2c-8.76844,0.03096 -17.53697,0.01873 -26.30546,0.01873c-4.77659,0 -10.09881,-0.58365 -14.84296,0.00647c-2.6465,0.3292 -5.11042,1.62939 -7.75659,1.96125c-4.04654,0.50747 -10.66472,0.6671 -14.80091,0c-1.04064,-0.16784 -1.9565,-0.85093 -3,-1c-1.31993,-0.18856 -2.6811,0.19561 -4,0c-3.2525,-0.48237 -5.24321,-2.0094 -8.59954,-1.96772c-5.21208,0 -11.44025,-0.92392 -16.59954,-0.03228c-1.0387,0.17951 -1.95378,0.87144 -3,1c-5.33947,0.65614 -10.91155,-0.63986 -16.24341,0.03875c-1.65591,0.21076 -3.25117,0.80131 -4.9107,0.98137c-3.51835,0.38173 -7.36857,-0.62107 -10.84589,-0.02012c-1.0387,0.17951 -1.95601,0.85438 -3,1c-2.31096,0.32236 -4.70075,-0.39736 -7,0c-1.0387,0.17951 -1.95936,0.83216 -3,1c-3.53814,0.57064 -7.66428,0.03274 -11.24531,0.03894c-5.42892,1.08513 -10.46095,0.2874 -15.84968,0.97461c-8.29296,1.05759 -16.66221,1.96877 -24.90501,2.98645c-2.92693,0.36136 -2.45426,1.5674 -5.38907,2.81857c-1.36573,0.58224 -2.88605,0.70207 -4.31241,1.11401c-3.04737,0.8801 -6.17242,2.548 -9.29852,3.06742c-5.10098,0.84755 -11.14087,0.03233 -16.32802,0.03123c-2.63856,0.15074 -5.23702,0.72432 -7.86624,0.99253c-6.94732,0.7087 -14.10538,-0.69472 -21.05221,0.0153c-1.6596,0.16962 -3.24732,0.81865 -4.90764,0.98106c-2.63485,0.25773 -5.32276,-0.38985 -7.94227,-0.00639c-3.05982,0.44791 -5.98851,1.62822 -9.05773,2.00639c-3.85563,0.47508 -8.03151,-0.67932 -11.84589,-0.02012c-1.0387,0.17951 -1.95601,0.85438 -3,1c-4.25374,0.59335 -9.09095,0.03228 -13.40045,0.03228c-4.82716,0 -8.9791,0.40629 -13.75365,0.98784c-7.5901,0.92447 -15.49311,-0.83803 -23.0912,0.01882c-6.34533,0.71558 -12.53944,1.95865 -18.75469,2.96106c-6.44268,1.03909 -13.89277,0.03229 -20.40638,0.03228c-3.09848,-0.02295 -6.16635,-0.62329 -9.24042,-1.01216c-2.36586,-0.29928 -4.79336,0.31709 -7.15411,-0.02012c-2.50316,-0.35755 -4.86875,-1.36752 -7.29851,-2.06742c-3.86588,-1.11358 -7.10807,-3.90677 -10.87541,-4.96718c-0.90686,-0.25526 -1.89742,0.19317 -2.82607,0.0346c-0.41006,-0.07002 -6.63961,-2.17854 -6.91388,-2.34109c-0.70231,-0.41627 -0.88594,-1.50982 -1.64238,-1.81692c-0.75633,-0.30706 -1.63781,0.2876 -2.44374,0.15802c-4.67682,-0.75196 -8.93989,-3.60344 -13.36872,-5.08898c-3.31838,-1.11307 -6.32623,-0.80933 -9.63128,-1.91102c-3.34989,0.0416 -5.77902,-0.15294 -9,-1c-1.52667,-0.40148 -3.78186,0.32693 -4.62765,-1.00594c-0.94535,-1.48978 0.31296,-3.52169 0.65639,-5.25234c0.77916,-3.92642 1.04373,-7.7505 1.93261,-11.7579c2.13002,-9.60293 3.30803,-19.58457 6.0388,-29.1505c0.86332,-3.02423 1.85541,-6.36698 3.0906,-9.25774c1.64167,-3.84204 2.84759,-5.24035 2.82843,-9.34875c1.13403,-4.53614 0.36118,-8.47841 1,-13c0.04404,-0.31171 2.09746,-8.48341 2.19499,-8.70593c0.39363,-0.89817 1.63617,-1.35506 1.80841,-2.32045c0.14486,-0.81196 -0.84347,-1.45602 -0.98984,-2.26771c-0.62868,-3.48638 -0.56419,-9.3028 0,-12.80091c0.61617,-3.82047 1.09781,-7.00073 3.53437,-10.18451c1.00272,-1.31023 3.02121,-1.83576 3.62365,-3.37174c0.61428,-1.56613 -0.1903,-3.361 -0.1903,-5.04329c0,-2.66667 0,-5.33333 0,-8c0.01568,-2.25531 -0.73583,-4.45258 -0.98127,-6.69454c-0.42117,-3.84715 0.65186,-8.0904 0.01355,-11.905c-0.514,-3.0717 -2.47225,-5.91544 -3,-9c-0.36209,-2.11634 0.05499,-4.42771 -0.81856,-6.38907c-1.45736,-3.27215 -3.56032,-5.8728 -4.18144,-9.61093c-0.72192,-4.34486 0.28368,-8.65607 1,-12.80091c0.7993,-4.62504 -0.39809,-8.76866 1.09601,-13.39012c1.87404,-5.62212 4.92844,-11.77989 5.90399,-17.60988c0.33008,-1.97258 -0.31845,-4.02552 0,-6c0.16784,-1.04065 0.82049,-1.96131 1,-3c0.37463,-2.16774 -0.03228,-4.39967 -0.03228,-6.59955c0,-3.75916 0.49392,-7.96841 0.01873,-11.69454c-0.17386,-1.36333 -0.80563,-2.63944 -1,-4c-0.13694,-0.95861 0.1679,-1.94904 0.01355,-2.90501c-0.49587,-3.07114 -2.48108,-5.91698 -3,-9c-0.14811,-0.87997 0.35871,-1.82996 0.07499,-2.676c-0.34063,-1.01576 -1.23537,-1.75072 -1.85306,-2.62608c-1.37221,-4.0314 -3.52408,-8.49794 -4.22193,-12.69792c-0.59407,-3.57535 -0.52657,-9.11429 -0.01355,-12.70591c0.34762,-2.4337 1.61671,-4.66884 2.01355,-7.09499c0.3273,-2.001 0.6649,-4.00029 1,-6c0.17486,-1.04349 -0.25595,-2.15657 0.0346,-3.17393c0.94754,-3.3178 3.38531,-6.30997 3.9654,-9.82607c0.18041,-1.0935 -0.27053,-2.27096 0.07499,-3.324c0.37469,-1.14195 1.59414,-1.86875 2,-3c0.25644,-0.71474 -0.24852,-1.52944 -0.10727,-2.27554v-3c0,-0.83608 0.41042,-1.5763 1.04078,-2.03018c0.07952,-4.11146 0.57245,-8.6074 -0.0085,-12.56936c-0.15293,-1.04294 -0.83888,-1.95829 -1,-3c-0.12477,-0.80669 0.46508,-1.68742 0.15802,-2.44374c-0.3071,-0.75644 -1.41351,-0.93261 -1.81692,-1.64238c-0.68145,-1.19896 -1.07849,-2.56002 -1.3411,-3.91387c-0.19042,-0.9817 0.1644,-2.0136 0,-3c-0.83208,-4.99251 -2.27849,-10.01348 -3.01355,-15.095c-0.2857,-1.97506 -0.35538,-4.0118 -0.98645,-5.905c-0.05107,-5.37918 -0.85607,-11.49305 0,-16.80091c0.16784,-1.04064 0.81665,-1.96198 1,-3c0.20639,-1.1685 -0.29192,-2.45828 0.15802,-3.55625c1.25873,-3.07163 5.38947,-5.66147 7.18308,-8.35762c0.62772,-0.94358 0.43374,-2.31671 1.13986,-3.20315c0.73013,-0.91659 2.27131,-0.96255 2.94322,-1.92264c1.48552,-2.12265 0.74058,-5.18824 1.75726,-7.57126c1.03443,-2.42465 3.01722,-4.38727 3.94157,-6.85598c0.52811,-1.41046 0.4761,-3.02725 1.16922,-4.36438c2.41531,-4.65946 7.40205,-6.22294 12.1755,-6.26825c3.69875,0 7.95155,0.58733 11.59955,0.03228c2.81249,-0.42793 2.56016,-1.41928 5.30208,-2.77807c1.88896,-0.9361 4.11765,-1.05069 6,-2c1.10135,-0.55544 1.95154,-1.55862 3.087,-2.04049c2.5303,-1.07384 5.47792,-0.90698 8,-2c2.24387,-0.97245 4.19421,-2.80715 6.61093,-3.18144c3.48476,-0.5397 7.86233,-0.03228 11.40046,-0.03228c6.66667,0 13.33333,0 20,0c4.01873,0 7.37751,0.44298 11.30546,1.01873c3.43044,0.50283 7.21552,-0.01873 10.69454,-0.01873c3.2676,0 6.73451,0.23059 10.17902,0.31911z" fill="#2e2a35" stroke-width="0.5"/><path d="M-0.46772,20.40046c-0.52382,-3.03099 -1.51055,-5.96524 -2,-9c-0.47242,-2.92917 -0.03228,-6.42653 -0.03228,-9.40046c0,-1.01454 -0.04804,-6.36633 0.1903,-6.95671c2.27746,-5.64129 8.22461,-5.32965 13.00424,-6.52456c5.43516,-0.02365 10.87025,-0.01873 16.30546,-0.01873c2.46684,0 4.96698,-0.37206 7.40046,0.03228c2.07967,0.34555 3.92072,1.65207 6,2c5.49195,0.91898 12.01504,-0.03228 17.59954,-0.03228c6.72555,0 13.25688,1 20,1c22.66667,0 45.33333,0 68,0c3.65547,0 8.00782,0.65301 11.59954,0.03228c3.03099,-0.52382 5.96524,-1.51055 9,-2c2.96716,-0.47855 6.13107,0.41542 9.095,-0.01355c3.5938,-0.52013 7.13166,-1.92622 10.60649,-2.91903c10.91022,-3.11721 21.26451,-7.34984 31.99235,-10.99776c3.38875,-0.84746 6.60698,-1.87062 9.91605,-2.97365c0.8132,-0.27107 6.2888,-2.13231 6.79057,-2.12829c2.44308,0.01955 5.90817,2.30632 7.95671,3.1903c2.19888,0.94885 4.66774,1.12553 6.91066,1.96499c1.75849,0.65814 4.40526,2.53537 6.53309,2.87699c2.27257,0.36486 4.6215,-0.30222 6.905,-0.01355c2.43898,0.30833 4.67131,1.60192 7.095,2.01355c3.19744,0.54304 6.678,-0.46355 9.905,-0.01355c3.56961,0.49777 6.07769,0.98127 9.69454,0.98127c6.66667,0 13.33333,0 20,0c2.46684,0 4.96508,-0.3605 7.40046,0.03228c1.04064,0.16784 1.9613,0.82049 3,1c3.50393,0.60555 7.36357,-0.44794 10.905,-0.01355c3.4155,0.41894 6.74344,1.5221 10.095,2.01355c3.25446,0.47721 6.73918,-0.52591 10,0c1.04064,0.16784 1.9613,0.82049 3,1c3.20851,0.5545 5.76121,-0.0796 9,1c1.41074,-0.01265 8.23212,-0.08882 8.905,-0.01355c2.7317,0.30559 5.27254,1.65864 8,2c3.29757,0.41271 6.80503,-0.51706 10.095,0.01355c3.92583,0.63317 7.73782,1.34877 11.79214,1.80334c4.33458,0.48599 8.73027,-0.24636 13.05375,0.17655c1.66134,0.16251 3.25479,0.77061 4.9107,0.98137c2.39518,0.30485 4.85211,-0.29516 7.24341,0.03875c1.04396,0.14577 1.9613,0.82049 3,1c3.71118,0.64137 8.22461,-0.03584 12,0c3.88126,1.29375 7.52491,0.96772 11.59954,0.96772c5.33333,0 10.66667,0 16,0c2.94294,0 6.5109,-0.47827 9.40046,0.03228c2.43973,0.43108 4.48196,2.11395 6.69792,3.22193c3.71438,1.85719 10.21389,3.17474 12.21132,7.28908c0.43673,0.89959 -0.37139,2.07152 0,3c0.35015,0.87538 1.67463,1.11512 2,2c0.23834,0.64819 0.1903,5.89838 0.1903,6.95671c-0.02352,1.89404 0.66612,3.72953 0.96772,5.59954c0.62889,3.89931 0.03228,8.44504 0.03228,12.40046c0,1.01454 0.04804,6.36633 -0.1903,6.95671c-0.47293,1.17144 -1.66411,1.90256 -2.54193,2.81106c-4.2529,4.40151 -9.93064,4.89191 -15.76777,4.73223c-1.31993,-0.03611 -2.7323,0.30401 -3.95671,-0.1903c-0.56361,-0.22754 -4.11693,-3.8478 -4.81106,-4.54193l-0.73223,-2.76777c0,0 0,-0.88982 0.53086,-1.60773c-0.10687,-0.09911 -0.22083,-0.1891 -0.34519,-0.26564c-1.72659,-1.06264 -3.97217,-0.97122 -5.78405,-1.88084c-0.95747,-0.48068 -1.61683,-1.4936 -2.62608,-1.85306c-0.71534,-0.25478 -1.5163,0.09429 -2.27554,0.10727c-3.54068,0.06052 -8.61995,-0.97367 -11.90162,0.74579c-1.9079,0.99966 -3.92275,1.79689 -5.78405,2.88084c-1.73994,1.01327 -2.49055,3.42931 -4.35762,4.18307c-0.59037,0.23834 -5.94217,0.1903 -6.95671,0.1903c-1.89404,-0.02352 -3.72953,0.66612 -5.59954,0.96772c-4.85221,0.78258 -10.47912,0.03228 -15.40046,0.03228c-5.88311,0 -12.59996,0.90324 -18.40046,-0.03228c-4.33349,-0.69892 -8.65025,-2.28852 -13,-3c-0.98689,-0.16142 -2.01439,0.16905 -3,0c-3.25592,-0.55844 -5.24139,-2.00942 -8.59954,-1.96772c-4.92133,0 -10.54825,0.75029 -15.40046,-0.03228c-4.47664,-0.722 -9.52778,-1.8073 -14.19909,-1c-1.0387,0.17951 -1.95936,0.83216 -3,1c-4.87305,0.78594 -10.15413,-0.83747 -15,0c-5.45526,0.94278 -10.62823,2.66852 -16.095,4.01355c-1.59235,-0.00743 -3.51932,-0.31237 -4.99113,0.64536c-1.89773,1.23488 -3.69117,2.90995 -5.91387,3.34109c-2.9269,0.56773 -6.05034,0.52469 -9,1c-3.07062,0.49481 -5.91934,2.47162 -9,3c-3.31482,0.56855 -6.65775,0.5429 -10,1c-2.08874,0.28566 -3.92033,1.65445 -6,2c-0.25142,0.04177 -5.92714,0.03228 -6.40046,0.03228c-4.89443,0 -9.7355,0.5227 -14.40046,-1.03228c-4.46179,0 -7.74692,-2.31465 -12,-3c-2.31768,-0.37348 -4.87292,-0.18107 -6.91387,-1.34109c-0.70977,-0.40341 -0.88594,-1.50982 -1.64238,-1.81693c-0.75633,-0.30706 -1.63751,0.2857 -2.44375,0.15802c-5.66339,-0.89691 -10.40329,-3.93148 -15.55625,-6.15802c-1.08931,-0.47068 -2.33744,-0.57696 -3.35762,-1.18307c-0.81055,-0.48156 -1.19155,-1.51493 -2,-2c-0.90388,-0.54233 -2.09883,-0.45318 -3,-1c-0.69796,-0.42351 -0.88594,-1.50982 -1.64238,-1.81693c-0.75633,-0.30706 -1.63706,0.28279 -2.44375,0.15802c-3.8973,-0.60279 -7.59525,-2.01744 -11.59954,-1.96772c-1.89404,-0.02352 -3.72953,0.66612 -5.59954,0.96772c-4.87305,0.78594 -10.15413,-0.83747 -15,0c-1.0387,0.17951 -1.95936,0.83216 -3,1c-1.97448,0.31845 -4.02921,-0.34059 -6,0c-2.02948,0.35074 -4.05559,0.72609 -6.095,1.01355c-3.71616,0.5238 -7.24481,2.36761 -10.905,2.98645c-3.24957,0.54941 -6.74943,0.47516 -10,1c-2.81218,0.45406 -5.90391,2.002 -8.60989,2.90399c-2.05635,0.66481 -4.2565,0.75219 -6.39011,1.09601c-2.08134,0.33539 -3.92216,1.64362 -6,2c-5.25118,0.90066 -10.71387,1.11694 -16,2c-1.03969,0.17368 -1.95936,0.83216 -3,1c-4.85221,0.78258 -10.47912,0.03228 -15.40046,0.03228c-0.47331,0 -6.14904,0.00949 -6.40046,-0.03228c-4.19998,-0.69785 -8.66653,-2.84972 -12.69792,-4.22193c-3.06074,-2.04049 -6.15775,-2.30654 -9.21595,-4.11916c-0.70231,-0.41626 -0.88594,-1.50982 -1.64238,-1.81693c-0.75633,-0.30706 -1.63781,0.2876 -2.44375,0.15802c-0.4006,-0.06441 -6.64953,-2.18441 -6.91387,-2.34109c-0.70231,-0.41626 -0.91362,-1.44893 -1.64238,-1.81693c-1.4238,-0.71896 -3.06951,0.8958 -4.64284,1.15802c-0.98639,0.1644 -2.01274,-0.15909 -3,0c-2.08134,0.33539 -3.92033,1.65445 -6,2c-0.47359,0.07869 -6.27317,0.00727 -6.95339,0.00043c-0.08773,0.45878 -0.32087,1.15235 -0.94042,1.59871c0.0922,0.97282 -0.00664,1.95554 -0.00664,2.93314c0,0 0,2.5 -2.5,2.5c-2.5,0 -2.5,-2.5 -2.5,-2.5c0,-1.33663 -0.10518,-6.72988 0.47189,-7.46178c0.19199,-0.2435 0.39483,-0.46049 0.60728,-0.65361c0.21218,-4.7969 0.72687,-10.00692 -0.04689,-14.48415z" fill="#2b2636" stroke-width="0.5"/><path d="M-1.40227,328.53734c0.68625,-0.65827 1.38514,-1.24021 2.08794,-1.66397c4.04997,-2.44192 8.80496,-2.37337 13.31433,-2.37337c4.90867,0 10.56503,-0.77115 15.40046,0.03228c6.11128,1.01542 12.50551,4.13448 18.39011,6.09601c5.03541,1.67847 10.38826,4.01717 15.60989,4.90399c3.60017,0.61143 7.93758,-0.03228 11.59954,-0.03228c4.6133,0 10.06763,0.81549 14.59954,0.03228c1.0387,-0.17951 1.95936,-0.83216 3,-1c1.97448,-0.31845 4.02743,0.33008 6,0c3.83277,-0.64135 7.91426,-2.67212 11.60989,-3.90399c2.05635,-0.66481 4.2565,-0.75219 6.39011,-1.09601c2.08134,-0.33539 3.92033,-1.65445 6,-2c3.32207,-0.55198 3.62003,0.49562 7,0c1.04294,-0.15293 1.95936,-0.83216 3,-1c2.92917,-0.47242 6.42653,-0.03228 9.40046,-0.03228c5,0 10,0 15,0c3.99811,0 8.00246,-0.06377 12,0c1.24184,0.01981 2.53929,-0.26413 3.72446,0.10727c1.14686,0.35939 2,1.33333 3,2c1.91621,-0.0537 3.78512,0.60987 5.676,0.92501c0.98639,0.1644 2.01439,-0.16905 3,0c3.13588,0.53786 6.23696,2.19376 9.29851,3.06742c5.22751,1.49174 10.41118,3.15684 15.70149,3.93258c6.68327,0.98 14.70271,0.04684 21.19909,-1c3.41588,-0.55044 5.78319,-1.99794 9.40046,-2.03228c1.68229,0 3.50778,0.87756 5.04329,0.1903c0.86055,-0.38516 1.12115,-1.65866 2,-2c1.10609,-0.4296 2.38775,0.04837 3.55625,-0.15802c3.03171,-0.53548 5.96318,-1.51021 9,-2c1.97448,-0.31845 4.02921,0.34059 6,0c1.0387,-0.17951 1.95936,-0.83216 3,-1c1.97448,-0.31845 4.02921,0.34059 6,0c1.0387,-0.17951 1.95936,-0.83216 3,-1c2.92317,-0.47146 6.09831,0.50147 9,0c1.0387,-0.17951 1.95936,-0.83216 3,-1c3.89931,-0.62889 8.44504,-0.03228 12.40046,-0.03228c3.61727,0.03434 5.98458,1.48184 9.40046,2.03228c3.37169,0.54332 6.47049,0.60167 9.69792,2.22193c0.95747,0.48068 1.61033,1.51242 2.62608,1.85306c0.84604,0.28372 1.79571,-0.22121 2.676,-0.07499c2.68319,0.44571 5.39255,1.08776 7.83129,2.29222c0.75943,0.37507 0.94118,1.54471 1.72496,1.8658c0.75536,0.30944 1.63751,-0.2857 2.44375,-0.15802c5.90773,0.9356 12.05963,4.02733 18.19909,3c3.09179,-0.51736 5.17463,-2.05337 8.44375,-1.84198c2.34309,-2.59211 4.91446,-2.13802 7.64238,-3.81693c0.80293,-0.49416 1.18709,-1.52243 2,-2c2.66562,-1.56599 6.39504,-1.41672 9,-3c0.91525,-0.55628 1.36177,-1.78885 2.35762,-2.18307c1.10329,-0.43675 2.38775,0.04837 3.55625,-0.15802c1.03802,-0.18334 1.95936,-0.83216 3,-1c2.92917,-0.47242 6.42653,-0.03228 9.40046,-0.03228c8.13312,0 16.2677,-0.04492 24.40046,0.03228c2.00596,0.64852 3.92072,1.65207 6,2c3.92917,0.65748 8.0648,0.32505 12,1c2.07784,0.35638 3.9224,1.64217 6,2c1.16937,0.2014 2.45297,-0.27873 3.55625,0.15802c0.99585,0.39422 1.44237,1.62679 2.35762,2.18307c2.66942,1.62246 6.02557,0.80057 8.64238,1.81693c0.87885,0.34134 1.12905,1.63898 2,2c0.75407,0.31257 1.63781,-0.2876 2.44375,-0.15802c3.09011,0.49684 5.92803,2.48596 9,3c2.7602,0.46187 6.20404,-0.02654 9,0c3.50375,1.20056 6.67478,2.80949 8.72617,6.15339c0.59353,0.96749 0.61982,2.19665 1.11916,3.21595c0.90336,1.84402 2.81682,3.02783 3.88084,4.78405c0.54621,0.90154 0.4616,2.09378 1,3c0.54706,0.92079 1.78885,1.36177 2.18307,2.35762c0.43675,1.10329 -0.04837,2.38775 0.15802,3.55625c0.58803,3.32921 1.03228,5.92735 1.03228,9.40046c0,4.86587 1.25584,10.36143 -2.98252,13.98677c-1.00713,0.86147 -2.47779,0.94208 -3.72691,1.38494c-4.08533,1.4484 -8.03847,3.09601 -12.39011,3.09601c-5.05436,1.68479 -10.83813,1.28227 -16.095,2.01355c-2.37218,0.32999 -4.54329,1.5884 -6.905,1.98645c-1.03677,0.17474 -2.11056,-0.10801 -3.15411,0.02011c-3.03118,0.37215 -5.91271,1.60856 -8.94227,1.99361c-1.29083,0.16406 -2.61548,-0.19775 -3.90362,-0.01372c-1.0435,0.14908 -1.95936,0.83216 -3,1c-2.98791,0.4819 -6.25487,-0.1605 -9.27592,0.02918c-7.77512,0.48817 -15.32194,1.0031 -23.12453,1.0031c-7.07797,0 -15.37153,1.10136 -22.40046,-0.03228c-1.04064,-0.16784 -1.9613,-0.82049 -3,-1c-3.87397,-0.6695 -8.10139,0.62878 -12,0c-3.03476,-0.48945 -5.96901,-1.47618 -9,-2c-2.26805,-0.39197 -4.62045,0.29377 -6.905,0.01355c-1.36415,-0.16732 -2.64016,-0.80068 -4,-1c-3.69915,-0.54221 -7.94923,0.01873 -11.69454,0.01873c-24.33333,0 -48.66667,0 -73,0c-2.7633,0 -5.96282,-0.41914 -8.69454,-0.01873c-1.35984,0.19932 -2.63585,0.83268 -4,1c-2.94626,0.36138 -5.96044,-0.38851 -8.905,-0.01355c-1.04565,0.13315 -1.95936,0.83216 -3,1c-3.46032,0.55809 -7.95601,0.03228 -11.40046,0.03228c-5.66667,0 -11.33333,0 -17,0c-7.39378,0 -16.35622,1.3158 -23.40046,-1.03228c-3.82393,0.04749 -8.22997,0.60804 -12,0c-1.04064,-0.16784 -1.9613,-0.82049 -3,-1c-2.16774,-0.37463 -4.39967,0.03228 -6.59954,0.03228c-4.33333,0 -8.66667,0 -13,0c-5.88173,0 -12.57098,0.78087 -18.40046,-0.03228c-1.04398,-0.14562 -1.9613,-0.82049 -3,-1c-3.92728,-0.67872 -8.614,0.03228 -12.59954,0.03228c-4.83,-0.04585 -9.31769,-1.50303 -14.15399,-1.99322c-1.70548,-0.17286 -3.44174,0.17662 -5.14252,-0.03759c-3.37401,-0.42497 -6.74844,-1.42156 -10.10395,-2.00147c-1.97079,-0.34059 -4.02705,0.32782 -6,0c-2.07967,-0.34555 -3.92072,-1.65207 -6,-2c-4.90925,-0.82148 -10.14179,0.0072 -15.13585,-1.02592c-3.00789,-0.62224 -5.84517,-2.46891 -8.86415,-2.97408c-1.84095,-0.30805 -3.733,0.03228 -5.59954,0.03228c-4.92235,0 -10.54175,0.75134 -15.40046,-0.03228c-3.0331,-0.48919 -5.96971,-1.48489 -9,-2c-1.09261,-0.18573 -2.27154,0.2723 -3.324,-0.07499c-1.23578,-0.40778 -2.09103,-1.59334 -3.28692,-2.10644c-2.03489,-0.87308 -4.20383,-1.46113 -6.38907,-1.81857c-2.31679,-0.37895 -4.86993,-0.18635 -6.91387,-1.34109c-0.82087,-0.46375 -1.19278,-1.51288 -2,-2c-0.97032,-0.58554 -2.35605,-0.387 -3.20316,-1.13986c-1.28101,-1.13849 -2.25408,-2.66503 -2.87525,-4.26231c-0.65961,-1.69615 0.23964,-3.87253 -0.7339,-5.41013c-1.15399,-1.8226 -3.4296,-3.28713 -4.83008,-5.00463c-1.16836,-0.09386 -2.60516,0.46943 -3.50507,-0.28159c-1.18953,-0.99273 -1.34187,-2.79607 -1.90993,-4.23754c-0.79236,-2.01064 -0.74072,-4.25838 -1.09601,-6.39011c-0.55254,-3.31527 -1.17584,-5.91618 -1.03228,-9.40046c0.0575,-1.39552 -0.42933,-2.98594 0.29581,-4.17964c1.5683,-2.58168 4.85541,-3.3213 7.41362,-4.19206l1.67254,-0.86436c0,0 0.29111,-0.14555 0.71576,-0.22659z" fill="#2b2636" stroke-width="0.5"/><path d="M27,36.5c-2.5,0 -2.5,-2.5 -2.5,-2.5v-1c0.02186,-1.76048 -0.39601,-3.51429 -0.87171,-5.20943c-0.18564,-0.66152 0.11716,-1.56599 -0.39606,-2.0228c-0.78737,-0.70083 -2.26269,-0.24669 -3,-1c-0.86529,-0.88407 -0.7224,-2.39267 -1.35886,-3.45344c-1.62858,-2.7143 -5.31175,-4.25895 -7,-7c-0.55279,-0.89751 -0.45767,-2.09612 -1,-3c-0.48507,-0.80845 -1.52243,-1.18709 -2,-2c-1.74386,-2.96839 -1.10522,-5.15679 -3.64114,-7.54656c0,0 -1.76777,-1.76777 0,-3.53553c1.76777,-1.76777 3.53553,0 3.53553,0c0.78629,0.81781 1.77307,1.48189 2.35886,2.45344c1.08856,1.8054 0.89502,4.2046 2,6c0.49416,0.80293 1.51493,1.19155 2,2c0.54233,0.90388 0.47052,2.08854 1,3c1.58325,2.72547 5.349,4.24833 7,7c0.45036,0.7506 0.01409,1.9358 0.64114,2.54656c0.7551,0.73548 2.28422,0.22619 3,1c2.24449,2.42645 2.70301,7.68947 2.73223,10.76777v1c0,0 0,2.5 -2.5,2.5z" fill="#282236" stroke-width="0.5"/><path d="M61.11803,41.23607c-2.23607,1.11803 -3.3541,-1.11803 -3.3541,-1.11803l-0.5317,-1.35027c-0.43808,-0.43808 -4.19133,-4.16513 -4.35886,-4.45344c-2.11656,-3.64243 -1.85017,-8.85023 -0.04887,-12.54607c0.91349,-1.87428 2.97944,-3.01072 3.92971,-4.86663c0.72096,-1.40806 1.81688,-6.87553 -0.71092,-7.59192c-0.65813,-0.18652 -1.36219,0.12687 -2.04329,0.1903c0,0 -2.5,0 -2.5,-2.5c0,-2.5 2.5,-2.5 2.5,-2.5c1.3189,0.06343 2.75124,-0.34856 3.95671,0.1903c3.90506,1.7456 5.12737,6.92761 4.51101,10.71015c-0.87217,5.35239 -9.0887,10.36625 -5.34109,16.28522c0.90636,1.4315 2.44309,2.34851 3.64114,3.54656l1.4683,2.64973c0,0 1.11803,2.23607 -1.11803,3.3541z" fill="#282236" stroke-width="0.5"/><path d="M92.5,37c0,2.5 -2.5,2.5 -2.5,2.5l-1.79057,-0.12829c-1.41251,-0.63664 -3.31662,-0.66397 -4.23754,-1.90993c-0.88893,-1.2027 -0.3775,-2.9692 -0.47189,-4.46178c-0.22932,-3.62613 -0.24333,-7.61119 1.21371,-11.01138c0.83316,-1.94428 3.05169,-3.04297 3.97659,-4.94532c0.69742,-1.43447 -0.90405,-3.06816 -1.15802,-4.64284c-0.47242,-2.92917 -0.03228,-6.42653 -0.03228,-9.40046c0,0 0,-2.5 2.5,-2.5c2.5,0 2.5,2.5 2.5,2.5c0,2.68095 -0.4882,5.96145 -0.03228,8.59954c0.57007,3.29859 2.26464,3.4359 0.84198,7.35716c-0.40282,1.11028 -1.64079,1.70418 -2.37634,2.62826c-1.70709,2.14464 -2.07967,2.88403 -2.45209,5.72049c-0.24711,1.88204 0.21505,3.80653 0.01873,5.69454c-0.05547,0.53345 -0.80503,1.11791 -0.47189,1.53822c0.36539,0.46101 1.17498,0.06004 1.76246,0.09007l0.20943,-0.12829c0,0 2.5,0 2.5,2.5z" fill="#282236" stroke-width="0.5"/><path d="M112.94216,30.68148c0.70856,0.25356 1.55784,0.8614 1.55784,2.31852c0,2.5 -2.5,2.5 -2.5,2.5l-3.37171,-1.70943c-1.00139,-3.09745 -1.61273,-3.80078 -1.09601,-7.19103c0.31765,-2.08412 1.65207,-3.92072 2,-6c0.64448,-3.8515 -0.4109,-7.54647 -1,-11.19909c-0.47242,-2.92917 -0.03228,-6.42653 -0.03228,-9.40046c0,0 0,-2.5 2.5,-2.5c2.5,0 2.5,2.5 2.5,2.5c0,2.68095 -0.4882,5.96145 -0.03228,8.59954c0.71632,4.14484 1.72192,8.45605 1,12.80091c-0.67188,4.0437 -2.2645,5.74447 -1.52556,9.28102z" fill="#282236" stroke-width="0.5"/><path d="M138,27.5c-2.5,0 -2.5,-2.5 -2.5,-2.5l0.73223,-1.23223c-0.72965,0.18064 -1.51857,0.88197 -2.18894,0.54193c-3.67827,-1.86575 -3.94153,-4.08582 -3.51101,-7.71015c0.39872,-3.35655 2.45483,-6.66702 3,-10c0.34886,-2.1328 0.4312,-4.33377 1.09601,-6.39011c0,0 0.79057,-2.37171 3.16228,-1.58114c2.37171,0.79057 1.58114,3.16228 1.58114,3.16228c-1.43233,4.13525 -1.72721,8.59398 -2.97141,12.9084c-0.23574,0.81748 -1.34746,3.14152 -1.0906,4.34432c0.32119,1.50405 2.93542,0.97242 4.45807,1.18894l0.73223,4.76777c0,0 0,2.5 -2.5,2.5z" fill="#282236" stroke-width="0.5"/><path d="M160.5,26c0,2.5 -2.5,2.5 -2.5,2.5l-2.76777,-0.73223c-0.67587,-0.67587 -4.33886,-4.27191 -4.54193,-4.81106c-0.8837,-2.34618 0.01206,-6.19829 1.18307,-8.27104c0.46375,-0.82087 1.50584,-1.19707 2,-2c1.3721,-2.22941 1.92412,-5.98384 2.75492,-8.47624c0,0 0.79057,-2.37171 3.16228,-1.58114c2.37171,0.79057 1.58114,3.16228 1.58114,3.16228c-0.97464,2.92393 -1.69047,6.87751 -3.24508,9.52376c-0.81711,1.39087 -3.87626,3.42152 -2.81693,5.72896c0.61937,1.34911 2.17172,2.00823 3.27618,3.01547l-0.58587,-0.55876c0,0 2.5,0 2.5,2.5z" fill="#282236" stroke-width="0.5"/><path d="M201.23607,32.11803c-1.11803,2.23607 -3.3541,1.11803 -3.3541,1.11803l-2.26872,-1.15594c-2.87455,-1.94455 -7.35698,-2.62022 -8.92295,-6.12342c-1.40236,-3.13721 0.32161,-7.34611 0.84198,-10.35716c0.78321,-4.53191 -0.03228,-9.98625 -0.03228,-14.59954c0,0 0,-2.5 2.5,-2.5c2.5,0 2.5,2.5 2.5,2.5c0,4.92133 0.75029,10.54825 -0.03228,15.40046c-0.35954,2.22923 -1.83771,5.24452 -1.15802,7.64284c0.11845,0.41794 0.60873,0.6513 1.00463,0.83008c2.0639,0.93203 4.18114,1.80094 6.07242,3.0465l1.73128,0.84406c0,0 2.23607,1.11803 1.11803,3.3541z" fill="#282236" stroke-width="0.5"/><path d="M226,51.5c-2.5,0 -2.5,-2.5 -2.5,-2.5v-1c0,-2.83555 0.21121,-5.77139 0.03228,-8.59954c-0.03494,-0.55224 0.1323,-1.28734 -0.30005,-1.63269c-0.68393,-0.54632 -1.79596,-0.19078 -2.54656,-0.64114c-3.40175,-2.04105 -7.48198,-6.86379 -8.15339,-10.72617c-0.5568,-3.20306 0.70939,-7.937 2.34109,-10.71478c0.46185,-0.78625 1.54417,-1.10141 1.95113,-1.91742c0.61338,-1.2299 0.38479,-2.77101 1,-4c0.37914,-0.75741 1.52168,-0.95102 1.8658,-1.72496c0.68349,-1.53719 -0.1903,-3.361 -0.1903,-5.04329c0,0 0,-2.5 2.5,-2.5c2.5,0 2.5,2.5 2.5,2.5c0,1.05135 0.04804,6.31774 -0.1903,6.95671c-0.3634,0.97423 -1.66958,1.34482 -2.1342,2.27504c-0.61412,1.22953 -0.38414,2.77134 -1,4c-0.43638,0.87058 -1.53871,1.25308 -2.04887,2.08258c-1.06693,1.73477 -1.97275,5.24418 -1.65891,7.28522c0.37552,2.44222 3.77262,6.02944 5.84661,7.27383c1.06077,0.63646 2.62591,0.43935 3.45344,1.35886c2.93311,3.25912 1.73223,9.78154 1.73223,13.76777v1c0,0 0,2.5 -2.5,2.5z" fill="#282236" stroke-width="0.5"/><path d="M252,53.5c-2.5,0 -2.5,-2.5 -2.5,-2.5l0.12829,-2.79057c0.41503,-1.17459 0.6099,-2.4521 1.24508,-3.52376c0.41626,-0.70231 1.48729,-0.89548 1.81693,-1.64238c0.27619,-0.62581 -0.16703,-1.35964 -0.1903,-2.04329c-0.05793,-1.70206 0.37682,-3.14206 -0.62663,-4.68567c-0.4823,-0.74192 -1.41064,-1.11625 -1.90148,-1.85255c-0.82687,-1.24037 -1.17392,-2.75911 -2,-4c-0.57186,-0.85902 -1.68207,-1.30895 -2.14739,-2.23003c-0.61973,-1.22671 -0.38662,-2.7701 -1,-4c-0.40696,-0.81601 -1.48928,-1.13117 -1.95113,-1.91742c-3.8975,-6.63504 -2.37337,-15.96106 -2.37337,-23.31433c0,0 0,-2.5 2.5,-2.5c2.5,0 2.5,2.5 2.5,2.5c0,6.05121 -1.71303,15.25556 1.62663,20.68567c0.51016,0.8295 1.6125,1.212 2.04887,2.08258c0.61586,1.22866 0.3909,2.76797 1,4c0.37851,0.76562 1.37834,1.05968 1.85261,1.76997c0.82778,1.23976 1.17307,2.75967 2,4c0.55519,0.83274 1.60456,1.27699 2.09852,2.14745c1.4763,2.60154 2.2694,8.38087 1.18307,11.27104c-0.37683,1.00256 -1.62679,1.44237 -2.18307,2.35762c-0.44819,0.7374 -0.50328,1.65083 -0.75492,2.47624l0.12829,1.20943c0,0 0,2.5 -2.5,2.5z" fill="#282236" stroke-width="0.5"/><path d="M287,39.5c-2.5,0 -2.5,-2.5 -2.5,-2.5v-1c0.24408,-0.41074 1.14354,-0.9891 0.73223,-1.23223c-0.50974,-0.30132 -1.04239,0.7465 -1.63269,0.69995c-1.45165,-0.11447 -4.44974,-1.68777 -6,-2c-1.33488,-0.26885 -3.0162,0.43325 -4.06132,-0.43961c-2.38521,-1.99209 -2.03822,-5.42468 -2.03822,-8.02811c0,-2.16106 0.66426,-4.27097 1.03228,-6.40046c1.23326,-7.13603 -1.18548,-14.33314 1.09601,-21.39011c0,0 0.79057,-2.37171 3.16228,-1.58114c2.37171,0.79057 1.58114,3.16228 1.58114,3.16228c-2.27601,6.57102 0.18936,13.83076 -0.90399,20.60989c-0.16784,1.04064 -0.82049,1.9613 -1,3c-0.29513,1.70771 0.01668,3.46614 0,5.19909c-0.0044,0.45743 -0.41793,1.17353 -0.00594,1.37235c0.59677,0.288 1.28102,-0.52062 1.93868,-0.43961c1.52095,0.18735 4.39602,1.63127 6,2c1.43687,0.33031 3.36172,-0.37824 4.36731,0.69995c1.09667,1.17585 0.48816,3.17851 0.73223,4.76777v1c0,0 0,2.5 -2.5,2.5z" fill="#282236" stroke-width="0.5"/><path d="M313,40.5c-2.5,0 -2.5,-2.5 -2.5,-2.5l0.73223,-0.23223c-2.93407,-2.93407 -6.17272,-4.76879 -4.54193,-9.72448c0.84035,-2.55367 5.10996,-3.73081 6,-6c0.24977,-0.63681 -0.16703,-1.35964 -0.1903,-2.04329c-0.15346,-4.50896 -1.78758,-6.97 -3.74579,-10.90162c-0.43395,-0.87127 -0.37872,-1.95021 -0.88084,-2.78405c-0.48636,-0.80768 -1.51493,-1.19155 -2,-2c-0.90174,-1.50291 -1.3656,-3.34453 -2.64114,-4.54656c0,0 -1.76777,-1.76777 0,-3.53553c1.76777,-1.76777 3.53553,0 3.53553,0c0.78629,0.81781 1.76391,1.48747 2.35886,2.45344c0.55279,0.89751 0.45767,2.09612 1,3c0.48507,0.80845 1.51612,1.19084 2,2c0.58254,0.97415 0.6101,2.20147 1.11916,3.21595c2.24175,4.46742 4.36672,7.86028 4.25421,13.09838c-0.02835,1.32012 0.30401,2.7323 -0.1903,3.95671c-0.18098,0.4483 -3.88255,4.20299 -4.54193,4.81106c-0.46892,0.43242 -2.19147,1.13094 -1.45807,2.27552c0.84595,1.32022 2.34933,2.0802 3.45807,3.18894l0.73223,3.76777c0,0 0,2.5 -2.5,2.5z" fill="#282236" stroke-width="0.5"/><path d="M357.11803,35.23607c-2.23607,1.11803 -3.3541,-1.11803 -3.3541,-1.11803l1.23607,-0.61803c-3.58062,0 -6.36806,0.12598 -9.79057,-1.12829c-1.34219,-0.49188 -2.99224,-0.56796 -3.9772,-1.60394c-3.24411,-3.41217 -1.33089,-7.5174 -0.69995,-11.16822c0.83746,-4.84583 -0.79956,-10.12935 0,-15c0.38797,-2.36339 1.65634,-4.53284 1.98645,-6.905c0.30228,-2.17218 0.43492,-4.39834 1.10956,-6.48511c0,0 0.79057,-2.37171 3.16228,-1.58114c2.37171,0.79057 1.58114,3.16228 1.58114,3.16228c-0.60946,1.75954 -0.62097,3.67239 -0.89044,5.51489c-0.35576,2.43252 -1.60192,4.67131 -2.01355,7.095c-0.82383,4.85077 0.78627,10.12492 0,15c-0.18373,1.13918 -2.2401,5.48663 -0.69995,6.83178c0.51749,0.45197 1.36129,0.21042 2.0228,0.39606c3.00407,0.84302 5.05518,0.87171 8.20943,0.87171l3.23607,3.38197c0,0 1.11803,2.23607 -1.11803,3.3541z" fill="#282236" stroke-width="0.5"/><path d="M383.76777,35.76777c-1.76777,1.76777 -3.53553,0 -3.53553,0l-1,-1c-2.3313,-2.3313 -5.52781,-4.80098 -6.62496,-8.04331c-0.3981,-1.17647 -0.0942,-2.48253 -0.10727,-3.72446c-0.03265,-3.1019 0.51411,-6.37932 1.03228,-9.40046c0.35638,-2.07784 1.61053,-3.9281 2,-6c0.32604,-1.73442 -0.70987,-3.45831 -1,-5.19909c-0.63844,-3.83062 -0.29776,-4.59206 -2.61241,-8.01371c0,0 -1.38675,-2.08013 0.69338,-3.46688c2.08013,-1.38675 3.46688,0.69338 3.46688,0.69338c1.85644,2.81884 2.76598,3.57897 3.38759,6.98629c0.17947,0.98376 -0.1644,2.01361 0,3c0.37669,2.26017 1.34525,4.53572 1,6.80091c-0.31765,2.08412 -1.66461,3.91866 -2,6c-0.15909,0.98726 0.1644,2.01361 0,3c-0.38315,2.29888 -1.87861,5.39976 -1.07499,7.87508c0.71027,2.18776 3.82251,4.40417 5.37504,5.95669l1,1c0,0 1.76777,1.76777 0,3.53553z" fill="#282236" stroke-width="0.5"/><path d="M413,37.5c-2.5,0 -2.5,-2.5 -2.5,-2.5l0.63104,0.66166c-3.60111,-3.80671 -3.95581,-7.52631 -3.63104,-12.66166c0.09439,-1.49257 -0.37176,-3.2269 0.47189,-4.46178c1.00363,-1.46903 4.14215,-0.8117 4.71841,-2.49493c0.31912,-0.93214 -0.92399,-3.84605 -1.06201,-4.25272c-0.67755,-1.99634 -1.33333,-4 -2,-6c-0.15388,-0.46164 -2.05219,-6.12635 -2.09601,-6.39011c-0.48466,-2.91693 -0.03228,-6.43611 -0.03228,-9.40046c0,0 0,-2.5 2.5,-2.5c2.5,0 2.5,2.5 2.5,2.5c0,2.69121 -0.47583,5.94884 -0.03228,8.59954c0.85337,5.09981 4.37701,9.85444 5,15c0.45888,3.79006 0.17038,5.3213 -3.15339,7.52708c-0.64176,0.42589 -1.75038,-0.21813 -2.28622,0.33515c-0.37312,0.38526 0.41643,1.00477 0.47189,1.53822c0.40733,3.91727 -0.84205,6.30163 2.26777,9.23223l0.73223,2.76777c0,0 0,2.5 -2.5,2.5z" fill="#282236" stroke-width="0.5"/><path d="M451.76777,30.23223c1.76777,1.76777 0,3.53553 0,3.53553l-1,1c-1.4688,1.4688 -2.95606,2.9192 -4.45344,4.35886c-1.62957,0.4355 -3.25294,1.71808 -4.88871,1.3065c-4.4618,-1.12265 -3.83999,-4.30305 -3.92562,-7.43312c-0.07966,-2.91224 -0.43799,-6.53575 0.03228,-9.40046c0.55202,-3.36269 2.45128,-6.64532 3,-10c0.52716,-3.22286 -1.18624,-4.16033 1.69995,-7.36731c0.82753,-0.91951 2.39267,-0.7224 3.45344,-1.35886c1.262,-0.7572 2.50186,-1.77837 3.13883,-3.10512c1.7323,-3.6082 1.6755,-7.88547 1.6755,-11.76825c0,0 0,-2.5 2.5,-2.5c2.5,0 2.5,2.5 2.5,2.5c0,4.712 -0.09843,9.89987 -2.3245,14.23175c-0.16512,0.32131 -4.51038,4.6844 -4.86117,4.89488c-0.7506,0.45036 -1.86263,0.09482 -2.54656,0.64114c-1.20908,0.9658 -0.04148,3.10698 -0.30005,4.63269c-0.57015,3.36431 -2.43001,6.64389 -3,10c-0.45824,2.69816 0.13572,5.85814 0.03228,8.59954c-0.03228,0.85538 -0.77515,2.67179 0.07438,2.56688c0.43335,-0.05351 0.74086,-0.46234 1.11129,-0.6935c1.162,-1.23306 2.34851,-2.44309 3.54656,-3.64114l1,-1c0,0 1.76777,-1.76777 3.53553,0z" fill="#282236" stroke-width="0.5"/><path d="M464,26.5c-2.5,0 -2.5,-2.5 -2.5,-2.5v-1c0,-3.99981 -0.02017,-8.00025 0,-12c0.01387,-2.74961 -0.3099,-5.04758 1.51323,-7.51748c0.77749,-1.05332 2.29455,-1.32326 3.219,-2.25028c0.79128,-0.79349 1.13438,-1.94216 1.83441,-2.81721c2.015,-2.51875 3.73517,-2.17445 3.43336,-5.41503c0,0 0,-2.5 2.5,-2.5c2.5,0 2.5,2.5 2.5,2.5c-0.06343,1.3189 0.30401,2.7323 -0.1903,3.95671c-0.48125,1.19206 -3.44172,3.45998 -4.37634,4.62826c-0.80162,1.00203 -1.25692,2.27671 -2.16559,3.18279c-0.77554,0.77333 -2.04457,0.93906 -2.781,1.74972c-0.77633,0.85458 -0.4912,3.71272 -0.48677,4.48252c0.02306,3.99968 0,8.00025 0,12v1c0,0 0,2.5 -2.5,2.5z" fill="#282236" stroke-width="0.5"/><path d="M12,330.5c2.5,0 2.5,2.5 2.5,2.5l-0.73223,1.23223c0.72965,-0.18064 1.49103,-0.8211 2.18894,-0.54193c0.42972,0.17189 4.82968,4.44296 5.16992,4.99537c0.55279,0.89751 0.46203,2.09352 1,3c1.13067,1.90519 3.14122,3.22803 4.11916,5.21595c3.31759,6.74387 0.25421,15.05456 0.25421,22.09838c0,0 0,2.5 -2.5,2.5c-2.5,0 -2.5,-2.5 -2.5,-2.5c0,-0.48002 -0.00949,-6.14144 0.03228,-6.40046c0.66348,-4.11378 2.31448,-9.41435 0.22193,-13.50117c-0.93585,-1.82774 -2.81682,-3.02783 -3.88084,-4.78405c-0.54621,-0.90154 -0.47052,-2.08854 -1,-3c-1.62372,-2.79514 -3.6446,-3.12045 -6.64114,-3.54656l-0.73223,-4.76777c0,0 0,-2.5 2.5,-2.5z" fill="#282236" stroke-width="0.5"/><path d="M45,331.5c2.5,0 2.5,2.5 2.5,2.5v2c-0.18289,3.87968 2.67758,5.64205 5.26777,8.23223c1.92387,1.92387 4.9407,4.15091 6.35886,6.45344c0.55279,0.89751 0.47025,2.0887 1,3c0.58554,1.00727 2.09977,1.49634 2.28266,2.64699c0.18887,1.18828 -1.35664,7.16314 -2.1635,8.76571c-1.04607,2.0777 -2.81004,3.71067 -4.31243,5.48659c-0.97906,1.15732 -1.43371,2.87386 -2.75371,3.61921c-1.2162,0.68675 -2.78643,0.19721 -4.17964,0.29581c0,0 -2.5,0 -2.5,-2.5c0,-2.5 2.5,-2.5 2.5,-2.5c0.60679,0.0986 1.31198,0.64145 1.82036,0.29581c0.74076,-0.50363 0.71298,-1.6611 1.24629,-2.38079c1.94674,-2.62707 3.41058,-3.91479 4.53305,-7.114c0.31054,-0.88509 1.15914,-1.71089 0.99101,-2.6337c-0.13062,-0.71696 -1.33143,-0.73481 -1.71734,-1.35301c-0.55818,-0.89417 -0.47052,-2.08854 -1,-3c-3.0037,-5.17068 -10.21952,-7.54178 -12.2661,-13.58987c-0.3981,-1.17647 -0.07151,-2.48297 -0.10727,-3.72446v-2c0,0 0,-2.5 2.5,-2.5z" fill="#282236" stroke-width="0.5"/><path d="M78.20943,334.62829c2.37171,-0.79057 3.16228,1.58114 3.16228,1.58114l1,3c1.09394,3.5883 3.85047,5.32638 6.39606,8.0228c0.86723,0.91862 2.09664,1.62883 2.54193,2.81106c1.42821,3.79182 -0.27594,4.15246 -0.84198,7.35716c-0.20639,1.1685 0.27873,2.45297 -0.15802,3.55625c-0.39422,0.99585 -1.62679,1.44237 -2.18307,2.35762c-1.09496,1.80153 -0.92417,4.18698 -2,6c-0.86307,1.45447 -3.19914,2.62619 -3.7339,4.41013c-0.28714,0.95789 0.32792,2.0553 0,3c-0.47345,1.36394 -1.54174,2.44153 -2.3126,3.66229c0,0 -1.38675,2.08013 -3.46688,0.69338c-2.08013,-1.38675 -0.69338,-3.46688 -0.69338,-3.46688c0.56247,-0.77924 1.39772,-1.42138 1.6874,-2.33771c0.30142,-0.95349 -0.33745,-2.05866 0,-3c0.79097,-2.20644 3.04678,-3.58805 4.2661,-5.58987c1.09668,-1.80048 0.92509,-4.18644 2,-6c0.41626,-0.70231 1.50982,-0.88594 1.81693,-1.64238c0.30706,-0.75633 -0.28279,-1.63706 -0.15802,-2.44375c0.2438,-1.57628 1.8235,-3.19327 1.15802,-4.64284c-0.65421,-1.425 -2.34933,-2.0802 -3.45807,-3.18894c-2.7469,-2.7469 -4.28226,-4.23664 -5.60394,-7.9772l-1,-3c0,0 -0.79057,-2.37171 1.58114,-3.16228z" fill="#282236" stroke-width="0.5"/><path d="M106.37662,331.90547c-0.04693,-0.04531 -0.09504,-0.09121 -0.14439,-0.13771zM106.95313,332.49866c-0.34305,-0.01518 -2.45313,-0.20188 -2.45313,-2.49866c0,-2.5 2.5,-2.5 2.5,-2.5l2.76777,0.73223c4.3865,4.56237 4.71648,11.62305 4.73223,17.76777c0.00431,1.68229 -0.80458,3.47716 -0.1903,5.04329c0.88016,2.24401 5.06802,3.52563 6,6c0.51228,1.36007 0.36381,2.91846 0.15802,4.35716c-0.32059,2.24132 -2.1731,3.97426 -3.34109,5.91387c-0.50212,0.83385 -0.44436,1.91404 -0.88084,2.78405c-1.01927,2.03166 -3.11652,3.47572 -3.85306,5.62608c-0.56994,1.66397 0.10727,3.51666 0.10727,5.27554c0,0 0,2.5 -2.5,2.5c-2.5,0 -2.5,-2.5 -2.5,-2.5c0,-0.77283 -0.02879,-6.30913 0.10727,-6.72446c0.59613,-1.81969 3.24141,-4.55655 4.14694,-6.37392c0.50619,-1.01592 0.53662,-2.2418 1.11916,-3.21595c0.82714,-1.38316 3.87303,-3.42856 2.81693,-5.72896c-1.0501,-2.28733 -4.97567,-3.46274 -6,-6c-0.49431,-1.22441 -0.15419,-2.63677 -0.1903,-3.95671c-0.10462,-3.82439 -0.44376,-6.93205 -0.98127,-10.69454c-0.4257,-2.97981 0.14276,-3.91153 -1.5656,-5.8068z" fill="#282236" stroke-width="0.5"/><path d="M133,328.5c2.5,0 2.5,2.5 2.5,2.5l-0.12829,1.20943c0.51092,1.67587 1.85351,2.97389 2.75492,4.47624c0.54233,0.90388 0.45767,2.09612 1,3c0.48507,0.80845 1.52243,1.18709 2,2c1.06787,1.81772 0.90332,4.19952 2,6c1.15248,1.89208 3.14122,3.22803 4.11916,5.21595c1.33138,2.70637 2.08733,7.86162 1.14694,10.82284c-0.40347,1.2705 -1.55269,2.18068 -2.14694,3.37392c-1.16064,2.33053 -0.68931,3.84452 -2.11916,6.21595c-1.528,2.53421 -4.35986,4.5225 -6.0465,7.07242c0,0 -1.38675,2.08013 -3.46688,0.69338c-2.08013,-1.38675 -0.69338,-3.46688 -0.69338,-3.46688c1.63539,-2.43638 4.51768,-4.51695 5.9535,-6.92758c1.03747,-1.74183 0.97122,-3.97217 1.88084,-5.78405c0.48068,-0.95747 1.4936,-1.61683 1.85306,-2.62608c0.25478,-0.71534 -0.09559,-1.51627 -0.10727,-2.27554c-0.04843,-3.14824 -0.35801,-4.85667 -2.43336,-7.41503c-0.66294,-0.81723 -1.65626,-1.36567 -2.19327,-2.27064c-1.07583,-1.81302 -0.89502,-4.2046 -2,-6c-0.49416,-0.80293 -1.51493,-1.19155 -2,-2c-0.54233,-0.90388 -0.45767,-2.09612 -1,-3c-0.48507,-0.80845 -1.52243,-1.18709 -2,-2c-0.63102,-1.07411 -0.83005,-2.34917 -1.24508,-3.52376l-0.12829,-2.79057c0,0 0,-2.5 2.5,-2.5z" fill="#282236" stroke-width="0.5"/><path d="M158,320.5c2.5,0 2.5,2.5 2.5,2.5v1c-0.27299,2.93118 1.18164,3.1461 3.26777,5.23223c1.90321,1.90321 4.98369,4.16149 6.35886,6.45344c0.45036,0.7506 0.01409,1.9358 0.64114,2.54656c0.7551,0.73548 2.2704,0.23922 3,1c0.9127,0.95171 0.8746,2.49693 1.47802,3.66939c0.61002,1.18526 1.74347,2.10342 2.14694,3.37392c0.13606,0.42844 0.10727,5.94107 0.10727,6.72446c0,0.48002 0.00949,6.14144 -0.03228,6.40046c-0.16784,1.04064 -0.84032,1.95807 -1,3c-0.23021,1.50213 0.32937,3.11687 -0.15802,4.55625c-0.34351,1.01446 -1.63367,1.43822 -2.18307,2.35762c-0.58134,0.97285 -0.43425,2.31631 -1.13986,3.20316c-0.74829,0.94048 -2.24717,1.06315 -3,2c-0.72481,0.90198 -0.37344,2.46037 -1.219,3.25028c-1.04458,0.97584 -2.65147,1.06929 -3.9772,1.60394c0,0 -2.37171,0.79057 -3.16228,-1.58114c-0.79057,-2.37171 1.58114,-3.16228 1.58114,-3.16228c0.67427,-0.13202 1.56565,0.11685 2.0228,-0.39606c0.63398,-0.7113 0.18757,-2.00425 0.781,-2.74972c0.74852,-0.9403 2.24652,-1.06367 3,-2c0.6115,-0.75988 0.35644,-1.96159 0.86014,-2.79684c0.4216,-0.69912 1.56377,-0.86622 1.81693,-1.64238c0.35633,-1.09248 -0.30691,-2.30431 -0.15802,-3.44375c0.13657,-1.04521 0.82049,-1.9613 1,-3c0.4612,-2.66867 -0.08745,-5.88644 -0.03228,-8.59954c0.01544,-0.7592 0.36205,-1.5602 0.10727,-2.27554c-0.35946,-1.00925 -1.39011,-1.65992 -1.85306,-2.62608c-0.34401,-0.71795 0.05646,-1.78361 -0.52198,-2.33061c-0.76587,-0.72426 -2.26269,-0.24669 -3,-1c-0.86529,-0.88407 -0.7224,-2.39267 -1.35886,-3.45344c-1.17554,-1.95924 -4.01884,-3.92426 -5.64114,-5.54656c-0.69413,-0.69413 -4.31439,-4.24744 -4.54193,-4.81106c-0.49431,-1.22441 -0.12687,-2.63781 -0.1903,-3.95671v-1c0,0 0,-2.5 2.5,-2.5z" fill="#282236" stroke-width="0.5"/><path d="M192,332.5c2.5,0 2.5,2.5 2.5,2.5l-0.12829,0.20943c0.33333,1 0.66667,2 1,3c0.51092,1.67587 1.85351,2.97389 2.75492,4.47624c0.54233,0.90388 0.47052,2.08854 1,3c1.94391,3.34632 4.49604,3.4133 5.34109,7.91387c0.90915,4.84198 -1.27624,8.30947 -2,12.80091c-0.37348,2.31768 -0.16162,4.8841 -1.34109,6.91387c-1.3822,2.37866 -4.64133,3.66695 -6,6c-0.48984,0.84112 -0.43914,1.91668 -0.88084,2.78405c-1.50554,2.95643 -2.33959,3.51396 -4.47802,5.66939c0,0 -1.76777,1.76777 -3.53553,0c-1.76777,-1.76777 0,-3.53553 0,-3.53553c1.58026,-1.56544 2.49315,-2.23048 3.52198,-4.33061c0.49934,-1.0193 0.52563,-2.24846 1.11916,-3.21595c1.45216,-2.36711 4.53868,-3.69199 6,-6c1.24149,-1.9608 0.27304,-2.83637 0.65891,-5.08613c0.68681,-4.00431 3.95412,-9.1582 1.34109,-13.28522c-1.0087,-1.59314 -3.01113,-2.39448 -4,-4c-0.55279,-0.89751 -0.45767,-2.09612 -1,-3c-0.48507,-0.80845 -1.52243,-1.18709 -2,-2c-0.63102,-1.07411 -0.83005,-2.34917 -1.24508,-3.52376c-0.33333,-1 -0.66667,-2 -1,-3l-0.12829,-1.79057c0,0 0,-2.5 2.5,-2.5z" fill="#282236" stroke-width="0.5"/><path d="M229.5,342c0,2.5 -2.5,2.5 -2.5,2.5l-0.23223,-0.73223c-2.18904,1.78499 -1.25152,3.41398 -1.26777,6.23223c-0.02497,4.33055 1.31121,5.27567 4.26777,8.23223c1.19805,1.19805 2.0909,2.77412 3.54656,3.64114c3.21977,1.91775 7.1643,0.7992 8.99537,5.16992c2.79006,6.65982 -5.07235,9.38513 -4.8097,14.95671c0,0 0,2.5 -2.5,2.5c-2.5,0 -2.5,-2.5 -2.5,-2.5c0.07684,-2.66805 0.9473,-5.46315 2.56664,-7.58497c1.09198,-1.43082 3.41581,-3.14446 2.62366,-5.45832c-0.54425,-1.58972 -5.99332,-2.22031 -7.00463,-2.83008c-0.30419,-0.18341 -4.00216,-3.90758 -4.45344,-4.35886c-2.69534,-2.69534 -4.94565,-4.35004 -5.69995,-8.36731c-0.02965,-0.15794 -0.04297,-6.00961 -0.03228,-6.40046c0.03611,-1.31993 -0.30401,-2.7323 0.1903,-3.95671c0.47293,-1.17144 1.69462,-1.87404 2.54193,-2.81106l3.76777,-0.73223c0,0 2.5,0 2.5,2.5z" fill="#282236" stroke-width="0.5"/><path d="M267,325.5c2.5,0 2.5,2.5 2.5,2.5v3c0,2.61729 0.86016,9.35471 -0.1903,11.95671c-0.18098,0.4483 -3.88255,4.20299 -4.54193,4.81106c-0.46102,0.42514 -1.22908,0.60512 -1.45807,1.18894c-0.61428,1.56613 0.1903,3.361 0.1903,5.04329c0,5.42642 -1.95059,14.25698 2.26777,18.23223c0,0 1.76777,1.76777 0,3.53553c-1.76777,1.76777 -3.53553,0 -3.53553,0c-5.49401,-5.71429 -3.73223,-14.33896 -3.73223,-21.76777c0,-1.01454 -0.04804,-6.36633 0.1903,-6.95671c0.18098,-0.4483 3.88255,-4.20299 4.54193,-4.81106c0.46102,-0.42514 1.22908,-0.60512 1.45807,-1.18894c0.24977,-0.63681 -0.16451,-1.35973 -0.1903,-2.04329c-0.10055,-2.66477 0,-5.33333 0,-8v-3c0,0 0,-2.5 2.5,-2.5z" fill="#282236" stroke-width="0.5"/><path d="M301,327.5c2.5,0 2.5,2.5 2.5,2.5l-0.12829,1.79057c-0.70165,2.10495 -1.41096,4.20735 -2.12592,6.30781c-2.0751,3.11266 -2.76508,6.04804 -5.47802,8.66939c-0.9085,0.87782 -1.65364,2.03564 -2.81106,2.54193c-1.13116,0.49481 -3.44037,-0.57023 -3.64701,0.64701c-0.41048,2.41799 0.2844,5.54955 0.1903,8.04329c-0.02579,0.68356 -0.46975,1.41893 -0.1903,2.04329c0.38516,0.86055 1.65866,1.12115 2,2c0.4296,1.10609 -0.04338,2.38688 0.15802,3.55625c0.9275,5.38516 3.43506,11.80395 7.30005,15.63269c0,0 1.76777,1.76777 0,3.53553c-1.76777,1.76777 -3.53553,0 -3.53553,0c-4.5314,-4.5674 -7.66597,-11.93644 -8.69995,-18.36731c-0.12958,-0.80593 0.47059,-1.68968 0.15802,-2.44375c-0.36102,-0.87095 -1.67463,-1.11512 -2,-2c-0.89428,-2.43206 -0.26259,-7.31397 -0.1903,-9.95671c0.03611,-1.31993 -0.38566,-2.76852 0.1903,-3.95671c0.68945,-1.42232 1.95512,-2.61522 3.35299,-3.35299c0.88438,-0.46676 2.05558,0.32873 3,0c0.59227,-0.20615 0.75896,-1.00156 1.18894,-1.45807c2.10181,-2.23144 2.76376,-4.69328 4.52198,-7.33061c0.61686,-1.89996 1.24239,-3.79711 1.87408,-5.69219l-0.12829,-0.20943c0,0 0,-2.5 2.5,-2.5z" fill="#282236" stroke-width="0.5"/><path d="M329,337.5c1.50617,0 2.10492,0.90742 2.34294,1.62888c1.05267,0.28071 2.10217,0.56522 2.68516,1.40935c2.51852,3.64663 -0.75465,9.15426 -3.44313,11.39513c-1.34076,1.11754 -3.69311,1.37788 -4.27527,3.02335c-0.56111,1.58596 0.25373,3.36219 0.1903,5.04329c-0.02579,0.68356 -0.46649,1.41748 -0.1903,2.04329c0.32963,0.7469 1.40066,0.94007 1.81693,1.64238c1.07491,1.81356 0.90504,4.19847 2,6c0.55628,0.91525 1.77892,1.36576 2.18307,2.35762c0.37735,0.92607 -0.36446,2.06878 0,3c0.29755,0.76025 1.40066,0.94007 1.81693,1.64238c0.63518,1.07166 0.83005,2.34917 1.24508,3.52376c0,0 0.79057,2.37171 -1.58114,3.16228c-2.37171,0.79057 -3.16228,-1.58114 -3.16228,-1.58114c-0.25164,-0.82541 -0.30673,-1.73884 -0.75492,-2.47624c-0.55628,-0.91525 -1.77892,-1.36576 -2.18307,-2.35762c-0.37735,-0.92607 0.36446,-2.06878 0,-3c-0.29755,-0.76025 -1.40066,-0.94007 -1.81693,-1.64238c-1.07491,-1.81356 -0.90504,-4.19847 -2,-6c-0.55628,-0.91525 -1.80624,-1.35506 -2.18307,-2.35762c-0.20307,-0.54026 -0.21702,-5.98012 -0.1903,-6.95671c0.03611,-1.31993 -0.32146,-2.73949 0.1903,-3.95671c0.52134,-1.24 1.70956,-2.09413 2.72473,-2.97665c1.05244,-0.91491 8.97603,-6.43014 3.7944,-6.69494l-1.70943,-3.37171c0,0 0,-2.5 2.5,-2.5z" fill="#282236" stroke-width="0.5"/><path d="M377.76393,333.88197c1.11803,-2.23607 3.3541,-1.11803 3.3541,-1.11803l2.64973,1.4683c0.84731,0.93702 2.06901,1.63961 2.54193,2.81106c0.96538,2.39125 0.1903,7.32959 0.1903,9.95671c-0.1573,1.48726 0.38963,3.2393 -0.47189,4.46178c-0.8287,1.1759 -2.66713,1.09456 -3.92973,1.78401c-3.19916,1.74692 -5.81233,2.96076 -9.30781,4.12592c-1.64856,0.54952 -3.60646,0.38923 -5.0228,1.39606c-1.11482,0.79249 1.40222,5.83651 1.60394,6.44166c0.60616,1.81849 0.77402,3.82938 1.75492,5.47624c1.03035,1.72988 3.37614,2.51291 4.18307,4.35762c0.40077,0.91618 -0.32873,2.05558 0,3c0.20615,0.59227 1.1026,0.6723 1.45807,1.18894c0.24352,0.35394 -0.19739,1.26777 0.23223,1.26777c0.42962,0 0.15482,-0.84518 0.23223,-1.26777c0,0 1.76777,-1.76777 3.53553,0c1.76777,1.76777 0,3.53553 0,3.53553c-1.25592,0.91074 -2.21638,2.73223 -3.76777,2.73223c-0.99969,0 -5.81411,-4.41033 -6.3097,-5.54329c-0.40077,-0.91618 0.32873,-2.05558 0,-3c-0.57812,-1.66092 -2.90884,-2.13631 -3.81693,-3.64238c-1.54262,-2.55847 -2.34597,-6.65503 -3.24508,-9.52376c-0.39427,-1.25797 -1.22109,-2.47553 -1.12829,-3.79057c0.54198,-7.68036 9.17372,-6.60613 14.40162,-9.24579c1.07285,-0.5417 1.89874,-1.51869 3,-2c0.63577,-0.27787 1.60297,0.29688 2.07027,-0.21599c0.36122,-0.39644 -0.3146,-1.02548 -0.47189,-1.53822c0,-3.07589 1.16203,-7.25092 -1.26777,-9.23223l-1.35027,-0.5317c0,0 -2.23607,-1.11803 -1.11803,-3.3541z" fill="#282236" stroke-width="0.5"/><path d="M353,342.5c2.5,0 2.5,2.5 2.5,2.5l-0.03228,2.59954c1.50447,4.34352 2.38175,8.56425 3.01355,13.095c0.45122,3.23574 -0.20087,5.3642 0.89044,8.51489c0,0 0.79057,2.37171 -1.58114,3.16228c-2.37171,0.79057 -3.16228,-1.58114 -3.16228,-1.58114c-1.12201,-3.47053 -0.60294,-6.02877 -1.10956,-9.48511c-0.66206,-4.51678 -1.5772,-8.546 -2.98645,-12.905l-0.03228,-3.40046c0,0 0,-2.5 2.5,-2.5z" fill="#282236" stroke-width="0.5"/><path d="M399.23223,322.23223c1.76777,-1.76777 3.53553,0 3.53553,0l2.16559,2.18279c3.80773,5.74115 4.89517,11.59796 1.19327,17.8993c-0.47757,0.81291 -1.51493,1.19155 -2,2c-0.54233,0.90388 -0.45767,2.09612 -1,3c-1.52376,2.5396 -3.18543,2.86095 -2.65891,6.28522c0.92044,5.98607 8.32964,7.0084 12.63066,9.15467c1.17438,0.58603 2.19225,1.44377 3.28837,2.16566c0,0 2.08013,1.38675 0.69338,3.46688c-1.38675,2.08013 -3.46688,0.69338 -3.46688,0.69338c-6.42168,-4.34408 -16.45807,-5.34376 -18.08097,-14.67967c-0.44291,-2.54787 0.07141,-5.4674 1.34109,-7.71478c0.46375,-0.82087 1.51493,-1.19155 2,-2c0.54233,-0.90388 0.45767,-2.09612 1,-3c0.48507,-0.80845 1.50584,-1.19707 2,-2c1.04961,-1.70542 2.00665,-5.27354 1.65891,-7.28522c-0.37666,-2.179 -1.22918,-2.97395 -2.46564,-4.81548l-1.83441,-1.81721c0,0 -1.76777,-1.76777 0,-3.53553z" fill="#282236" stroke-width="0.5"/><path d="M432,321.5c2.5,0 2.5,2.5 2.5,2.5l-0.73223,0.23223c2.64722,2.75336 3.57596,5.30448 4.60394,8.9772c0.4036,1.44197 1.37225,2.90019 1.06141,4.36495c-0.12616,0.59453 -4.33833,5.07154 -5.11879,5.55224c-1.24965,0.76968 -3.60445,0.41803 -4.00463,1.83008c-0.18652,0.65813 0.1903,1.35925 0.1903,2.04329c0,0.68404 -0.45504,1.41255 -0.1903,2.04329c0.2742,0.6533 1.17276,0.82522 1.62366,1.37174c0.81712,0.9904 1.43455,2.12989 2.14677,3.19822c2.19991,3.29987 4.88873,5.82007 7.68764,8.61898c1.33333,1.33333 3.07053,2.35938 4,4l2,2c0.45241,0.45241 0.73223,1.07741 0.73223,1.76777c0,1.38071 -1.11929,2.5 -2.5,2.5c-0.52532,0 -1.0128,-0.16203 -1.41519,-0.43883l-2.97156,-1.98104l2.7735,-4.16025l1.01603,0.67735l0.36499,-0.36499c0.94875,1.67466 1.44373,3.56849 2.16559,5.35274l-6.32011,-1.50485c0,0 -0.69835,-0.46557 -1.01602,-1.26183c-0.85473,-0.88816 -1.49889,-2.18443 -2.365,-3.05053c-2.0058,-2.0058 -4.3934,-3.97144 -6.16559,-6.18279c-1.50318,-1.87569 -2.52292,-4.10368 -4,-6c-0.72578,-0.93178 -1.94742,-1.52781 -2.37634,-2.62826c-1.48362,-3.80638 -0.31226,-8.7828 2.99537,-11.08334c0.86536,-0.60188 2.08854,-0.47052 3,-1c0.64997,-0.37757 0.9737,-1.15446 1.54656,-1.64114c0.39616,-0.33656 1.25141,-0.2935 1.33464,-0.80662c0.10062,-0.62032 -0.6961,-1.05528 -0.93859,-1.63505c-1.20336,-2.87716 -1.09641,-4.85568 -3.39606,-7.0228l-0.73223,-3.76777c0,0 0,-2.5 2.5,-2.5z" fill="#282236" stroke-width="0.5"/><path d="M449,329.5c2.5,0 2.5,2.5 2.5,2.5l-0.12829,2.79057c-0.61304,1.83911 -2.50116,5.19626 -2.06201,7.25272c0.25784,1.20743 2.5236,0.13485 3.64701,0.64701c1.22395,0.55799 2.10457,1.70058 2.97665,2.72473c3.94416,4.63189 6.51008,13.62604 6.56664,19.58497c0,0 0,2.5 -2.5,2.5c-2.5,0 -2.5,-2.5 -2.5,-2.5c0.05349,-4.30777 -1.82762,-10.00365 -3.74579,-13.90162c-0.68565,-1.39332 -1.23061,-3.31947 -2.71092,-3.78868c-0.95326,-0.30215 -2.11562,0.46676 -3,0c-1.39787,-0.73777 -2.69794,-1.9145 -3.35299,-3.35299c-1.48366,-3.2581 0.93096,-7.72618 1.93799,-10.74728l-0.12829,-1.20943c0,0 0,-2.5 2.5,-2.5z" fill="#282236" stroke-width="0.5"/><text transform="translate(2,13.95876) scale(0.23521,0.32546)" font-size="40" xml:space="preserve" fill="#e42243" fill-rule="nonzero" stroke="none" stroke-width="1" stroke-linecap="butt" stroke-linejoin="miter" stroke-miterlimit="10" stroke-dasharray="" stroke-dashoffset="0" font-family="Pixel" font-weight="normal" text-anchor="start" style="mix-blend-mode: normal"><tspan x="0" dy="0">Made by GIH_LOL</tspan><tspan x="0" dy="46.15px">v.0.1</tspan></text></g></g></svg>