<svg version="1.1" xmlns="http://www.w3.org/2000/svg" xmlns:xlink="http://www.w3.org/1999/xlink" width="145.08954" height="89.91673" viewBox="0,0,145.08954,89.91673"><g transform="translate(-56.19785,-239.85793)"><g data-paper-data="{&quot;isPaintingLayer&quot;:true}" fill-rule="nonzero" stroke="none" stroke-linecap="butt" stroke-linejoin="miter" stroke-miterlimit="10" stroke-dasharray="" stroke-dashoffset="0" style="mix-blend-mode: normal"><path d="M131,309.5c-3.31699,0 -7.0321,0.38277 -10.30546,-0.01873c-1.36415,-0.16732 -2.64016,-0.80068 -4,-1c-5.94512,-0.87142 -12.66643,0.01873 -18.69454,0.01873c-2.70204,0 -7.46573,0.74599 -9.95671,-0.1903c-1.00256,-0.37683 -1.43683,-1.63601 -2.35762,-2.18307c-0.90622,-0.5384 -2.11859,-0.42188 -3,-1c-3.40977,-2.23648 -3.87312,-5.78328 -5.05738,-9.33606c-2.09047,-6.2714 -3.12829,-12.17997 -3.12829,-18.79057c0,-3.46892 -0.57009,-7.167 1.37337,-10.31433c1.21735,-1.97143 3.80881,-2.64845 5.8123,-3.8123c1.53601,-0.89228 2.46831,-2.55563 3.72936,-3.80673c1.28684,-0.81979 2.42163,-1.9518 3.86051,-2.45937c1.04516,-0.36868 2.23139,0.11074 3.324,-0.07499c1.03919,-0.17665 1.95936,-0.83216 3,-1c3.29385,-0.53124 7.05943,-0.03228 10.40046,-0.03228c5,0 10,0 15,0c2.97392,0 6.47128,-0.44014 9.40046,0.03228c3.03476,0.48945 5.96901,1.47618 9,2c5.09899,0.88121 9.93126,-0.68958 15,1c2.97306,0 6.09725,0.50213 9,1c2.07784,0.35638 3.9224,1.64217 6,2c1.16937,0.2014 2.46382,-0.30521 3.55625,0.15802c0.43833,0.18587 4.82195,4.4304 5.16992,4.99537c0.55279,0.89751 0.45767,2.09612 1,3c0.48507,0.80845 1.51493,1.19155 2,2c0.54233,0.90388 0.47052,2.08854 1,3c1.01138,1.74104 3.42931,2.49055 4.18307,4.35762c0.49431,1.22441 0.15419,2.63677 0.1903,3.95671c0.07954,2.90784 0.44279,6.54126 -0.03228,9.40046c-0.14318,0.86171 -2.32798,6.96913 -2.69995,7.36731c-0.78991,0.84556 -2.3483,0.49419 -3.25028,1.219c-0.93685,0.75283 -1.33333,2 -2,3c-1.06772,0.37995 -2.23031,0.55852 -3.20316,1.13986c-0.9194,0.5494 -1.36177,1.78885 -2.35762,2.18307c-1.10329,0.43675 -2.38775,-0.04837 -3.55625,0.15802c-4.18937,0.73996 -8.07444,1.99121 -12.40046,2.03228c-8,0 -18,0 -26,0z" fill="#360d13" stroke-width="0.5"/><text transform="translate(110.98804,293.55089) scale(0.82,0.82)" font-size="40" xml:space="preserve" fill="#ff3d5a" fill-rule="nonzero" stroke="none" stroke-width="1" stroke-linecap="butt" stroke-linejoin="miter" stroke-miterlimit="10" stroke-dasharray="" stroke-dashoffset="0" font-family="Pixel" font-weight="normal" text-anchor="start" style="mix-blend-mode: normal"><tspan x="0" dy="0">no</tspan></text><path d="M170.3262,248.45853c1.71703,-1.28657 5.16428,-1.60239 4.6875,1.56659c-0.35535,2.3619 -2.90961,5.78374 -4.69386,7.35884c-0.43786,0.38654 -1.68719,1.32111 -2.66077,1.46021l0.11566,0.0257l0.15768,0.07884l0.25481,0.08494l4.2828,1.22366l0.44953,0.08991h0.22734l1.25,0.3125l0.3072,0.5376l0.30444,0.20296l0.0203,0.02233l0.30555,0.1746l0.02421,0.09686l0.03095,0.01857l0.18802,0.18802l0.27033,0.13516l0.17253,0.14789l0.20943,0.08818l0.30863,0.23148l0.09002,0.03001l0.28172,0.17927l0.31447,0.11231l0.44742,0.29828l0.03826,0.00213l0.42089,0.49104l0.43504,0.47854l-0.00264,0.03823l0.14353,0.28706l0.03903,0.17566l0.09661,0.15181l0.10211,0.30634l0.00589,0.01178l0.02438,0.01393l0.01742,0.06966l0.03115,0.06231l0.12461,0.56075l0.00253,0.01013l0.00802,0.01604l0.02973,0.02973l0.29554,0.49257l0.3084,0.48463l0.02203,0.06609l0.03694,0.06157l-0.00739,0.02709l0.05053,0.15159l0.05571,0.11141l0.02973,0.02973l0.25375,0.42292l0.16598,0.09485l0.04268,0.17073l0.18273,0.15662l0.00548,0.09857l0.08571,0.04898l0.02009,0.08035l0.19337,0.19337l0.19327,0.32211l0.61017,0.523l0.00548,0.09857l0.08571,0.04898l0.09305,0.3722l0.13236,0.11345l0.00692,0.12453l0.13284,0.15498l0.13516,0.27033l0.34632,0.34632l0.08723,0.14538l0.01744,0.00097l0.32251,0.37626l0.37626,0.32251l0.00692,0.12453l0.13284,0.15498l0.79149,1.58297l0.03903,0.17566l0.09661,0.15181l0.10211,0.30634l0.32249,0.64497l0.02438,0.01393l0.01742,0.06966l0.03115,0.06231l0.12461,0.56075l0.05022,0.20088l0.2774,0.83221l0.00752,0.09774l0.04613,0.08649l0.05327,0.21308l0.07639,0.11459l0.1439,0.40291l0.20133,0.3775l0.09174,0.36695l0.19387,0.38773l0.05973,0.26876l0.12956,0.24293l0.13501,0.54004l0.02206,0.06619l0.13088,0.19633l0.11231,0.31447l0.17927,0.28172l0.10211,0.30634l0.87033,1.74066l0.05973,0.26876l0.12956,0.24293l0.1583,0.63319l0,0.30776l0.07464,0.29857v2.21616l-0.09747,0.38988l-0.03082,0.40069l-0.03001,0.09002v0.0692l-0.09747,0.38988l-0.03082,0.40069l-0.03001,0.09002v0.0692l-0.13932,0.55728l-0.1233,0.55483l-0.02397,0.31165l-0.1583,0.47489l-0.01553,0.0244l-0.01448,0.06516l0,0.06966l-0.13932,0.55728l-0.01898,0.0854l0,0.30228l0.01558,0.02336l-0.01558,0.07009v0.06966l-0.13932,0.55728l-0.1233,0.55483l-0.02397,0.31165l-0.1583,0.47489l-0.04904,0.07707l-0.07843,0.31373l-0.03082,0.40069l-0.1583,0.47489l-0.09661,0.15181l-0.03903,0.17566l-0.34775,0.6955l-0.00253,0.01013l-0.12461,0.56075l-0.03115,0.06231l-0.01742,0.06966l-0.02438,0.01393l-0.19565,0.3913l-0.08168,0.32673l-0.12461,0.56075l-0.03115,0.06231l-0.01742,0.06966l-0.02438,0.01393l-0.24365,0.48729l-0.26154,0.30513l-0.20676,0.34461l-0.11273,0.11273l-0.0498,0.13944l-0.63319,0.94978l-0.18425,0.1675l-0.12811,0.21352l-0.1454,0.1454l-0.12273,0.14319l-0.20676,0.34461l-0.02973,0.02973l-0.45176,0.90352l-0.13284,0.15498l-0.00692,0.12453l-0.37626,0.32251l-0.05386,0.06283l-0.22162,0.44323l-0.13284,0.15498l-0.00692,0.12453l-0.37626,0.32251l-0.32251,0.37626l-0.12453,0.00692l-0.15498,0.13284l-0.17738,0.08869l-0.34539,0.23026l-0.14877,0.05313l-0.11994,0.10281l-1.43708,0.71854l-0.01393,0.02438l-0.06966,0.01742l-0.06231,0.03115l-0.56075,0.12461l-0.01013,0.00253l-0.233,0.1165l-0.01393,0.02438l-0.06966,0.01742l-0.06231,0.03115l-0.56075,0.12461l-0.55728,0.13932l-0.06966,0l-0.07009,0.01558l-0.02336,-0.01558h-0.0382l-0.10533,0.05266l-0.10356,0.02301l-0.086,0.06211l-0.79149,0.31659l-0.07449,0.01016l-0.06342,0.04036l-0.47489,0.1583l-0.15751,0.01212l-0.14277,0.06763l-0.79149,0.1583l-0.24872,-0.01184l-0.24157,0.06039h-0.32543l-0.24147,0.06037l-0.38381,0.12794l-0.37759,0.02905l-0.59258,0.23703l-0.07449,0.01016l-0.06342,0.04036l-0.88009,0.29336l-0.62673,0.25069l-0.71088,0.35544l-0.01393,0.02438l-0.06966,0.01742l-0.06231,0.03115l-0.56075,0.12461l-0.2043,0.05107l-0.05277,0.09234l-0.31164,0.07791l-0.27545,0.16527l-0.16222,-0.04424l-0.01585,0.00793l-0.32597,0.07244l-0.30178,0.14295l-0.79149,0.1583l-0.04134,-0.00197l-0.03795,0.0165l-0.94978,0.1583l-0.20829,-0.01666l-0.20271,0.05068l-0.64202,0l-0.33461,0.08365l-0.30776,0l-0.29857,0.07464h-0.2275l-0.56491,0.1883l-0.31165,0.02397l-0.55483,0.1233l-0.55728,0.13932h-0.00883l-0.33461,0.08365h-0.30776l-0.29857,0.07464h-10.91303l-0.0854,0.01898l-0.55728,0.13932l-0.06966,0l-0.07009,0.01558l-0.02336,-0.01558h-2.21134l-0.29857,-0.07464h-0.30776l-0.33461,-0.08365h-1.43351l-0.17457,-0.04364l-0.17899,0.01852l-0.9322,-0.13317h-1.8802l-0.38988,-0.09747l-0.40069,-0.03082l-0.56491,-0.1883h-1.33558l-0.17457,-0.04364l-0.17899,0.01852l-0.9322,-0.13317l-13.25824,0l-2.04028,0.29147l-0.17899,-0.01852l-0.17457,0.04364l-0.35135,0l-0.16773,0.08792l-5.22382,1.26638l-0.23032,-0.00165l-0.22001,0.06817l-2.84935,0.1583l-0.06976,-0.01338l-0.06891,0.01723h-0.79149l-0.29857,-0.07464h-0.30776l-0.57548,-0.14387l-0.73315,-0.14663l-0.05509,-0.0261h-0.06096l-0.63319,-0.1583l-0.08649,-0.04613l-0.09774,-0.00752l-0.09002,-0.03001h-0.38579l-0.22046,-0.05511l-0.22676,0.01479l-1.74127,-0.31659l-0.02055,-0.0093l-0.02253,0.00107l-1.58297,-0.31659l-0.23169,-0.10975h-2.91886l-0.29857,-0.07464l-0.30776,0l-0.33461,-0.08365h-3.01648l-0.06531,-0.01633l-0.06608,0.01287l-2.942,-0.15484h-2.15042l-0.11213,-0.02803l-0.11421,0.01777l-1.62833,-0.14803h-1.78135l-0.02336,0.01558l-0.07009,-0.01558h-0.06966l-0.55728,-0.13932l-0.56075,-0.12461l-0.06231,-0.03115l-0.70285,-0.17571l-0.04898,-0.08571l-0.09857,-0.00548l-0.10227,-0.11932l-0.12296,-0.04099l-0.20088,-0.05022l-0.0854,-0.01898h-0.14881l-0.45934,-0.11484l-0.46914,-0.06397l-0.72328,-0.28931l-0.88009,-0.29336l-0.15181,-0.09661l-0.17566,-0.03903l-0.63319,-0.31659l-0.15498,-0.13284l-0.12453,-0.00692l-0.32251,-0.37626l-0.37626,-0.32251l-0.00488,-0.08784l-0.08784,-0.00488l-0.32251,-0.37626l-0.37626,-0.32251l-0.00686,-0.12348l-0.43933,-0.43933l-0.13942,-0.09294l-0.17738,-0.08869l-0.97828,-0.83853l-0.00548,-0.09857l-0.08571,-0.04898l-0.3125,-1.25v-2.83987l-0.01898,-0.0854l-0.13932,-0.55728v-0.06966l-0.01558,-0.07009l0.01558,-0.02336l0,-1.01416l-0.03001,-0.09002l-0.03082,-0.40069l-0.09747,-0.38988v-0.9403l-0.01898,-0.0854l-0.13932,-0.55728v-0.06966l-0.01558,-0.07009l0.01558,-0.02336v-0.16752l-0.00409,-0.00234l-0.01742,-0.06966l-0.03115,-0.06231l-0.12461,-0.56075l-0.13932,-0.55728v-0.0283l-0.08365,-0.15685l-0.29331,-1.17323l-0.38835,-1.16504l-0.16419,-0.32838l-0.02438,-0.01393l-0.01742,-0.06966l-0.03115,-0.06231l-0.12461,-0.56075l-0.13932,-0.55728v-0.00883l-0.08365,-0.33461v-0.13124l-0.04952,-0.12154l-0.13415,-0.93903l-0.23455,-0.82093l-0.26911,-0.67276l-0.06397,-0.46914l-0.0958,-0.38319l-0.04904,-0.07707l-0.1583,-0.47489l-0.03082,-0.40069l-0.09747,-0.38988l0,-6.00581l-0.01898,-0.0854l-0.00253,-0.01013l-0.2748,-0.5496l-0.02438,-0.01393l-0.01742,-0.06966l-0.03115,-0.06231l-0.12461,-0.56075l-0.13932,-0.55728v-0.06966l-0.01558,-0.07009l0.01319,-0.01979l-0.01659,-0.07466l-0.13932,-0.55728v-0.06966l-0.01558,-0.07009l0.01558,-0.02336v-3.47772l0.09747,-0.38988l0.03082,-0.40069l0.1583,-0.47489l0.03001,-0.04715v-0.89873l-0.01558,-0.02336l0.01558,-0.07009v-0.06966l0.13932,-0.55728l0.01898,-0.0854v-1.09859l0.09747,-0.38988l0.03082,-0.40069l0.1583,-0.47489l0.69175,-1.08703l0.29097,-0.05819c-0.00194,-0.04045 -0.00293,-0.08114 -0.00293,-0.12207c0,-0.21642 0.0275,-0.42642 0.0792,-0.6267l-0.00988,-0.03622l0.0376,-0.06266c0.1207,-0.39862 0.33827,-0.75515 0.62532,-1.04219l0.31659,-0.31659l0.34461,-0.20676l0.30513,-0.26154l0.21036,-0.10518l1.13449,-0.70905l0.44431,-0.29621l0.14877,-0.05313l0.11994,-0.10281l0.12664,-0.06332l0.06283,-0.05386l0.32251,-0.37626l0.12453,-0.00692l0.15498,-0.13284l0.12664,-0.06332l0.06283,-0.05386l0.32251,-0.37626l0.12453,-0.00692l0.15498,-0.13284l0.12664,-0.06332l0.06283,-0.05386l0.25628,-0.29899l0.00065,-0.01169l0.03531,-0.03027l0.03027,-0.03531l0.01169,-0.00065l0.39367,-0.33743l0.00396,-0.07123l0.37626,-0.32251l0.32251,-0.37626l0.12348,-0.00686l0.13949,-0.13949l0.42292,-0.25375l0.09485,-0.16598l0.31164,-0.07791l0.14452,-0.08671l0.18779,-0.21908l0.12453,-0.00692l0.15498,-0.13284l0.48729,-0.24365l0.01393,-0.02438l0.06966,-0.01742l0.06231,-0.03115l0.56075,-0.12461l0.01013,-0.00253l0.233,-0.1165l0.01393,-0.02438l0.06966,-0.01742l0.06231,-0.03115l0.56075,-0.12461l0.55728,-0.13932h0.06966l0.07009,-0.01558l0.02336,0.01558h0.14399l0.0854,-0.01898l0.55728,-0.13932h0.06966l0.07009,-0.01558l0.02336,0.01558h0.14399l0.0854,-0.01898l0.55728,-0.13932h0.0692l0.09002,-0.03001l0.31165,-0.02397l0.35025,-0.07783l0.27702,-0.23745l0.90352,-0.45176l0.02973,-0.02973l0.49257,-0.29554l0.48463,-0.3084l0.06609,-0.02203l0.06157,-0.03694l0.02709,0.00739l0.03006,-0.01002l0.29068,-0.17441l0.30513,-0.26154l0.1707,-0.08535l0.01393,-0.02438l0.06966,-0.01742l0.06231,-0.03115l0.12389,-0.02753l0.01464,-0.00878l0.01117,0.00305l0.41105,-0.09135l0.01013,-0.00253l0.06231,-0.03115l0.56075,-0.12461l0.01013,-0.00253l0.233,-0.1165l0.01393,-0.02438l0.06966,-0.01742l0.06231,-0.03115l0.05411,-0.01203l0.14127,-0.16482l0.09857,-0.00548l0.04898,-0.08571l0.17073,-0.04268l0.15662,-0.18273l0.09857,-0.00548l0.04898,-0.08571l1.25,-0.3125l0.14881,0l0.0854,-0.01898l0.55728,-0.13932l0.06966,0l0.07009,-0.01558l0.02336,0.01558h0.46058l0.0854,-0.01898l0.01013,-0.00253l0.06231,-0.03115l0.56075,-0.12461l0.55728,-0.13932l0.06966,0l0.07009,-0.01558l0.02336,0.01558l1.90879,0l0.00234,-0.00409l0.06966,-0.01742l0.06231,-0.03115l0.56075,-0.12461l0.55728,-0.13932h0.06966l0.07009,-0.01558l0.02336,0.01558h4.89291l0.0854,-0.01898l0.55728,-0.13932h0.06966l0.07009,-0.01558l0.02336,0.01558h1.57333l0.02336,-0.01558l0.07009,0.01558h0.06966l0.55728,0.13932l0.56075,0.12461l0.06231,0.03115l0.06966,0.01742l0.01393,0.02438l0.01178,0.00589l0.21526,0.07175l1.50785,0.37696h0.32543l0.45934,0.11484l0.46914,0.06397l0.63395,0.25358l0.17001,0.0425h0.32543l0.38988,0.09747l0.40069,0.03082l0.35731,0.1191l0.03348,0.00837l0.40069,0.03082l0.09002,0.03001l1.00949,0l0.0854,-0.01898l0.55728,-0.13932h0.06966l0.07009,-0.01558l0.02336,0.01558l0.61888,0l0.0854,-0.01898l0.55728,-0.13932h0.06966l0.07009,-0.01558l0.02336,0.01558l2.99334,0l0.0854,-0.01898l0.55728,-0.13932h0.06966l0.07009,-0.01558l0.02336,0.01558h0.78667l0.38988,0.09747l0.40069,0.03082l0.09002,0.03001h0.70239l0.45934,0.11484l0.46914,0.06397l0.34447,0.13779h0.31003l0.29857,0.07464h0.30776l0.33461,0.08365h0.95862l0.38988,0.09747l0.40069,0.03082l0.09002,0.03001l8.45896,0l0.45934,0.11484l0.46914,0.06397l0.79149,0.31659l0.212,0.15311l0.24627,0.08795l0.11459,0.07639l0.21308,0.05327l0.08649,0.04613l0.09774,0.00752l0.47489,0.1583l0.15181,0.09661l0.17566,0.03903l0.06231,0.03115l0.01013,0.00253l0.56075,0.12461l0.06231,0.03115l0.06966,0.01742l0.01393,0.02438l0.24183,0.12092l0.36695,0.09174l0.08649,0.04613l0.09774,0.00752l0.47489,0.1583l0.15181,0.09661l0.17566,0.03903l0.15768,0.07884l0.66366,0.22122l0.20088,0.05022l0.56075,0.12461l0.06231,0.03115l0.01013,0.00253l0.0854,0.01898h0.14881l0.38988,0.09747l0.40069,0.03082l0.09002,0.03001h0.0692l0.55728,0.13932l0.07466,0.01659l0.01979,-0.01319l0.07009,0.01558h0.00761l0.03555,-0.05925l0.31659,-0.31659l0.42292,-0.25375l0.09485,-0.16598l0.31164,-0.07791l0.27545,-0.16527l0.18443,0.0503l0.47848,-0.11962h1.74127l0.38988,0.09747l0.40069,0.03082l0.83221,0.2774l0.20088,0.05022l0.56075,0.12461l0.06231,0.03115l0.01013,0.00253l0.56075,0.12461l0.06231,0.03115l0.01013,0.00253l0.56075,0.12461l0.06231,0.03115l0.01013,0.00253l0.0854,0.01898h2.67675l0.02336,-0.01558l0.07009,0.01558h0.06966l0.55728,0.13932l0.0854,0.01898h0.61888l0.02336,-0.01558l0.07009,0.01558h0.06966l0.55728,0.13932l0.0854,0.01898h3.30994l0.02336,-0.01558l0.07009,0.01558h0.06966l0.55728,0.13932l0.0854,0.01898h0.14881l0.29857,0.07464h0.30776l0.57417,0.14354c-0.60122,-0.45657 -0.98945,-1.17905 -0.98945,-1.99222c0,-1.04515 0.64134,-1.9405 1.55194,-2.31397c1.50888,-2.22035 3.60506,-5.26061 3.82608,-5.42622zM78.13567,272.02365l0.01558,0.02336l-0.01558,0.07009v0.06966l-0.13932,0.55728l-0.12461,0.56075l-0.03115,0.06231l-0.01742,0.06966l-0.00409,0.00234v2.8539l0.01898,0.0854l0.08168,0.32673l0.19565,0.3913l0.02438,0.01393l0.01742,0.06966l0.03115,0.06231l0.12461,0.56075l0.00253,0.01013l0.03115,0.06231l0.12461,0.56075l0.13932,0.55728v0.06966l0.01558,0.07009l-0.01558,0.02336v5.70793l0.00409,0.00234l0.01742,0.06966l0.03115,0.06231l0.12461,0.56075l0.13494,0.53978l0.14216,0.35541l0.01758,0.12895l0.06503,0.11273l0.31659,1.10808l0.00577,0.17297l0.0653,0.16028l0.14006,0.98041l0.12702,0.50807l0,0.18348l0.12731,0.25461l0.03903,0.17566l0.09661,0.15181l0.47489,1.42468l0.00752,0.09774l0.04613,0.08649l0.23446,0.93784l0.00258,0.00147l0.01742,0.06966l0.03115,0.06231l0.12461,0.56075l0.12028,0.48113l0.04904,0.07707l0.1583,0.47489l0.03082,0.40069l0.09747,0.38988v0.4654l0.01898,0.0854l0.13932,0.55728l0,0.06966l0.01558,0.07009l-0.01558,0.02336l0,0.69757l0.03001,0.09002l0.03082,0.40069l0.09747,0.38988v1.25689l0.01898,0.0854l0.13932,0.55728v0.06966l0.01558,0.07009l-0.01558,0.02336l0,1.6744l0.05925,0.03555l0.79149,0.79149l0.17808,0.29681l0.29681,0.17808l0.31659,0.31659l0.06836,0.11394l0.69571,0.2319l0.06342,0.04036l0.07449,0.01016l0.35541,0.14216l0.53978,0.13494l0.55483,0.1233l0.31165,0.02397l0.35731,0.1191l0.8936,0.2234l0.04898,0.08571l0.09857,0.00548l0.06103,0.07121h1.39078l0.11213,0.02803l0.11421,-0.01777l1.62833,0.14803h2.10276l0.06531,0.01633l0.06608,-0.01287l2.942,0.15484h3.2585l0.29857,0.07464h0.30776l0.33461,0.08365h2.85336l0.02336,-0.01558l0.07009,0.01558h0.06966l0.55728,0.13932l0.56075,0.12461l0.01714,0.00857l1.23318,0.24664l1.49791,0.27235h0.56606l0.38988,0.09747l0.40069,0.03082l0.38381,0.12794l0.48233,0.12058l0.73315,0.14663l0.05509,0.0261h0.06096l0.33461,0.08365h0.41433l2.55187,-0.14177l4.7016,-1.13978l0.02535,-0.00634l0.06231,-0.03115l0.56075,-0.12461l0.55728,-0.13932l0.06966,0l0.07009,-0.01558l0.02336,0.01558h0.4507l2.04028,-0.29147l0.17899,0.01852l0.17457,-0.04364h13.61358l0.17457,0.04364l0.17899,-0.01852l0.9322,0.13317h1.5636l0.38988,0.09747l0.40069,0.03082l0.56491,0.1883h1.65217l0.17457,0.04364l0.17899,-0.01852l0.9322,0.13317h1.5636l0.29857,0.07464h0.30776l0.33461,0.08365h1.74061l0.0854,-0.01898l0.55728,-0.13932l0.06966,0l0.07009,-0.01558l0.02336,0.01558l10.76823,0l0.33461,-0.08365h0.26095l0.42129,-0.09362l0.20088,-0.05022l0.83221,-0.2774l0.40069,-0.03082l0.38988,-0.09747h0.32543l0.33461,-0.08365l0.30776,0l0.29857,-0.07464l0.74288,0l0.70593,-0.11765l0.42366,-0.08473l0.01714,-0.00857l0.3753,-0.0834l0.03108,-0.01865l0.09485,-0.16598l0.31164,-0.07791l0.27545,-0.16527l0.18443,0.0503l0.47848,-0.11962l0.04302,0l0.42192,-0.21096l0.10356,-0.02301l0.086,-0.06211l0.79149,-0.31659l0.07449,-0.01016l0.06342,-0.04036l0.88009,-0.29336l0.72328,-0.28931l0.46914,-0.06397l0.10294,-0.02574l0.35731,-0.1191l0.09774,-0.00752l0.08649,-0.04613l0.63319,-0.1583l0.30776,0l0.29857,-0.07464l0.38564,0l0.39612,-0.07922l0.25754,-0.08585l0.62673,-0.25069l0.22359,-0.11179l0.17566,-0.03903l0.15181,-0.09661l0.47489,-0.1583l0.40069,-0.03082l0.38988,-0.09747h0.01404l0.00234,-0.00409l0.06966,-0.01742l0.06231,-0.03115l0.56075,-0.12461l0.01013,-0.00253l1.18947,-0.59474l0.14915,-0.09943l0.13841,-0.27682l0.13284,-0.15498l0.00692,-0.12453l0.37626,-0.32251l0.05386,-0.06283l0.37991,-0.75983l0.26154,-0.30513l0.20676,-0.34461l0.1454,-0.1454l0.12273,-0.14319l0.20676,-0.34461l0.14155,-0.14155l0.40954,-0.61431l0.08869,-0.17738l0.26154,-0.30513l0.18401,-0.30669l0.06303,-0.25211l0.12461,-0.56075l0.03115,-0.06231l0.01742,-0.06966l0.02438,-0.01393l0.2748,-0.5496l0.00253,-0.01013l0.12461,-0.56075l0.03115,-0.06231l0.01742,-0.06966l0.02438,-0.01393l0.29631,-0.59262l0,-0.04302l0.13932,-0.55728l0.12461,-0.56075l0.03115,-0.06231l0.01742,-0.06966l0.02438,-0.01393l0.00589,-0.01178l0.06292,-0.18876l0.05022,-0.20088l0.01898,-0.0854v-0.30228l-0.01558,-0.02336l0.01558,-0.07009v-0.06966l0.13932,-0.55728l0.01898,-0.0854v-0.14399l-0.01558,-0.02336l0.01558,-0.07009v-0.06966l0.13932,-0.55728l0.12461,-0.56075l0.03115,-0.06231l0.01742,-0.06966l0.02438,-0.01393l0.00589,-0.01178l0.06292,-0.18876l0.05022,-0.20088l0.01898,-0.0854v-0.14881l0.09747,-0.38988l0.03082,-0.40069l0.03001,-0.09002v-0.0692l0.09747,-0.38988l0.03082,-0.40069l0.03001,-0.09002v-1.50271l-0.01709,-0.06838l-0.82706,-1.65411l-0.03903,-0.17566l-0.09661,-0.15181l-0.05243,-0.15728l-0.13088,-0.19633l-0.11231,-0.31447l-0.17927,-0.28172l-0.1583,-0.47489l-0.00752,-0.09774l-0.04613,-0.08649l-0.09174,-0.36695l-0.19387,-0.38773l-0.05973,-0.26876l-0.12956,-0.24293l-0.05327,-0.21308l-0.07639,-0.11459l-0.1439,-0.40291l-0.20133,-0.3775l-0.13501,-0.54004l-0.28623,-0.8587l-0.02367,-0.30776l-0.31558,-0.63116l-0.03903,-0.17566l-0.09661,-0.15181l-0.10211,-0.30634l-0.45876,-0.91751l-0.05386,-0.06283l-0.37626,-0.32251l-0.00686,-0.12348l-0.45608,-0.45608l-0.20676,-0.34461l-0.26154,-0.30513l-0.0779,-0.15581l-0.41553,-0.35617l-0.00548,-0.09857l-0.08571,-0.04898l-0.09305,-0.3722l-0.13236,-0.11345l-0.0066,-0.11872l-0.78489,-0.67276l-0.00548,-0.09857l-0.08571,-0.04898l-0.04268,-0.17073l-0.18273,-0.15662l-0.00548,-0.09857l-0.08571,-0.04898l-0.11969,-0.47878l-0.24547,-0.28638l-0.31659,-0.63319l-0.03903,-0.17566l-0.09661,-0.15181l-0.02203,-0.06609l-0.05569,-0.09281l-0.26154,-0.30513l-0.24365,-0.48729l-0.02438,-0.01393l-0.01742,-0.06966l-0.03115,-0.06231l-0.12461,-0.56075l-0.00253,-0.01013l-0.03115,-0.06231l-0.03279,-0.14756l-0.12714,-0.08091l-0.37038,-0.15595l-0.45285,-0.33964l-0.43156,-0.21578l-0.30513,-0.26154l-0.34461,-0.20676l-0.29985,-0.29985l-0.26892,-0.17928l-0.03287,-0.03616l-0.33705,-0.06741l-0.09332,-0.0442l-0.1032,-0.00344l-4.43233,-1.26638l-0.04824,-0.02783l-0.05553,-0.00427l-0.47489,-0.1583l-0.15181,-0.09661l-0.17566,-0.03903l-0.15768,-0.07884l-0.30634,-0.10211l-0.06342,-0.04036l-0.07449,-0.01016l-0.63395,-0.25358l-0.17001,-0.0425h-0.00401l-0.02336,0.01558l-0.07009,-0.01558h-0.06966l-0.55728,-0.13932l-0.0854,-0.01898h-3.30994l-0.02336,0.01558l-0.07009,-0.01558h-0.06966l-0.55728,-0.13932l-0.0854,-0.01898h-0.61888l-0.02336,0.01558l-0.07009,-0.01558h-0.06966l-0.55728,-0.13932l-0.0854,-0.01898h-2.67675l-0.02336,0.01558l-0.07009,-0.01558h-0.06966l-0.55728,-0.13932l-0.56075,-0.12461l-0.06231,-0.03115l-0.01013,-0.00253l-0.56075,-0.12461l-0.06231,-0.03115l-0.01013,-0.00253l-0.56075,-0.12461l-0.06231,-0.03115l-0.01013,-0.00253l-0.55483,-0.1233l-0.31165,-0.02397l-0.56491,-0.1883h-0.21621l-0.17471,0.20382l-0.01684,0.08422l-0.27101,0.17246l-0.20905,0.24389l-0.19087,0.0106l-0.4161,0.26479l-0.47489,0.1583l-0.40069,0.03082l-0.38988,0.09747h-0.15348l-0.02336,0.01558l-0.07009,-0.01558h-0.06966l-0.13191,-0.03298l-0.0456,0.00351l-0.02312,-0.02069l-0.35665,-0.08916l-0.07466,-0.01659l-0.01979,0.01319l-0.07009,-0.01558h-0.06966l-0.55728,-0.13932l-0.0854,-0.01898h-0.14881l-0.38988,-0.09747l-0.40069,-0.03082l-0.09002,-0.03001h-0.0692l-0.55728,-0.13932l-0.56075,-0.12461l-0.06231,-0.03115l-0.01013,-0.00253l-0.55483,-0.1233l-0.31165,-0.02397l-0.94978,-0.31659l-0.15181,-0.09661l-0.17566,-0.03903l-0.15768,-0.07884l-0.21526,-0.07175l-0.54004,-0.13501l-0.24293,-0.12956l-0.26876,-0.05973l-0.3789,-0.18945l-0.01013,-0.00253l-0.56075,-0.12461l-0.06231,-0.03115l-0.06966,-0.01742l-0.01393,-0.02438l-0.01178,-0.00589l-0.21526,-0.07175l-0.54004,-0.13501l-0.3775,-0.20133l-0.40291,-0.1439l-0.25831,-0.1722l-0.10278,-0.04111h-8.3832l-0.38988,-0.09747l-0.40069,-0.03082l-0.09002,-0.03001h-0.86069l-0.29857,-0.07464h-0.30776l-0.33461,-0.08365l-0.48372,0l-0.45934,-0.11484l-0.46914,-0.06397l-0.34447,-0.13779h-0.62663l-0.38988,-0.09747l-0.40069,-0.03082l-0.09002,-0.03001h-0.21801l-0.0854,0.01898l-0.55728,0.13932h-0.06966l-0.07009,0.01558l-0.02336,-0.01558h-2.99334l-0.0854,0.01898l-0.55728,0.13932h-0.06966l-0.07009,0.01558l-0.02336,-0.01558h-0.61888l-0.0854,0.01898l-0.55728,0.13932h-0.06966l-0.07009,0.01558l-0.02336,-0.01558h-1.57815l-0.38988,-0.09747l-0.40069,-0.03082l-0.35731,-0.1191l-0.03348,-0.00837l-0.40069,-0.03082l-0.09002,-0.03001h-0.2275l-0.29857,-0.07464h-0.30776l-0.63319,-0.1583l-0.15174,-0.08093l-0.1704,-0.02324l-0.34447,-0.13779h-0.15173l-0.29857,-0.07464h-0.30776l-1.89957,-0.47489l-0.08649,-0.04613l-0.09774,-0.00752l-0.47489,-0.1583l-0.04715,-0.03001h-1.05236l-0.0854,0.01898l-0.55728,0.13932h-0.06966l-0.07009,0.01558l-0.02336,-0.01558h-4.59984l-0.00234,0.00409l-0.06966,0.01742l-0.06231,0.03115l-0.56075,0.12461l-0.55728,0.13932h-0.06966l-0.07009,0.01558l-0.02336,-0.01558h-2.20185l-0.0854,0.01898l-0.01013,0.00253l-0.06231,0.03115l-0.56075,0.12461l-0.55728,0.13932h-0.06966l-0.07009,0.01558l-0.02336,-0.01558h-0.27787l-0.06103,0.07121l-0.09857,0.00548l-0.04898,0.08571l-0.17073,0.04268l-0.15662,0.18273l-0.09857,0.00548l-0.04898,0.08571l-0.70285,0.17571l-0.233,0.1165l-0.01393,0.02438l-0.06966,0.01742l-0.06231,0.03115l-0.56075,0.12461l-0.01013,0.00253l-0.06231,0.03115l-0.45911,0.10202l-0.18555,0.11133l-0.30513,0.26154l-0.31659,0.1583l-0.12389,0.02753l-0.01464,0.00878l-0.01117,-0.00305l-0.02596,0.00577l-0.15181,0.09661l-0.06609,0.02203l-0.09281,0.05569l-0.30513,0.26154l-0.90352,0.45176l-0.02973,0.02973l-0.42292,0.25375l-0.09485,0.16598l-0.31164,0.07791l-0.27545,0.16527l-0.16222,-0.04424l-0.01585,0.00793l-0.56075,0.12461l-0.20088,0.05022l-0.35731,0.1191l-0.40069,0.03082l-0.38988,0.09747h-0.14881l-0.0854,0.01898l-0.55728,0.13932h-0.06966l-0.07009,0.01558l-0.02336,-0.01558h-0.14399l-0.0854,0.01898l-0.55728,0.13932h-0.01404l-0.00234,0.00409l-0.06966,0.01742l-0.06231,0.03115l-0.49864,0.11081l-0.00743,0.00637l-0.32251,0.37626l-0.12453,0.00692l-0.15498,0.13284l-0.1707,0.08535l-0.01393,0.02438l-0.06966,0.01742l-0.06231,0.03115l-0.24932,0.0554l-0.06321,0.05418l-0.04268,0.17073l-0.08571,0.04898l-0.00548,0.09857l-0.97828,0.83853l-0.12664,0.06332l-0.06283,0.05386l-0.32251,0.37626l-0.12453,0.00692l-0.15498,0.13284l-0.12664,0.06332l-0.06283,0.05386l-0.32251,0.37626l-0.12453,0.00692l-0.15498,0.13284l-0.12664,0.06332l-0.06283,0.05386l-0.32251,0.37626l-0.12453,0.00692l-0.15498,0.13284l-0.49398,0.24699l-0.34539,0.23026l-0.03555,0.0127l-0.0262,0.02717l-1.26638,0.79149l-0.10028,0.03252l-0.09014,0.09014c0,0 0,0 0,0c-0.13504,0.13504 -0.28546,0.25471 -0.44841,0.35614l-0.05573,0.72453l-0.03001,0.09002v0.85586l0.01558,0.02336l-0.01558,0.07009v0.06966l-0.13932,0.55728l-0.01898,0.0854z" fill="#4a0b15" stroke-width="0.5"/><path d="M76.08343,255.36879c0.14794,0.17259 0.27664,0.3443 0.38729,0.51433c0.5347,0.45851 0.87347,1.13898 0.87347,1.89858c0,1.38071 -1.11929,2.5 -2.5,2.5c-0.6444,0 -1.23186,-0.24381 -1.67516,-0.64421c-0.38669,-0.15661 -0.7741,-0.38957 -1.14706,-0.70926c-1.93066,-1.65485 -6.8957,-8.34306 -3.51963,-10.03109c2.57679,-1.28839 5.63893,4.90676 7.45656,6.46473z" fill="#4a0b15" stroke-width="0.5"/><path d="M86.7778,253.9606c-1.83189,-1.66635 -2.71235,-6.05357 -3.28348,-8.33807c-0.75563,-3.02253 2.29867,-3.97875 4.61818,-2.22951c1.09427,0.82524 2.16426,6.24127 2.69851,7.84405c0.09499,0.2642 0.14675,0.54902 0.14675,0.84593c0,1.38071 -1.11929,2.5 -2.5,2.5c-0.19231,0 -0.37955,-0.02171 -0.55939,-0.06282c-0.39186,-0.06776 -0.77593,-0.24608 -1.12057,-0.55957z" fill="#4a0b15" stroke-width="0.5"/><path d="M104.9207,251.41705c-1.1563,-0.66075 -1.95567,-1.93654 -2.35702,-3.33537c-0.78452,-2.73427 -0.04832,-5.93866 2.51532,-5.93866c2.77585,0 3.15483,7.38082 1.99624,8.04287z" fill="#4a0b15" stroke-width="0.5"/><path d="M119.99171,246.11071c0.12993,-1.64279 -0.85275,-3.76861 0.3125,-4.93386c4.26744,-4.26744 5.25612,2.96523 4.6875,5.52403c-0.45777,2.05998 -1.979,4.66268 -3.79351,5.89545c-0.12467,0.0847 -0.27179,0.15546 -0.43469,0.21154c-0.29635,0.12378 -0.62162,0.19215 -0.96285,0.19215c-0.22761,0 -0.44812,-0.03042 -0.65769,-0.08741c-1.13115,-0.19118 -2.15682,-0.92764 -1.84146,-2.34675c-0.00057,-0.02188 -0.00085,-0.04382 -0.00085,-0.06584c0,-1.02913 0.62184,-1.91303 1.51028,-2.29644c0.58526,-0.68749 1.12348,-1.3685 1.18077,-2.09287z" fill="#4a0b15" stroke-width="0.5"/><path d="M130.59355,244.02621c5.01491,-5.01491 5.10242,5.08157 4.6875,6.94871c-0.26595,1.19678 -0.64547,2.62204 -1.73565,3.36269c-0.12467,0.0847 -0.27179,0.15546 -0.43469,0.21154c-0.29635,0.12378 -0.62162,0.19215 -0.96285,0.19215c-0.22761,0 -0.44812,-0.03042 -0.65769,-0.08741c-1.13115,-0.19118 -2.15682,-0.92764 -1.84146,-2.34675c-0.00057,-0.02188 -0.00085,-0.04382 -0.00085,-0.06584c0,-0.28293 0.047,-0.55489 0.13362,-0.80849c0.24929,-2.47111 -0.54913,-6.04539 0.81207,-7.4066z" fill="#4a0b15" stroke-width="0.5"/><path d="M143.86187,254.1081c-1.55312,-0.88749 -2.12728,-2.3587 -2.07519,-3.89458c0.44899,-0.6668 1.21087,-1.10542 2.07519,-1.10542c1.38071,0 2.5,1.11929 2.5,2.5c0,1.38071 -1.11929,2.5 -2.5,2.5c-1.38071,0 -2.5,-1.11929 -2.5,-2.5c0,-0.51639 0.15656,-0.99621 0.42481,-1.39458c0.08441,-2.48853 1.81289,-5.14685 3.6853,-5.76725c4.81685,-1.596 3.38066,3.1389 1.9474,5.26075c-0.43933,0.6504 -1.04447,2.96507 -1.40297,3.16992z" fill="#4a0b15" stroke-width="0.5"/><path d="M161.3308,251.16293c0,1.58547 -4.09651,4.33013 -6.86178,5.21895c-0.32909,0.16321 -0.69925,0.25607 -1.09082,0.25891c-0.62932,0.08171 -1.09686,-0.01207 -1.28733,-0.34539c-0.73685,-0.43488 -1.23117,-1.23698 -1.23117,-2.15454c0,-1.34331 1.05947,-2.43917 2.38838,-2.49755c3.14302,-2.60413 8.08271,-5.17903 8.08271,-0.48038z" fill="#4a0b15" stroke-width="0.5"/><path d="M176.02901,260.15616c0.16542,-0.55999 0.53137,-1.26614 1.03146,-2.02343c2.44381,-3.70068 8.09082,-8.62242 9.19236,-3.67528c0.67924,3.05053 -4.0458,4.94992 -5.31091,6.93795c-0.34626,0.54413 -1.97535,1.6612 -2.58475,1.25494z" fill="#4a0b15" stroke-width="0.5"/><path d="M191.66769,260.98041c2.80596,0.42952 2.86175,2.74549 1.25,4.6875c-1.3994,1.68615 -5.81043,3.67686 -8.05587,3.19186c-1.28982,-0.27859 -3.72807,-3.51078 -1.83886,-4.59033c0.43488,-0.73685 1.23698,-1.23117 2.15454,-1.23117c0.33454,0 0.65372,0.06571 0.94536,0.18492c2.18588,0.07053 2.84146,-2.65661 5.54483,-2.24279z" fill="#4a0b15" stroke-width="0.5"/><path d="M190.73645,275.3699c1.25121,-0.05858 6.09283,-1.46918 7.10239,-0.28073c1.15188,1.35598 4.64347,1.32059 3.03,4.54753c-0.37558,0.75116 -1.30596,1.11358 -2.09631,1.39754c-0.80629,0.28969 -2.29987,-0.90964 -2.8421,-1.28196c-0.87844,-0.60317 -6.98165,2.57086 -7.15266,-0.50738c-0.25403,-0.39131 -0.40157,-0.85814 -0.40157,-1.35944c0,-1.22776 0.88504,-2.24881 2.05193,-2.45996c0.09689,-0.03131 0.19936,-0.05052 0.30832,-0.05562z" fill="#4a0b15" stroke-width="0.5"/><path d="M193.85672,284.97042c2.01204,1.36697 6.11323,3.86618 6.73184,6.34062c0.37915,1.51661 -0.3899,3.47951 -2.43068,3.47951c-0.02857,0 -4.6048,-3.57933 -6.78846,-5.47319c-0.47785,-0.2318 -0.87075,-0.61131 -1.11937,-1.07918c-0.18568,-0.34943 -0.29088,-0.74815 -0.29088,-1.17144c0,-1.38071 1.11929,-2.5 2.5,-2.5c0.22224,0 0.4377,0.029 0.64282,0.08342c0.26658,0.05737 0.5226,0.16256 0.75473,0.32027z" fill="#4a0b15" stroke-width="0.5"/><path d="M192.65593,304.18999c0.69163,2.32591 -0.67616,4.70441 -3.21435,3.63361c-1.77099,-0.74714 -2.9779,-3.0965 -3.7866,-4.71389c-0.18291,-0.34741 -0.28642,-0.74312 -0.28642,-1.16302c0,0 0,0 0,0c0,-0.02865 0.00048,-0.05718 0.00144,-0.0856c0.0642,-3.09504 1.41134,-3.26664 2.93151,-2.37705c0.84667,0.14782 1.54694,0.72163 1.87181,1.49243c1.26977,1.24308 2.33259,2.70901 2.48261,3.21352z" fill="#4a0b15" stroke-width="0.5"/><path d="M177.89582,309.57772c1.05594,0.60339 1.89687,1.81429 2.40687,3.17835c1.07218,2.86767 0.68172,6.41228 -2.24858,6.41228c-2.80215,0 -3.26766,-7.81385 -2.31284,-8.35946z" fill="#4a0b15" stroke-width="0.5"/><path d="M63.99086,271.04593c-1.224,-0.05836 -5.64866,0.58186 -6.54301,-0.3125c-1.66667,-1.66667 -1.66667,-2.70833 0,-4.375c1.45247,-1.45247 13.06831,0.02916 12.21886,3.14378c0.0517,0.20027 0.0792,0.41027 0.0792,0.6267c0,1.38071 -1.11929,2.5 -2.5,2.5c-0.76143,0.58953 -2.43109,-1.54369 -3.25505,-1.58297z" fill="#4a0b15" stroke-width="0.5"/><path d="M70.55297,281.06997c1.14692,2.16743 -9.1388,6.77331 -9.62042,6.61277c-5.98298,-1.99433 1.56233,-7.07509 4.28142,-7.67933c0.21668,-0.39257 0.53583,-0.72067 0.9214,-0.94822c1.36096,-2.38168 3.92589,1.08557 4.4176,2.01478z" fill="#4a0b15" stroke-width="0.5"/><path d="M64.57476,296.09963c-0.72679,1.1085 -1.69688,1.94664 -3.3541,1.11803c-5.38569,-2.69284 3.92144,-9.20306 5.89938,-10.19203c0.45428,-0.62665 1.19227,-1.03423 2.02544,-1.03423c1.38071,0 2.5,1.11929 2.5,2.5c0,1.03439 -0.62821,1.92205 -1.52391,2.30228c-1.56748,1.74138 -4.35968,3.49535 -5.54681,5.30595z" fill="#4a0b15" stroke-width="0.5"/><path d="M75.35752,299.70339c-1.9857,2.92275 -6.72229,3.65977 -8.86867,6.38199c-0.60903,0.77242 -1.38183,3.14663 -2.43603,3.49803c-2.99631,0.99877 -5.02708,-1.86397 -3.17726,-4.12705c3.28809,-4.02265 6.70696,-5.7036 10.63442,-9.06999l0.58821,-0.2941c0.34741,-0.18291 0.74312,-0.28642 1.16302,-0.28642c1.04498,0 1.94021,0.64114 2.31379,1.55151c0.37903,0.62457 0.40397,1.43132 -0.21748,2.34604z" fill="#4a0b15" stroke-width="0.5"/><path d="M72.14318,318.27123c-0.75116,-0.37558 -1.13197,-1.29959 -1.39754,-2.09631c-0.39842,-1.19526 1.98466,-4.32198 2.23174,-5.68016c0,-0.14888 0.01301,-0.29473 0.03797,-0.43646c0.20646,-1.17263 1.2302,-2.06354 2.46203,-2.06354c1.38071,0 2.5,1.11929 2.5,2.5c0,0.39481 -0.09152,0.76825 -0.25451,1.10026c0.13885,3.57229 -3.53545,7.69834 -5.57969,6.67622z" fill="#4a0b15" stroke-width="0.5"/><path d="M91.35801,319.53572c0.08947,0.72681 0.71395,4.07931 -0.23786,5.03112c-4.13592,4.13592 -4.6307,-2.04205 -4.6875,-4.42478c-0.03049,-1.27891 -0.31659,-2.55267 -0.31659,-3.83808c-0.20165,-0.36053 -0.31659,-0.77615 -0.31659,-1.2186c0,-1.38071 1.11929,-2.5 2.5,-2.5c0.2349,0 0.46224,0.0324 0.67778,0.09297c2.18682,-0.49967 2.0007,3.77009 2.38077,6.85738z" fill="#4a0b15" stroke-width="0.5"/><path d="M98.77986,315.08538c0.02172,-1.68227 1.73045,-2.72055 3.14282,-2.41658c0.26658,0.05737 0.5226,0.16256 0.75473,0.32027c2.31579,1.57333 4.89146,4.84282 5.58745,7.62677c0.67789,2.71156 2.33857,8.00196 -2.84212,6.53859c-1.63548,-0.46197 -1.49093,-4.02158 -2.02606,-5.25293c-1.02595,-2.36071 -3.29871,-3.58977 -4.33038,-5.65311z" fill="#4a0b15" stroke-width="0.5"/><path d="M116.97121,316.5001c0.8214,1.88467 1.44892,5.85934 0.10973,7.59185c-0.98265,1.27125 -3.3753,1.38324 -4.375,0c-1.14727,-1.58742 0.3903,-4.16145 -0.50097,-5.94399c-0.18291,-0.34741 -0.28642,-0.74312 -0.28642,-1.16302c0,-0.03416 0.00068,-0.06815 0.00204,-0.10197c0.06824,-2.50279 1.43755,-2.86882 2.75105,-2.38537c0.97017,0.09754 1.77673,0.74977 2.09776,1.63477c0.08083,0.12292 0.14884,0.2462 0.20181,0.36773z" fill="#4a0b15" stroke-width="0.5"/><path d="M124.39128,311.79389c0.63268,0.36153 1.50434,0.48569 1.99291,0.99036c0.07451,0.07697 0.14011,0.16278 0.19459,0.25964c0.00708,0.01258 0.01615,0.04261 0.02705,0.08884c0.1823,0.34696 0.28545,0.74202 0.28545,1.16116c0,0.1378 -0.01115,0.27299 -0.03259,0.40473c0.51481,3.61049 1.4992,11.92523 1.31455,12.87371c-0.306,1.57183 -2.40363,2.72901 -3.91312,1.95656c-2.03016,-1.0389 -2.15811,-11.50157 -2.21054,-13.50256c-0.01947,-0.74327 -0.62426,-2.5376 0.18716,-3.00128z" fill="#4a0b15" stroke-width="0.5"/><path d="M135.7887,311.63559c0.63268,0.36153 1.50434,0.48569 1.99291,0.99036c0.07451,0.07697 0.14011,0.16278 0.19459,0.25964c1.12461,1.99927 1.27793,11.98147 -2.1875,11.98147c-3.75816,0 -2.51328,-6.38232 -2.5,-8.2082c0.00923,-1.26924 -0.75657,-3.16237 0.34546,-3.79211z" fill="#4a0b15" stroke-width="0.5"/><path d="M152.55104,315.10392c0.10325,2.20525 -2.75422,9.76314 -4.41515,9.76314c-5.52963,0 -0.92682,-6.40106 -0.91703,-8.50647c0.00344,-0.73944 0.42171,-3.15782 1.45716,-3.21534c0.39131,-0.25403 0.85814,-0.40157 1.35944,-0.40157c1.22776,0 2.24881,0.88504 2.45996,2.05193c0.03131,0.09689 0.05052,0.19936 0.05562,0.30832z" fill="#4a0b15" stroke-width="0.5"/><path d="M165.04599,320.71998c0.2338,1.07206 2.21113,1.34131 2.21113,2.43857c0,2.38336 -3.08442,3.15672 -4.69978,2.1875c-1.48178,-0.88907 -4.39838,-8.24714 -4.02016,-9.63397c-0.0517,-0.20027 -0.0792,-0.41027 -0.0792,-0.6267c0,-1.38071 1.11929,-2.5 2.5,-2.5c0.69888,0 1.33079,0.28678 1.78446,0.74908c1.47287,1.06998 1.73722,4.78868 2.30355,7.38552z" fill="#4a0b15" stroke-width="0.5"/></g></g></svg>