<svg version="1.1" xmlns="http://www.w3.org/2000/svg" xmlns:xlink="http://www.w3.org/1999/xlink" width="265.49465" height="182.56738" viewBox="0,0,265.49465,182.56738"><g transform="translate(-109.22418,-107.15145)"><g data-paper-data="{&quot;isPaintingLayer&quot;:true}" fill-rule="nonzero" stroke="none" stroke-width="0.5" stroke-linecap="butt" stroke-linejoin="miter" stroke-miterlimit="10" stroke-dasharray="" stroke-dashoffset="0" style="mix-blend-mode: normal"><path d="M293.44189,115.94433c-0.9111,-0.14218 -1.84425,-0.30412 -2.84234,-0.47661c-5.81766,-1.00541 -12.15283,0.94305 -18,0c-1.04064,-0.16784 -1.9613,-0.82049 -3,-1c-3.87397,-0.6695 -8.10139,0.62878 -12,0c-1.04064,-0.16784 -1.9613,-0.82049 -3,-1c-3.27568,-0.56611 -7.27807,0.03228 -10.59954,0.03228c-3.94349,0 -8.41078,0.40765 -12.30546,-0.01873c-1.36621,-0.14957 -2.64016,-0.80068 -4,-1c-5.61036,-0.82235 -12.01316,0.01873 -17.69454,0.01873c-3.65547,0 -8.00782,-0.65301 -11.59954,-0.03228c-1.0387,0.17951 -1.96019,0.82709 -3,1c-3.1453,0.52304 -6.2872,0.2463 -9.30208,1.77807c-3.11685,1.58358 -5.61908,2.90231 -9,4c-4.34041,2.91427 -8.42298,6.43166 -12.51341,9.68757c-2.21735,1.76497 -3.8375,4.72621 -6.27064,6.19327c-2.588,1.56043 -3.72139,0.85962 -6.21595,2.11916c-2.2116,1.11667 -4.25676,2.79905 -6.69792,3.22193c-0.8043,0.13933 -1.68175,-0.45073 -2.44375,-0.15802c-0.6614,0.25406 -0.82625,1.17151 -1.37174,1.62366c-2.7227,2.25679 -5.2855,4.30271 -7.81721,6.83441c-1.10874,1.10874 -2.88552,1.72921 -3.45807,3.18894c-0.73029,1.8619 0.09608,4.00231 0,6c-2.77237,2.77237 -1.78231,4.74315 -2.9094,8.74226c-0.79995,2.83838 -2.46442,5.79622 -2.93258,8.70149c-0.15909,0.98726 0.1644,2.01361 0,3c-0.84616,5.07697 -1.84562,10.9645 -4.22193,15.69792c-0.48068,0.95747 -1.51242,1.61033 -1.85306,2.62608c-0.28372,0.84604 0.2231,1.79602 0.07499,2.676c-0.34992,2.07894 -1.65207,3.92072 -2,6c-0.76151,4.55088 0.03228,9.97188 0.03228,14.59954c-0.03438,3.62118 -1.45991,5.97989 -2.03228,9.40046c-0.44355,2.6507 0.03228,5.90833 0.03228,8.59954c0,1.75888 -0.69741,3.61862 -0.10727,5.27554c0.35946,1.00925 1.37238,1.66861 1.85306,2.62608c1.78315,3.5519 1.37885,6.32395 4.50131,9.31018c5.48831,5.24885 12.84766,6.23092 19.35128,9.54241c3.05675,1.55642 5.18806,4.11199 8,6c3.38092,1.09769 5.88315,2.41642 9,4c1.05576,0.5364 6.92881,1.96931 7.13337,2.07029c0.84542,0.41733 1.16731,1.55783 2,2c2.54,1.34879 3.53596,0.26998 6.16871,0.70778c1.03981,0.17291 1.9613,0.82049 3,1c6.1558,1.06385 12.91362,-1.14558 19.07231,0.01283c1.65116,0.31057 3.04459,1.49126 4.6826,1.86504c4.46891,1.01978 9.61301,-0.44793 14.15009,0.10858c2.23858,0.27458 4.43924,0.99695 6.69454,0.98127c3.67308,0 7.66989,-0.4272 11.30546,0.01873c1.36415,0.16732 2.63667,0.82614 4,1c4.05079,0.51659 8.5996,-0.01873 12.69454,-0.01873c6.55086,0 13.29154,0.44615 19.82278,0.00629c3.1747,-0.21381 6.13523,-1.69675 9.23389,-2.41978c1.66073,-0.38751 3.41376,-0.19747 5.0909,-0.50629c5.37606,-0.98992 10.75761,-2.78986 16.11461,-3.96887c3.79037,-1.52365 7.94535,-2.75451 11.50609,-4.78687c1.82617,-1.04232 3.11901,-2.86155 4.9174,-3.95111c0.90154,-0.54621 2.09352,-0.46203 3,-1c1.90519,-1.13067 3.23921,-3.11882 5.21595,-4.11916c2.64046,-1.33622 6.27902,-1.35502 8.78405,-2.88084c1.89208,-1.15248 3.24175,-3.11382 5.21595,-4.11916c0.86737,-0.4417 1.92076,-0.43123 2.78405,-0.88084c1.7442,-0.9084 1.24789,-2.336 2.06854,-3.97175c2.67425,-5.33044 7.05263,-9.59689 10.31243,-14.48659c2.5453,-2.5453 3.13301,-4.40744 4.68757,-7.51341c0.52377,-1.04649 1.49894,-1.8372 1.9595,-2.91301c0.54089,-1.26346 0.45813,-2.73696 1,-4c0.48632,-1.13356 1.48668,-1.98484 2.0405,-3.08699c2.27946,-4.53633 3.3438,-9.81917 4.85937,-14.6466c0.86994,-2.77097 2.44009,-5.79525 2.9187,-8.65547c0.36306,-2.16971 -0.03228,-4.39967 -0.03228,-6.59954c0,-4.09494 0.53532,-8.64376 0.01873,-12.69454c-0.29412,-2.30636 -0.99729,-4.57999 -0.98645,-6.905c-1.31773,-3.9532 -1.3477,-7.95203 -2,-12c-0.31416,-1.94958 -1.27953,-3.73649 -1.90399,-5.60989c-0.92536,-2.77608 -1.58317,-6.0689 -2.87408,-8.69219c-0.90664,-1.84241 -2.88458,-2.98853 -3.88084,-4.78405c-0.37369,-0.67349 0.26274,-1.80067 -0.33515,-2.28622c-0.51438,-0.41773 -1.28377,0.54049 -1.93868,0.43961c-1.36301,-0.20995 -2.71316,-0.66274 -3.91387,-1.34109c-0.82087,-0.46375 -1.19155,-1.51493 -2,-2c-0.90388,-0.54233 -2.09612,-0.45767 -3,-1c-0.80845,-0.48507 -1.19155,-1.51493 -2,-2c-0.90388,-0.54233 -2.09612,-0.45767 -3,-1c-0.80845,-0.48507 -1.19707,-1.50584 -2,-2c-1.63245,-1.0047 -3.65775,-1.14876 -5.47624,-1.75492c-1.75954,-0.60946 -3.67177,-0.62521 -5.51489,-0.89044c-5.44327,-0.78331 -10.73015,-3.13587 -16.095,-4.01355c-0.98688,-0.16145 -2.01439,0.16905 -3,0c-4.40653,-0.75579 -8.84007,-2.95303 -13.20588,-4.04236l-2.51169,-1.18929c0,0 -0.19449,-0.09725 -0.44008,-0.29174zM302.4969,114.15039c2.63913,0.95618 5.30102,1.96251 7.90355,2.38189c0.98726,0.15909 2.01405,-0.16706 3,0c5.31503,0.90061 10.51835,3.22281 15.905,3.98645c2.1714,0.30783 4.39834,0.43492 6.48511,1.10956c0.66014,0.22005 6.16814,2.03616 6.52376,2.24508c0.81291,0.47757 1.19155,1.51493 2,2c0.90388,0.54233 2.09612,0.45767 3,1c0.80845,0.48507 1.19155,1.51493 2,2c0.90388,0.54233 2.09612,0.45767 3,1c0.80845,0.48507 1.20977,1.48578 2,2c1.74474,1.13533 4.46242,-0.12369 6.14745,1.09852c1.09816,0.79654 0.93535,2.56999 1.66485,3.71378c1.19131,1.86787 3.11882,3.23921 4.11916,5.21595c1.40994,2.78613 2.13662,6.33991 3.12592,9.30781c0.15647,0.4694 2.04927,6.11762 2.09601,6.39011c0.69332,4.04227 0.68044,8.04132 2,12c0.01046,2.38899 0.7227,4.72376 1.01355,7.095c0.52335,4.26675 0.01873,8.99513 0.01873,13.30546c0,2.46684 0.37206,4.96698 -0.03228,7.40046c-0.51564,3.10333 -2.13723,6.33802 -3.0813,9.34453c-1.59364,5.07515 -2.76068,10.57084 -5.14063,15.3534c-0.52136,1.04769 -1.49894,1.8372 -1.9595,2.91301c-0.54089,1.26346 -0.45813,2.73696 -1,4c-0.48632,1.13356 -1.48931,1.98352 -2.0405,3.08699c-1.63529,3.27381 -2.6219,5.79606 -5.31243,8.48659c-3.0408,4.56121 -7.20848,8.53796 -9.68757,13.51341c-1.06988,2.14721 -1.92204,4.71776 -3.93146,6.02825c-0.95072,0.62004 -2.19665,0.61982 -3.21595,1.11916c-1.84402,0.90336 -3.01815,2.83297 -4.78405,3.88084c-2.74866,1.63103 -6.36297,1.71523 -9.21595,3.11916c-1.84241,0.90664 -3.02783,2.81682 -4.78405,3.88084c-0.90154,0.54621 -2.09352,0.46203 -3,1c-1.86273,1.10547 -3.20759,2.96439 -5.0826,4.04889c-3.8542,2.22924 -8.37644,3.57365 -12.49391,5.21313c-5.53454,1.24065 -11.12068,3.07681 -16.68153,4.10831c-1.6007,0.29692 -3.27718,0.08792 -4.86245,0.45853c-3.35397,0.78409 -6.58169,2.28285 -10.01662,2.53823c-6.63326,0.49318 -13.51982,0.00629 -20.17722,0.00629c-4.31032,0 -9.03871,0.50462 -13.30546,-0.01873c-1.36415,-0.16732 -2.63667,-0.82614 -4,-1c-3.42547,-0.43684 -7.23106,0.01873 -10.69454,0.01873c-2.45868,-0.01393 -4.8665,-0.7077 -7.30546,-1.01873c-4.74528,-0.60516 -9.84956,0.84481 -14.56514,-0.17751c-1.61569,-0.35028 -2.9803,-1.52842 -4.60217,-1.84887c-2.46154,-0.48634 -5.01811,0.04511 -7.52723,0.04511c-5.92026,0 -11.56771,-0.07196 -17.30546,-1.01873c-1.67614,-0.27657 -3.39316,-0.57404 -4.92629,-1.30577c-0.85087,-0.4061 -1.1593,-1.57325 -2,-2c-2.12005,-1.07615 -4.7341,-0.87851 -6.86663,-1.92971c-3.19705,-1.57595 -5.5551,-2.82742 -9,-4c-2.67996,-1.77745 -5.11617,-4.59089 -8,-6c-4.12124,-2.01374 -8.97845,-2.89922 -13.03607,-5.018c-4.36168,-2.27755 -8.60768,-5.79198 -11.08,-10.06752c-1.26154,-2.18166 -0.95114,-3.89288 -2.03134,-6.06189c-0.59425,-1.19324 -1.74347,-2.10342 -2.14694,-3.37392c-0.37592,-1.18375 -0.08746,-2.48262 -0.10727,-3.72446c-0.06238,-3.91021 -0.60754,-8.54975 0.03228,-12.40046c0.54101,-3.25604 2.00942,-5.24113 1.96772,-8.59954c0,-4.90867 -0.77115,-10.56503 0.03228,-15.40046c0.34555,-2.07967 1.65683,-3.91993 2,-6c0.18041,-1.0935 -0.27397,-2.27209 0.07499,-3.324c0.41972,-1.26523 1.55269,-2.18068 2.14694,-3.37392c2.1422,-4.30145 3.01125,-9.70117 3.77807,-14.30208c0.1644,-0.98639 -0.16905,-2.01439 0,-3c0.53684,-3.12999 2.18171,-6.24615 3.06742,-9.29851c0.68176,-2.34949 0.21309,-4.97413 1.0906,-7.25774c0.33818,-0.88007 1.33333,-1.33333 2,-2c-0.15251,-1.63757 -0.53247,-4.68108 0,-6c0.47293,-1.17144 1.6747,-1.89244 2.54193,-2.81106c3.19635,-3.38575 6.53309,-6.32771 10.18279,-9.16559c0.93239,-0.725 1.53538,-1.92849 2.62826,-2.37634c1.09797,-0.44994 2.38453,0.02921 3.55625,-0.15802c2.87645,-0.45962 2.46526,-1.37225 5.30208,-2.77807c1.81657,-0.90022 4.04222,-0.84337 5.78405,-1.88084c2.15155,-1.28151 3.76189,-4.22541 5.72936,-5.80673c4.37722,-3.51812 8.80015,-7.20422 13.48659,-10.31243c3.4449,-1.17258 5.80295,-2.42405 9,-4c3.48286,-1.71683 7.06901,-1.61571 10.69792,-2.22193c1.03969,-0.17368 1.95936,-0.83216 3,-1c3.89931,-0.62889 8.44504,-0.03228 12.40046,-0.03228c5.90986,0 12.45875,-0.79658 18.30546,0.01873c1.3612,0.18982 2.6343,0.84587 4,1c3.68254,0.41561 7.97081,-0.01873 11.69454,-0.01873c3.62271,0 7.81833,-0.54545 11.40046,0.03228c1.04064,0.16784 1.9613,0.82049 3,1c3.87397,0.6695 8.10139,-0.62878 12,0c1.04064,0.16784 1.9613,0.82049 3,1c5.81766,1.00541 12.15283,-0.94305 18,0c1.03639,0.16715 1.95377,0.81516 2.98726,0.99777c0.60072,-0.12052 1.16954,0.02362 1.48199,0.13309c1.36982,0.02629 2.7574,-0.16314 4.13029,-0.16314c0,0 2.5,0 2.5,2.5c0,0.05117 -0.00105,0.10129 -0.0031,0.15039z" fill="#000000"/><path d="M293.90867,116.1938l2.51288,1.19006c4.36581,1.08933 8.80447,3.29051 13.211,4.04631c0.98561,0.16905 2.01392,-0.16073 3.0008,0.00072c5.36485,0.87768 10.65618,3.2349 16.09945,4.0182c1.84312,0.26523 3.75648,0.28239 5.51603,0.89184c1.81849,0.60616 3.84497,0.7518 5.47743,1.7565c0.80293,0.49416 1.19221,1.51587 2.00066,2.00095c0.90388,0.54233 2.09669,0.45853 3.00057,1.00085c0.80845,0.48507 1.19215,1.51587 2.0006,2.00095c0.90388,0.54233 2.09663,0.4585 3.00051,1.00083c0.80845,0.48507 1.17968,1.53718 2.00055,2.00094c1.20071,0.67835 2.55144,1.1322 3.91445,1.34214c0.65491,0.10088 1.4244,-0.85717 1.93878,-0.43943c0.59789,0.48556 -0.03816,1.61347 0.33553,2.28696c0.99626,1.79552 2.97519,2.94371 3.88183,4.78611c1.29091,2.62329 1.95005,5.91933 2.87541,8.69541c0.62446,1.87339 1.59057,3.66245 1.90473,5.61202c0.6523,4.04797 0.68348,8.05128 2.00121,12.00449c-0.01084,2.32501 0.69284,4.60129 0.98696,6.90764c0.51659,4.05079 -0.01817,8.60447 -0.01817,12.69941c0,2.19987 0.39545,4.43242 0.03239,6.60212c-0.47861,2.86023 -2.04883,5.88795 -2.91877,8.65892c-1.51556,4.82743 -2.58061,10.11636 -4.86008,14.65269c-0.55382,1.10215 -1.55444,1.95482 -2.04077,3.08838c-0.54187,1.26304 -0.45948,2.73822 -1.00038,4.00167c-0.46056,1.07581 -1.43608,1.86786 -1.95985,2.91435c-1.55456,3.10597 -2.14335,4.97157 -4.68865,7.51687c-3.2598,4.88971 -7.64124,9.16308 -10.31549,14.49352c-0.82065,1.63576 -0.32531,3.06507 -2.06951,3.97347c-0.86329,0.44961 -1.91719,0.43997 -2.78455,0.88167c-1.9742,1.00534 -3.32543,2.96907 -5.21751,4.12155c-2.50503,1.52582 -6.14572,1.54745 -8.78618,2.88368c-1.97674,1.00034 -3.31282,2.99088 -5.21801,4.12155c-0.90648,0.53797 -2.0994,0.45479 -3.00094,1.00099c-1.79838,1.08957 -3.09346,2.91096 -4.91963,3.95328c-3.56074,2.03236 -7.72042,3.26701 -11.5108,4.79066c-5.357,1.179 -10.74577,2.98322 -16.12183,3.97314c-1.67714,0.30882 -3.43259,0.11987 -5.09332,0.50738c-3.09866,0.72303 -6.06415,2.20775 -9.23885,2.42156c-6.53124,0.43986 -13.2828,-0.0043 -19.83366,-0.0043c-4.09494,0 -8.65111,0.53529 -12.7019,0.01871c-1.36333,-0.17386 -2.63821,-0.83292 -4.00236,-1.00024c-3.63557,-0.44593 -7.63866,-0.01993 -11.31174,-0.01993c-2.2553,0.01568 -4.45959,-0.70777 -6.69817,-0.98235c-4.53708,-0.55651 -9.68776,0.90842 -14.15667,-0.11136c-1.63801,-0.37378 -3.03376,-1.55573 -4.68492,-1.8663c-6.15869,-1.1584 -12.92297,1.04658 -19.07877,-0.01727c-1.0387,-0.17951 -1.96125,-0.82797 -3.00106,-1.00089c-2.63275,-0.43781 -3.63044,0.63945 -6.17044,-0.70934c-0.83269,-0.44217 -1.15551,-1.58356 -2.00092,-2.00089c-0.20456,-0.10098 -6.07958,-1.53596 -7.13534,-2.07236c-3.11685,-1.58358 -5.62151,-2.90523 -9.00243,-4.00292c-2.81194,-1.88801 -4.94554,-4.44681 -8.00229,-6.00324c-6.50362,-3.31149 -13.86635,-4.29963 -19.35466,-9.54848c-3.12246,-2.98623 -2.71965,-5.76182 -4.50281,-9.31373c-0.48068,-0.95747 -1.49399,-1.61791 -1.85345,-2.62716c-0.59014,-1.65692 0.10669,-3.51842 0.10669,-5.2773c0,-2.69121 -0.47667,-5.95186 -0.03312,-8.60257c0.57237,-3.42056 1.99721,-5.78261 2.03159,-9.40379c0,-4.62766 -0.79444,-10.05436 -0.03293,-14.60524c0.34793,-2.07928 1.65001,-3.92344 1.99992,-6.00238c0.14811,-0.87997 -0.35871,-1.83104 -0.07499,-2.67708c0.34064,-1.01576 1.37241,-1.6697 1.85308,-2.62717c2.37631,-4.73342 3.37645,-10.62758 4.22261,-15.70455c0.1644,-0.98639 -0.15887,-2.01395 0.00022,-3.00121c0.46816,-2.90526 2.13351,-5.86684 2.93346,-8.70522c1.12709,-3.99911 0.13821,-5.97359 2.91058,-8.74595c0.09608,-1.99769 -0.72944,-4.14027 0.00085,-6.00217c0.57254,-1.45973 2.35005,-2.08184 3.45879,-3.19059c2.5317,-2.5317 5.09638,-4.58128 7.81907,-6.83808c0.54549,-0.45214 0.71079,-1.37038 1.37219,-1.62444c0.762,-0.29271 1.63969,0.29693 2.444,0.1576c2.44116,-0.42288 4.48787,-2.10767 6.69946,-3.22434c2.49456,-1.25954 3.62941,-0.56076 6.21741,-2.12119c2.43315,-1.46706 4.05597,-4.43154 6.27332,-6.19651c4.09043,-3.25591 8.17851,-6.77857 12.51892,-9.69284c3.38092,-1.09769 5.88696,-2.41925 9.00381,-4.00283c3.01487,-1.53176 6.16062,-1.25737 9.30592,-1.78041c1.03981,-0.17291 1.96273,-0.82124 3.00143,-1.00075c3.59172,-0.62073 7.94924,0.03002 11.60472,0.03002c5.68138,0 12.09342,-0.84354 17.70379,-0.02119c1.35984,0.19932 2.63598,0.85012 4.00219,0.99969c3.89468,0.42638 8.36917,0.01839 12.31266,0.01839c3.32147,0 7.33002,-0.59786 10.6057,-0.03175c1.0387,0.17951 1.96115,0.83246 3.0018,1.0003c3.89861,0.62878 8.13251,-0.66784 12.00648,0.00166c1.0387,0.17951 1.96104,0.83275 3.00169,1.00059c5.84717,0.94305 12.1903,-1.00164 18.00796,0.00377c0.99809,0.17249 1.93242,0.33514 2.84353,0.47732c0.24559,0.19449 0.44031,0.29189 0.44031,0.29189z" data-paper-data="{&quot;noHover&quot;:false,&quot;origItem&quot;:[&quot;Path&quot;,{&quot;applyMatrix&quot;:true,&quot;segments&quot;:[[[293.44189,115.94433],[0.24559,0.19449],[-0.9111,-0.14218]],[[290.59954,115.46772],[0.99809,0.17249],[-5.81766,-1.00541]],[[272.59954,115.46772],[5.84717,0.94305],[-1.04064,-0.16784]],[[269.59954,114.46772],[1.0387,0.17951],[-3.87397,-0.6695]],[[257.59954,114.46772],[3.89861,0.62878],[-1.04064,-0.16784]],[[254.59954,113.46772],[1.0387,0.17951],[-3.27568,-0.56611]],[[244,113.5],[3.32147,0],[-3.94349,0]],[[231.69454,113.48127],[3.89468,0.42638],[-1.36621,-0.14957]],[[227.69454,112.48127],[1.35984,0.19932],[-5.61036,-0.82235]],[[210,112.5],[5.68138,0],[-3.65547,0]],[[198.40046,112.46772],[3.59172,-0.62073],[-1.0387,0.17951]],[[195.40046,113.46772],[1.03981,-0.17291],[-3.1453,0.52304]],[[186.09838,115.24579],[3.01487,-1.53176],[-3.11685,1.58358]],[[177.09838,119.24579],[3.38092,-1.09769],[-4.34041,2.91427]],[[164.58497,128.93336],[4.09043,-3.25591],[-2.21735,1.76497]],[[158.31433,135.12663],[2.43315,-1.46706],[-2.588,1.56043]],[[152.09838,137.24579],[2.49456,-1.25954],[-2.2116,1.11667]],[[145.40046,140.46772],[2.44116,-0.42288],[-0.8043,0.13933]],[[142.95671,140.3097],[0.762,-0.29271],[-0.6614,0.25406]],[[141.58497,141.93336],[0.54549,-0.45214],[-2.7227,2.25679]],[[133.76777,148.76777],[2.5317,-2.5317],[-1.10874,1.10874]],[[130.3097,151.95671],[0.57254,-1.45973],[-0.73029,1.8619]],[[130.3097,157.95671],[0.09608,-1.99769],[-2.77237,2.77237]],[[127.4003,166.69897],[1.12709,-3.99911],[-0.79995,2.83838]],[[124.46772,175.40046],[0.46816,-2.90526],[-0.15909,0.98726]],[[124.46772,178.40046],[0.1644,-0.98639],[-0.84616,5.07697]],[[120.24579,194.09838],[2.37631,-4.73342],[-0.48068,0.95747]],[[118.39273,196.72446],[0.34064,-1.01576],[-0.28372,0.84604]],[[118.46772,199.40046],[0.14811,-0.87997],[-0.34992,2.07894]],[[116.46772,205.40046],[0.34793,-2.07928],[-0.76151,4.55088]],[[116.5,220],[0,-4.62766],[-0.03438,3.62118]],[[114.46772,229.40046],[0.57237,-3.42056],[-0.44355,2.6507]],[[114.5,238],[0,-2.69121],[0,1.75888]],[[114.39273,243.27554],[-0.59014,-1.65692],[0.35946,1.00925]],[[116.24579,245.90162],[-0.48068,-0.95747],[1.78315,3.5519]],[[120.7471,255.2118],[-3.12246,-2.98623],[5.48831,5.24885]],[[140.09838,264.75421],[-6.50362,-3.31149],[3.05675,1.55642]],[[148.09838,270.75421],[-2.81194,-1.88801],[3.38092,1.09769]],[[157.09838,274.75421],[-3.11685,-1.58358],[1.05576,0.5364]],[[164.23175,276.8245],[-0.20456,-0.10098],[0.84542,0.41733]],[[166.23175,278.8245],[-0.83269,-0.44217],[2.54,1.34879]],[[172.40046,279.53228],[-2.63275,-0.43781],[1.03981,0.17291]],[[175.40046,280.53228],[-1.0387,-0.17951],[6.1558,1.06385]],[[194.47277,280.54511],[-6.15869,-1.1584],[1.65116,0.31057]],[[199.15537,282.41015],[-1.63801,-0.37378],[4.46891,1.01978]],[[213.30546,282.51873],[-4.53708,-0.55651],[2.23858,0.27458]],[[220,283.5],[-2.2553,0.01568],[3.67308,0]],[[231.30546,283.51873],[-3.63557,-0.44593],[1.36415,0.16732]],[[235.30546,284.51873],[-1.36333,-0.17386],[4.05079,0.51659]],[[248,284.5],[-4.09494,0],[6.55086,0]],[[267.82278,284.50629],[-6.53124,0.43986],[3.1747,-0.21381]],[[277.05667,282.08651],[-3.09866,0.72303],[1.66073,-0.38751]],[[282.14757,281.58022],[-1.67714,0.30882],[5.37606,-0.98992]],[[298.26218,277.61135],[-5.357,1.179],[3.79037,-1.52365]],[[309.76828,272.82449],[-3.56074,2.03236],[1.82617,-1.04232]],[[314.68567,268.87337],[-1.79838,1.08957],[0.90154,-0.54621]],[[317.68567,267.87337],[-0.90648,0.53797],[1.90519,-1.13067]],[[322.90162,263.75421],[-1.97674,1.00034],[2.64046,-1.33622]],[[331.68567,260.87337],[-2.50503,1.52582],[1.89208,-1.15248]],[[336.90162,256.75421],[-1.9742,1.00534],[0.86737,-0.4417]],[[339.68567,255.87337],[-0.86329,0.44961],[1.7442,-0.9084]],[[341.75421,251.90162],[-0.82065,1.63576],[2.67425,-5.33044]],[[352.06664,237.41503],[-3.2598,4.88971],[2.5453,-2.5453]],[[356.75421,229.90162],[-1.55456,3.10597],[0.52377,-1.04649]],[[358.71371,226.98862],[-0.46056,1.07581],[0.54089,-1.26346]],[[359.71371,222.98862],[-0.54187,1.26304],[0.48632,-1.13356]],[[361.75421,219.90162],[-0.55382,1.10215],[2.27946,-4.53633]],[[366.61358,205.25502],[-1.51556,4.82743],[0.86994,-2.77097]],[[369.53228,196.59954],[-0.47861,2.86023],[0.36306,-2.16971]],[[369.5,190],[0,2.19987],[0,-4.09494]],[[369.51873,177.30546],[0.51659,4.05079],[-0.29412,-2.30636]],[[368.53228,170.40046],[-0.01084,2.32501],[-1.31773,-3.9532]],[[366.53228,158.40046],[0.6523,4.04797],[-0.31416,-1.94958]],[[364.62829,152.79057],[0.62446,1.87339],[-0.92536,-2.77608]],[[361.75421,144.09838],[1.29091,2.62329],[-0.90664,-1.84241]],[[357.87337,139.31433],[0.99626,1.79552],[-0.37369,-0.67349]],[[357.53822,137.02811],[0.59789,0.48556],[-0.51438,-0.41773]],[[355.59954,137.46772],[0.65491,0.10088],[-1.36301,-0.20995]],[[351.68567,136.12663],[1.20071,0.67835],[-0.82087,-0.46375]],[[349.68567,134.12663],[0.80845,0.48507],[-0.90388,-0.54233]],[[346.68567,133.12663],[0.90388,0.54233],[-0.80845,-0.48507]],[[344.68567,131.12663],[0.80845,0.48507],[-0.90388,-0.54233]],[[341.68567,130.12663],[0.90388,0.54233],[-0.80845,-0.48507]],[[339.68567,128.12663],[0.80293,0.49416],[-1.63245,-1.0047]],[[334.20943,126.37171],[1.81849,0.60616],[-1.75954,-0.60946]],[[328.69454,125.48127],[1.84312,0.26523],[-5.44327,-0.78331]],[[312.59954,121.46772],[5.36485,0.87768],[-0.98688,-0.16145]],[[309.59954,121.46772],[0.98561,0.16905],[-4.40653,-0.75579]],[[296.39366,117.42536],[4.36581,1.08933],[0,0]],[293.88197,116.23607]],&quot;closed&quot;:true}]}" fill="#ffffff"/></g></g></svg>