<svg version="1.1" xmlns="http://www.w3.org/2000/svg" xmlns:xlink="http://www.w3.org/1999/xlink" width="404.40433" height="109.32051" viewBox="0,0,404.40433,109.32051"><g transform="translate(-17.0966,-239.46695)"><g data-paper-data="{&quot;isPaintingLayer&quot;:true}" fill="#190d36" fill-rule="nonzero" stroke="none" stroke-width="0.5" stroke-linecap="butt" stroke-linejoin="miter" stroke-miterlimit="10" stroke-dasharray="" stroke-dashoffset="0" style="mix-blend-mode: normal"><path d="M230.40046,240.53228c2.19093,0.35336 4.33919,1.05951 6.55625,1.15802l1.01586,0.9186c0.20981,-0.0159 0.41887,-0.04065 0.62698,-0.07662c2.12949,-0.36802 4.2395,-1.01177 6.40046,-1.03228c1.89404,0.02352 3.72352,-0.70603 5.59954,-0.96772c2.80717,-0.39157 7.91716,-0.4651 10.80091,0c3.03476,0.48945 5.96901,1.47618 9,2c2.4191,0.41807 3.77186,-0.72479 6.324,0.07499c1.14686,0.35939 1.86875,1.59414 3,2c1.75127,0.62831 3.73826,-0.3455 5.581,-0.08854c3.44272,0.48008 6.72026,1.43032 10.095,2.01355c2.24864,0.38861 4.57723,-0.26626 6.84589,-0.02011c3.9625,0.42993 8.19138,1.03869 12.05911,2.00656c4.20565,0.01841 8.01427,1.33185 12.095,2.01355c3.24517,0.54212 6.74962,0.45949 10,1c1.03981,0.17291 1.9613,0.82049 3,1c4.84587,0.83747 10.12695,-0.78594 15,0c4.05655,0.65425 7.95024,2.32234 12,3c1.97257,0.33008 4.02705,-0.32782 6,0c0.26376,0.04383 5.92847,1.94213 6.39011,2.09601c2.19119,0.74584 4.09526,2.16911 6.22081,3.08542c2.33114,1.00494 5.11197,0.87757 7.30294,2.15966c0.86382,0.50548 1.31846,1.53773 2.14745,2.09852c2.05456,1.38985 4.73448,1.61048 6.85255,2.90148c3.19122,1.9451 6.2282,6.12459 8.8123,8.8123l1.11898,3.16687c1.60586,1.3266 3.01242,2.86371 4.52216,4.37969c2.68949,2.7006 5.00974,5.46096 5.69995,9.36731c0.04177,0.23643 0.03228,5.94037 0.03228,6.40046c0,5 0,10 0,15c-0.04605,4.85032 -1.83944,12.04407 -4.37337,16.31433c-0.53701,0.90498 -1.53811,1.44716 -2.19327,2.27064c-1.9919,2.50368 -3.77216,5.78822 -6.61903,7.54165c-0.89751,0.55279 -2.09612,0.45767 -3,1c-0.80845,0.48507 -1.17913,1.53625 -2,2c-1.20071,0.67835 -2.56002,1.07848 -3.91387,1.34109c-0.9817,0.19042 -2.01361,-0.1644 -3,0c-1.03975,0.17329 -1.95936,0.83216 -3,1c-4.44665,0.71717 -11.35426,0.71717 -15.80091,0c-1.87002,-0.3016 -3.70551,-0.99124 -5.59954,-0.96772c-2.68095,0 -5.96145,-0.4882 -8.59954,-0.03228c-3.83644,0.66302 -9.39708,2.29811 -13.35716,0.84198c-0.88488,-0.32537 -1.13945,-1.61484 -2,-2c-0.62436,-0.27945 -1.35973,0.16451 -2.04329,0.1903c-2.89494,0.10924 -6.55138,0.42722 -9.40046,-0.03228c-1.04064,-0.16784 -1.9613,-0.82049 -3,-1c-2.63809,-0.45592 -5.91859,0.03228 -8.59954,0.03228c-4.91684,0 -9.91923,-0.59239 -14.59954,0.96772c-8.79921,0.08353 -17.60085,0.03228 -26.40046,0.03228c-4.92133,0 -10.54825,0.75029 -15.40046,-0.03228c-1.04064,-0.16784 -1.96025,-0.82671 -3,-1c-2.96488,-0.49415 -6.037,-0.49786 -9,-1c-5.08559,-0.86186 -9.31429,-2.99451 -14.59954,-2.96772c-10.36313,0 -21.30521,-1.0996 -30.90162,3.74579c-1.07285,0.5417 -1.9242,1.46418 -3,2c-0.87127,0.43395 -1.94789,0.38258 -2.78405,0.88084c-0.92007,0.54827 -1.35506,1.80624 -2.35762,2.18307c-3.42011,1.28552 -7.11886,-0.37936 -10.35716,-0.84198c-3.59903,-0.51416 -7.40492,-0.40217 -11,-1c-1.86852,-0.31072 -3.70551,-0.99124 -5.59954,-0.96772c-24.66667,0 -49.33333,0 -74,0c-3.32147,0 -7.32386,-0.59839 -10.59954,-0.03228c-1.0387,0.17951 -1.95378,0.87144 -3,1c-6.87289,0.84457 -14.46432,0.03228 -21.40046,0.03228c-3.42386,0 -7.95979,0.53941 -11.40046,-0.03228c-0.40887,-0.06794 -6.64085,-2.18071 -6.91387,-2.34109c-0.78625,-0.46185 -1.10214,-1.5427 -1.91742,-1.95113c-1.11144,-0.5568 -2.47188,-0.39372 -3.63562,-0.83079c-2.91259,-1.09388 -9.1542,-4.24369 -11.1194,-6.82723c-0.88296,-1.16078 -0.9873,-2.74469 -1.48095,-4.11703c0.05267,-0.81458 0.36239,-1.65346 0.15802,-2.44375c-0.36745,-1.42092 -2.75498,-1.0604 -4.00463,-1.83008c-0.96597,-0.59495 -1.65123,-1.55666 -2.45344,-2.35886c-0.8022,-0.8022 -1.76391,-1.48747 -2.35886,-2.45344c-0.55279,-0.89751 -0.45767,-2.09612 -1,-3c-0.48507,-0.80845 -1.53625,-1.17913 -2,-2c-0.67835,-1.20071 -1.0866,-2.55847 -1.34109,-3.91387c-1.36346,-7.26152 0.80128,-14.86471 2,-21.80091c0.96823,-5.60251 -0.05415,-12.29589 0,-18c0.64852,-2.00596 1.65207,-3.92072 2,-6c0.60033,-3.58762 -1.20432,-7.14024 1.69995,-10.36731c0.82753,-0.91951 2.40014,-0.71012 3.45344,-1.35886c0.80276,-0.49443 1.18709,-1.52243 2,-2c0.35464,-0.20834 5.86445,-2.02552 6.52376,-2.24508c6.28983,-2.09461 12.92324,-4.19395 19.39011,-5.09601c6.49653,-0.90619 13.84231,-0.03228 20.40046,-0.03228c8.33333,0 16.66667,0 25,0c3.65547,0 8.00782,0.65301 11.59954,0.03228c1.0387,-0.17951 1.95936,-0.83216 3,-1c3.29052,-0.5307 6.79797,0.40691 10.095,-0.01355c1.36333,-0.17386 2.6388,-0.81018 4,-1c1.94948,-0.27185 3.96541,0.34875 5.905,0.01355c2.12949,-0.36802 4.2395,-1.01177 6.40046,-1.03228c6.66823,0 13.73581,-0.69224 20.34934,0.03218c1.6548,0.18126 3.24062,0.81388 4.89701,0.97999c3.80615,0.3817 7.91461,-0.01217 11.75366,-0.01217c5.17988,0 11.47628,0.88957 16.59954,0.03228c4.23721,-0.70902 8.59228,-2.90523 12.79412,-3.95764c0,0 0.43015,-0.10754 0.97344,-0.05088c0.3936,-0.09246 0.86465,-0.08174 1.42347,0.10453c0.6026,0.20087 1.00105,0.5038 1.2602,0.84397c6.32251,-0.15966 13.26811,-0.92083 19.34969,0.06002zM201.44815,246.78153c0.05752,-0.00408 0.11494,-0.00834 0.17228,-0.01278c-0.00461,-0.01427 -0.00909,-0.02859 -0.01344,-0.04297c-0.05294,0.01862 -0.10589,0.0372 -0.15883,0.05575z"/></g></g></svg>