<svg version="1.1" xmlns="http://www.w3.org/2000/svg" xmlns:xlink="http://www.w3.org/1999/xlink" width="112.28565" height="56.73232" viewBox="0,0,112.28565,56.73232"><g transform="translate(-74.42206,-252.93238)"><g data-paper-data="{&quot;isPaintingLayer&quot;:true}" fill-rule="nonzero" stroke="none" stroke-linecap="butt" stroke-linejoin="miter" stroke-miterlimit="10" stroke-dasharray="" stroke-dashoffset="0" style="mix-blend-mode: normal"><path d="M131,309.5c-3.31699,0 -7.0321,0.38277 -10.30546,-0.01873c-1.36415,-0.16732 -2.64016,-0.80068 -4,-1c-5.94512,-0.87142 -12.66643,0.01873 -18.69454,0.01873c-2.70204,0 -7.46573,0.74599 -9.95671,-0.1903c-1.00256,-0.37683 -1.43683,-1.63601 -2.35762,-2.18307c-0.90622,-0.5384 -2.11859,-0.42188 -3,-1c-3.40977,-2.23648 -3.87312,-5.78328 -5.05738,-9.33606c-2.09047,-6.2714 -3.12829,-12.17997 -3.12829,-18.79057c0,-3.46892 -0.57009,-7.167 1.37337,-10.31433c1.21735,-1.97143 3.80881,-2.64845 5.8123,-3.8123c1.53601,-0.89228 2.46831,-2.55563 3.72936,-3.80673c1.28684,-0.81979 2.42163,-1.9518 3.86051,-2.45937c1.04516,-0.36868 2.23139,0.11074 3.324,-0.07499c1.03919,-0.17665 1.95936,-0.83216 3,-1c3.29385,-0.53124 7.05943,-0.03228 10.40046,-0.03228c5,0 10,0 15,0c2.97392,0 6.47128,-0.44014 9.40046,0.03228c3.03476,0.48945 5.96901,1.47618 9,2c5.09899,0.88121 9.93126,-0.68958 15,1c2.97306,0 6.09725,0.50213 9,1c2.07784,0.35638 3.9224,1.64217 6,2c1.16937,0.2014 2.46382,-0.30521 3.55625,0.15802c0.43833,0.18587 4.82195,4.4304 5.16992,4.99537c0.55279,0.89751 0.45767,2.09612 1,3c0.48507,0.80845 1.51493,1.19155 2,2c0.54233,0.90388 0.47052,2.08854 1,3c1.01138,1.74104 3.42931,2.49055 4.18307,4.35762c0.49431,1.22441 0.15419,2.63677 0.1903,3.95671c0.07954,2.90784 0.44279,6.54126 -0.03228,9.40046c-0.14318,0.86171 -2.32798,6.96913 -2.69995,7.36731c-0.78991,0.84556 -2.3483,0.49419 -3.25028,1.219c-0.93685,0.75283 -1.33333,2 -2,3c-1.06772,0.37995 -2.23031,0.55852 -3.20316,1.13986c-0.9194,0.5494 -1.36177,1.78885 -2.35762,2.18307c-1.10329,0.43675 -2.38775,-0.04837 -3.55625,0.15802c-4.18937,0.73996 -8.07444,1.99121 -12.40046,2.03228c-8,0 -18,0 -26,0z" fill="#360d13" stroke-width="0.5"/><text transform="translate(105.44763,294.34238) scale(0.82,0.82)" font-size="40" xml:space="preserve" fill="#ff3d5a" fill-rule="nonzero" stroke="none" stroke-width="1" stroke-linecap="butt" stroke-linejoin="miter" stroke-miterlimit="10" stroke-dasharray="" stroke-dashoffset="0" font-family="Pixel" font-weight="normal" text-anchor="start" style="mix-blend-mode: normal"><tspan x="0" dy="0">idk</tspan></text></g></g></svg>